<?xml version="1.0" encoding="UTF-8" standalone="no"?>
<!-- Created with Inkscape (http://www.inkscape.org/) -->

<svg
   version="1.1"
   id="svg1"
   width="430.80099"
   height="512"
   viewBox="0 0 430.801 512.00001"
   xmlns="http://www.w3.org/2000/svg"
   xmlns:svg="http://www.w3.org/2000/svg">
  <defs
     id="defs1">
    <clipPath
       clipPathUnits="userSpaceOnUse"
       id="clipPath1296">
      <path
         d="m 618.772,347.612 v -1.349 h 17.318 v -48.334 h 6.744 v 48.334 h 17.318 v 1.349 z m -26.834,0 -22.073,-49.683 h 1.49 l 7.169,16.112 h 27.539 l 7.168,-16.112 h 7.311 l -22.073,49.683 z m 0.356,-2.557 13.13,-29.667 h -26.333 z m -36.493,2.557 -19.447,-41.876 -23.634,41.876 h -5.394 v -49.683 h 1.349 v 43.225 l 24.202,-42.942 h 1.49 l 21.649,46.632 v -46.915 h 6.741 v 49.683 z m -84.185,0 -22.074,-49.683 h 1.491 l 7.169,16.112 h 27.538 l 7.169,-16.112 h 7.311 l -22.073,49.683 z m 0.355,-2.557 13.131,-29.667 h -26.333 z m -30.812,2.557 v -39.179 l -33.144,39.179 h -7.383 v -49.683 h 1.349 v 46.418 l 39.178,-46.418 h 1.277 v 49.683 z m 158.713,-72.804 -6.824,-15.488 -6.849,15.488 h -2.595 v -4.515 -8.146 -6.019 h 0.624 v 5.941 10.949 l 7.419,-16.89 h 0.648 l 7.447,16.89 v -11.908 -4.982 h 2.697 v 4.982 9.183 4.515 z m -42.757,0 -7.732,-18.68 h 0.987 l 2.62,6.849 h 6.875 l 1.401,-3.424 c 0,0 0.415,-1.012 1.401,-3.425 v 0 h 2.931 l -7.938,18.68 z m -0.752,-3.373 3.268,-7.835 h -6.459 z m -36.141,3.373 v -4.696 -9.184 -4.8 h 12.998 v 0.623 h -10.3 v 18.057 z m -28.097,0 v -4.67 -6.849 -1.115 -1.323 -4.723 h 2.698 v 4.748 1.298 0.674 0.441 2.335 h 1.945 3.451 v 0.648 h -3.529 -1.867 v 3.295 0.545 4.073 h 2.464 5.734 v 0.623 z m -26.049,0 -7.731,-18.68 h 0.985 l 2.62,6.849 h 6.876 l 1.401,-3.424 c 0,0 0.415,-1.012 1.401,-3.425 v 0 h 2.931 l -7.939,18.68 z m -0.753,-3.373 3.269,-7.835 h -6.46 z"
         transform="matrix(1,0,0,-1,3.0000001e-5,2.5000001e-6)"
         id="path1296" />
    </clipPath>
    <clipPath
       clipPathUnits="userSpaceOnUse"
       id="clipPath1300">
      <path
         d="m 618.772,347.612 v -1.349 h 17.318 v -48.334 h 6.744 v 48.334 h 17.318 v 1.349 z m -26.834,0 -22.073,-49.683 h 1.49 l 7.169,16.112 h 27.539 l 7.168,-16.112 h 7.311 l -22.073,49.683 z m 0.356,-2.557 13.13,-29.667 h -26.333 z m -36.493,2.557 -19.447,-41.876 -23.634,41.876 h -5.394 v -49.683 h 1.349 v 43.225 l 24.202,-42.942 h 1.49 l 21.649,46.632 v -46.915 h 6.741 v 49.683 z m -84.185,0 -22.074,-49.683 h 1.491 l 7.169,16.112 h 27.538 l 7.169,-16.112 h 7.311 l -22.073,49.683 z m 0.355,-2.557 13.131,-29.667 h -26.333 z m -30.812,2.557 v -39.179 l -33.144,39.179 h -7.383 v -49.683 h 1.349 v 46.418 l 39.178,-46.418 h 1.277 v 49.683 z m 158.713,-72.804 -6.824,-15.488 -6.849,15.488 h -2.595 v -4.515 -8.146 -6.019 h 0.624 v 5.941 10.949 l 7.419,-16.89 h 0.648 l 7.447,16.89 v -11.908 -4.982 h 2.697 v 4.982 9.183 4.515 z m -42.757,0 -7.732,-18.68 h 0.987 l 2.62,6.849 h 6.875 l 1.401,-3.424 c 0,0 0.415,-1.012 1.401,-3.425 v 0 h 2.931 l -7.938,18.68 z m -0.752,-3.373 3.268,-7.835 h -6.459 z m -36.141,3.373 v -4.696 -9.184 -4.8 h 12.998 v 0.623 h -10.3 v 18.057 z m -28.097,0 v -4.67 -6.849 -1.115 -1.323 -4.723 h 2.698 v 4.748 1.298 0.674 0.441 2.335 h 1.945 3.451 v 0.648 h -3.529 -1.867 v 3.295 0.545 4.073 h 2.464 5.734 v 0.623 z m -26.049,0 -7.731,-18.68 h 0.985 l 2.62,6.849 h 6.876 l 1.401,-3.424 c 0,0 0.415,-1.012 1.401,-3.425 v 0 h 2.931 l -7.939,18.68 z m -0.753,-3.373 3.269,-7.835 h -6.46 z"
         transform="matrix(1,0,0,-1,3.0000001e-5,2.5000001e-6)"
         id="path1300" />
    </clipPath>
    <clipPath
       clipPathUnits="userSpaceOnUse"
       id="clipPath1302">
      <path
         d="m 618.772,347.612 v -1.349 h 17.318 v -48.334 h 6.744 v 48.334 h 17.318 v 1.349 z m -26.834,0 -22.073,-49.683 h 1.49 l 7.169,16.112 h 27.539 l 7.168,-16.112 h 7.311 l -22.073,49.683 z m 0.356,-2.557 13.13,-29.667 h -26.333 z m -36.493,2.557 -19.447,-41.876 -23.634,41.876 h -5.394 v -49.683 h 1.349 v 43.225 l 24.202,-42.942 h 1.49 l 21.649,46.632 v -46.915 h 6.741 v 49.683 z m -84.185,0 -22.074,-49.683 h 1.491 l 7.169,16.112 h 27.538 l 7.169,-16.112 h 7.311 l -22.073,49.683 z m 0.355,-2.557 13.131,-29.667 h -26.333 z m -30.812,2.557 v -39.179 l -33.144,39.179 h -7.383 v -49.683 h 1.349 v 46.418 l 39.178,-46.418 h 1.277 v 49.683 z m 158.713,-72.804 -6.824,-15.488 -6.849,15.488 h -2.595 v -4.515 -8.146 -6.019 h 0.624 v 5.941 10.949 l 7.419,-16.89 h 0.648 l 7.447,16.89 v -11.908 -4.982 h 2.697 v 4.982 9.183 4.515 z m -42.757,0 -7.732,-18.68 h 0.987 l 2.62,6.849 h 6.875 l 1.401,-3.424 c 0,0 0.415,-1.012 1.401,-3.425 v 0 h 2.931 l -7.938,18.68 z m -0.752,-3.373 3.268,-7.835 h -6.459 z m -36.141,3.373 v -4.696 -9.184 -4.8 h 12.998 v 0.623 h -10.3 v 18.057 z m -28.097,0 v -4.67 -6.849 -1.115 -1.323 -4.723 h 2.698 v 4.748 1.298 0.674 0.441 2.335 h 1.945 3.451 v 0.648 h -3.529 -1.867 v 3.295 0.545 4.073 h 2.464 5.734 v 0.623 z m -26.049,0 -7.731,-18.68 h 0.985 l 2.62,6.849 h 6.876 l 1.401,-3.424 c 0,0 0.415,-1.012 1.401,-3.425 v 0 h 2.931 l -7.939,18.68 z m -0.753,-3.373 3.269,-7.835 h -6.46 z"
         transform="matrix(1,0,0,-1,3.0000001e-5,2.5000001e-6)"
         id="path1302" />
    </clipPath>
    <clipPath
       clipPathUnits="userSpaceOnUse"
       id="clipPath1304">
      <path
         d="m 618.772,347.612 v -1.349 h 17.318 v -48.334 h 6.744 v 48.334 h 17.318 v 1.349 z m -26.834,0 -22.073,-49.683 h 1.49 l 7.169,16.112 h 27.539 l 7.168,-16.112 h 7.311 l -22.073,49.683 z m 0.356,-2.557 13.13,-29.667 h -26.333 z m -36.493,2.557 -19.447,-41.876 -23.634,41.876 h -5.394 v -49.683 h 1.349 v 43.225 l 24.202,-42.942 h 1.49 l 21.649,46.632 v -46.915 h 6.741 v 49.683 z m -84.185,0 -22.074,-49.683 h 1.491 l 7.169,16.112 h 27.538 l 7.169,-16.112 h 7.311 l -22.073,49.683 z m 0.355,-2.557 13.131,-29.667 h -26.333 z m -30.812,2.557 v -39.179 l -33.144,39.179 h -7.383 v -49.683 h 1.349 v 46.418 l 39.178,-46.418 h 1.277 v 49.683 z m 158.713,-72.804 -6.824,-15.488 -6.849,15.488 h -2.595 v -4.515 -8.146 -6.019 h 0.624 v 5.941 10.949 l 7.419,-16.89 h 0.648 l 7.447,16.89 v -11.908 -4.982 h 2.697 v 4.982 9.183 4.515 z m -42.757,0 -7.732,-18.68 h 0.987 l 2.62,6.849 h 6.875 l 1.401,-3.424 c 0,0 0.415,-1.012 1.401,-3.425 v 0 h 2.931 l -7.938,18.68 z m -0.752,-3.373 3.268,-7.835 h -6.459 z m -36.141,3.373 v -4.696 -9.184 -4.8 h 12.998 v 0.623 h -10.3 v 18.057 z m -28.097,0 v -4.67 -6.849 -1.115 -1.323 -4.723 h 2.698 v 4.748 1.298 0.674 0.441 2.335 h 1.945 3.451 v 0.648 h -3.529 -1.867 v 3.295 0.545 4.073 h 2.464 5.734 v 0.623 z m -26.049,0 -7.731,-18.68 h 0.985 l 2.62,6.849 h 6.876 l 1.401,-3.424 c 0,0 0.415,-1.012 1.401,-3.425 v 0 h 2.931 l -7.939,18.68 z m -0.753,-3.373 3.269,-7.835 h -6.46 z"
         transform="matrix(1,0,0,-1,3.0000001e-5,2.5000001e-6)"
         id="path1304" />
    </clipPath>
    <clipPath
       clipPathUnits="userSpaceOnUse"
       id="clipPath1306">
      <path
         d="m 618.772,347.612 v -1.349 h 17.318 v -48.334 h 6.744 v 48.334 h 17.318 v 1.349 z m -26.834,0 -22.073,-49.683 h 1.49 l 7.169,16.112 h 27.539 l 7.168,-16.112 h 7.311 l -22.073,49.683 z m 0.356,-2.557 13.13,-29.667 h -26.333 z m -36.493,2.557 -19.447,-41.876 -23.634,41.876 h -5.394 v -49.683 h 1.349 v 43.225 l 24.202,-42.942 h 1.49 l 21.649,46.632 v -46.915 h 6.741 v 49.683 z m -84.185,0 -22.074,-49.683 h 1.491 l 7.169,16.112 h 27.538 l 7.169,-16.112 h 7.311 l -22.073,49.683 z m 0.355,-2.557 13.131,-29.667 h -26.333 z m -30.812,2.557 v -39.179 l -33.144,39.179 h -7.383 v -49.683 h 1.349 v 46.418 l 39.178,-46.418 h 1.277 v 49.683 z m 158.713,-72.804 -6.824,-15.488 -6.849,15.488 h -2.595 v -4.515 -8.146 -6.019 h 0.624 v 5.941 10.949 l 7.419,-16.89 h 0.648 l 7.447,16.89 v -11.908 -4.982 h 2.697 v 4.982 9.183 4.515 z m -42.757,0 -7.732,-18.68 h 0.987 l 2.62,6.849 h 6.875 l 1.401,-3.424 c 0,0 0.415,-1.012 1.401,-3.425 v 0 h 2.931 l -7.938,18.68 z m -0.752,-3.373 3.268,-7.835 h -6.459 z m -36.141,3.373 v -4.696 -9.184 -4.8 h 12.998 v 0.623 h -10.3 v 18.057 z m -28.097,0 v -4.67 -6.849 -1.115 -1.323 -4.723 h 2.698 v 4.748 1.298 0.674 0.441 2.335 h 1.945 3.451 v 0.648 h -3.529 -1.867 v 3.295 0.545 4.073 h 2.464 5.734 v 0.623 z m -26.049,0 -7.731,-18.68 h 0.985 l 2.62,6.849 h 6.876 l 1.401,-3.424 c 0,0 0.415,-1.012 1.401,-3.425 v 0 h 2.931 l -7.939,18.68 z m -0.753,-3.373 3.269,-7.835 h -6.46 z"
         transform="matrix(1,0,0,-1,3.0000001e-5,2.5000001e-6)"
         id="path1306" />
    </clipPath>
    <clipPath
       clipPathUnits="userSpaceOnUse"
       id="clipPath1308">
      <path
         d="m 618.772,347.612 v -1.349 h 17.318 v -48.334 h 6.744 v 48.334 h 17.318 v 1.349 z m -26.834,0 -22.073,-49.683 h 1.49 l 7.169,16.112 h 27.539 l 7.168,-16.112 h 7.311 l -22.073,49.683 z m 0.356,-2.557 13.13,-29.667 h -26.333 z m -36.493,2.557 -19.447,-41.876 -23.634,41.876 h -5.394 v -49.683 h 1.349 v 43.225 l 24.202,-42.942 h 1.49 l 21.649,46.632 v -46.915 h 6.741 v 49.683 z m -84.185,0 -22.074,-49.683 h 1.491 l 7.169,16.112 h 27.538 l 7.169,-16.112 h 7.311 l -22.073,49.683 z m 0.355,-2.557 13.131,-29.667 h -26.333 z m -30.812,2.557 v -39.179 l -33.144,39.179 h -7.383 v -49.683 h 1.349 v 46.418 l 39.178,-46.418 h 1.277 v 49.683 z m 158.713,-72.804 -6.824,-15.488 -6.849,15.488 h -2.595 v -4.515 -8.146 -6.019 h 0.624 v 5.941 10.949 l 7.419,-16.89 h 0.648 l 7.447,16.89 v -11.908 -4.982 h 2.697 v 4.982 9.183 4.515 z m -42.757,0 -7.732,-18.68 h 0.987 l 2.62,6.849 h 6.875 l 1.401,-3.424 c 0,0 0.415,-1.012 1.401,-3.425 v 0 h 2.931 l -7.938,18.68 z m -0.752,-3.373 3.268,-7.835 h -6.459 z m -36.141,3.373 v -4.696 -9.184 -4.8 h 12.998 v 0.623 h -10.3 v 18.057 z m -28.097,0 v -4.67 -6.849 -1.115 -1.323 -4.723 h 2.698 v 4.748 1.298 0.674 0.441 2.335 h 1.945 3.451 v 0.648 h -3.529 -1.867 v 3.295 0.545 4.073 h 2.464 5.734 v 0.623 z m -26.049,0 -7.731,-18.68 h 0.985 l 2.62,6.849 h 6.876 l 1.401,-3.424 c 0,0 0.415,-1.012 1.401,-3.425 v 0 h 2.931 l -7.939,18.68 z m -0.753,-3.373 3.269,-7.835 h -6.46 z"
         transform="matrix(1,0,0,-1,3.0000001e-5,2.5000001e-6)"
         id="path1308" />
    </clipPath>
    <clipPath
       clipPathUnits="userSpaceOnUse"
       id="clipPath1312">
      <path
         d="m 618.772,347.612 v -1.349 h 17.318 v -48.334 h 6.744 v 48.334 h 17.318 v 1.349 z m -26.834,0 -22.073,-49.683 h 1.49 l 7.169,16.112 h 27.539 l 7.168,-16.112 h 7.311 l -22.073,49.683 z m 0.356,-2.557 13.13,-29.667 h -26.333 z m -36.493,2.557 -19.447,-41.876 -23.634,41.876 h -5.394 v -49.683 h 1.349 v 43.225 l 24.202,-42.942 h 1.49 l 21.649,46.632 v -46.915 h 6.741 v 49.683 z m -84.185,0 -22.074,-49.683 h 1.491 l 7.169,16.112 h 27.538 l 7.169,-16.112 h 7.311 l -22.073,49.683 z m 0.355,-2.557 13.131,-29.667 h -26.333 z m -30.812,2.557 v -39.179 l -33.144,39.179 h -7.383 v -49.683 h 1.349 v 46.418 l 39.178,-46.418 h 1.277 v 49.683 z m 158.713,-72.804 -6.824,-15.488 -6.849,15.488 h -2.595 v -4.515 -8.146 -6.019 h 0.624 v 5.941 10.949 l 7.419,-16.89 h 0.648 l 7.447,16.89 v -11.908 -4.982 h 2.697 v 4.982 9.183 4.515 z m -42.757,0 -7.732,-18.68 h 0.987 l 2.62,6.849 h 6.875 l 1.401,-3.424 c 0,0 0.415,-1.012 1.401,-3.425 v 0 h 2.931 l -7.938,18.68 z m -0.752,-3.373 3.268,-7.835 h -6.459 z m -36.141,3.373 v -4.696 -9.184 -4.8 h 12.998 v 0.623 h -10.3 v 18.057 z m -28.097,0 v -4.67 -6.849 -1.115 -1.323 -4.723 h 2.698 v 4.748 1.298 0.674 0.441 2.335 h 1.945 3.451 v 0.648 h -3.529 -1.867 v 3.295 0.545 4.073 h 2.464 5.734 v 0.623 z m -26.049,0 -7.731,-18.68 h 0.985 l 2.62,6.849 h 6.876 l 1.401,-3.424 c 0,0 0.415,-1.012 1.401,-3.425 v 0 h 2.931 l -7.939,18.68 z m -0.753,-3.373 3.269,-7.835 h -6.46 z"
         transform="matrix(1,0,0,-1,3.0000001e-5,2.5000001e-6)"
         id="path1312" />
    </clipPath>
    <clipPath
       clipPathUnits="userSpaceOnUse"
       id="clipPath1316">
      <path
         d="m 618.772,347.612 v -1.349 h 17.318 v -48.334 h 6.744 v 48.334 h 17.318 v 1.349 z m -26.834,0 -22.073,-49.683 h 1.49 l 7.169,16.112 h 27.539 l 7.168,-16.112 h 7.311 l -22.073,49.683 z m 0.356,-2.557 13.13,-29.667 h -26.333 z m -36.493,2.557 -19.447,-41.876 -23.634,41.876 h -5.394 v -49.683 h 1.349 v 43.225 l 24.202,-42.942 h 1.49 l 21.649,46.632 v -46.915 h 6.741 v 49.683 z m -84.185,0 -22.074,-49.683 h 1.491 l 7.169,16.112 h 27.538 l 7.169,-16.112 h 7.311 l -22.073,49.683 z m 0.355,-2.557 13.131,-29.667 h -26.333 z m -30.812,2.557 v -39.179 l -33.144,39.179 h -7.383 v -49.683 h 1.349 v 46.418 l 39.178,-46.418 h 1.277 v 49.683 z m 158.713,-72.804 -6.824,-15.488 -6.849,15.488 h -2.595 v -4.515 -8.146 -6.019 h 0.624 v 5.941 10.949 l 7.419,-16.89 h 0.648 l 7.447,16.89 v -11.908 -4.982 h 2.697 v 4.982 9.183 4.515 z m -42.757,0 -7.732,-18.68 h 0.987 l 2.62,6.849 h 6.875 l 1.401,-3.424 c 0,0 0.415,-1.012 1.401,-3.425 v 0 h 2.931 l -7.938,18.68 z m -0.752,-3.373 3.268,-7.835 h -6.459 z m -36.141,3.373 v -4.696 -9.184 -4.8 h 12.998 v 0.623 h -10.3 v 18.057 z m -28.097,0 v -4.67 -6.849 -1.115 -1.323 -4.723 h 2.698 v 4.748 1.298 0.674 0.441 2.335 h 1.945 3.451 v 0.648 h -3.529 -1.867 v 3.295 0.545 4.073 h 2.464 5.734 v 0.623 z m -26.049,0 -7.731,-18.68 h 0.985 l 2.62,6.849 h 6.876 l 1.401,-3.424 c 0,0 0.415,-1.012 1.401,-3.425 v 0 h 2.931 l -7.939,18.68 z m -0.753,-3.373 3.269,-7.835 h -6.46 z"
         transform="matrix(1,0,0,-1,3.0000001e-5,2.5000001e-6)"
         id="path1316" />
    </clipPath>
    <clipPath
       clipPathUnits="userSpaceOnUse"
       id="clipPath1318">
      <path
         d="m 618.772,347.612 v -1.349 h 17.318 v -48.334 h 6.744 v 48.334 h 17.318 v 1.349 z m -26.834,0 -22.073,-49.683 h 1.49 l 7.169,16.112 h 27.539 l 7.168,-16.112 h 7.311 l -22.073,49.683 z m 0.356,-2.557 13.13,-29.667 h -26.333 z m -36.493,2.557 -19.447,-41.876 -23.634,41.876 h -5.394 v -49.683 h 1.349 v 43.225 l 24.202,-42.942 h 1.49 l 21.649,46.632 v -46.915 h 6.741 v 49.683 z m -84.185,0 -22.074,-49.683 h 1.491 l 7.169,16.112 h 27.538 l 7.169,-16.112 h 7.311 l -22.073,49.683 z m 0.355,-2.557 13.131,-29.667 h -26.333 z m -30.812,2.557 v -39.179 l -33.144,39.179 h -7.383 v -49.683 h 1.349 v 46.418 l 39.178,-46.418 h 1.277 v 49.683 z m 158.713,-72.804 -6.824,-15.488 -6.849,15.488 h -2.595 v -4.515 -8.146 -6.019 h 0.624 v 5.941 10.949 l 7.419,-16.89 h 0.648 l 7.447,16.89 v -11.908 -4.982 h 2.697 v 4.982 9.183 4.515 z m -42.757,0 -7.732,-18.68 h 0.987 l 2.62,6.849 h 6.875 l 1.401,-3.424 c 0,0 0.415,-1.012 1.401,-3.425 v 0 h 2.931 l -7.938,18.68 z m -0.752,-3.373 3.268,-7.835 h -6.459 z m -36.141,3.373 v -4.696 -9.184 -4.8 h 12.998 v 0.623 h -10.3 v 18.057 z m -28.097,0 v -4.67 -6.849 -1.115 -1.323 -4.723 h 2.698 v 4.748 1.298 0.674 0.441 2.335 h 1.945 3.451 v 0.648 h -3.529 -1.867 v 3.295 0.545 4.073 h 2.464 5.734 v 0.623 z m -26.049,0 -7.731,-18.68 h 0.985 l 2.62,6.849 h 6.876 l 1.401,-3.424 c 0,0 0.415,-1.012 1.401,-3.425 v 0 h 2.931 l -7.939,18.68 z m -0.753,-3.373 3.269,-7.835 h -6.46 z"
         transform="matrix(1,0,0,-1,3.0000001e-5,2.5000001e-6)"
         id="path1318" />
    </clipPath>
    <clipPath
       clipPathUnits="userSpaceOnUse"
       id="clipPath1320">
      <path
         d="m 618.772,347.612 v -1.349 h 17.318 v -48.334 h 6.744 v 48.334 h 17.318 v 1.349 z m -26.834,0 -22.073,-49.683 h 1.49 l 7.169,16.112 h 27.539 l 7.168,-16.112 h 7.311 l -22.073,49.683 z m 0.356,-2.557 13.13,-29.667 h -26.333 z m -36.493,2.557 -19.447,-41.876 -23.634,41.876 h -5.394 v -49.683 h 1.349 v 43.225 l 24.202,-42.942 h 1.49 l 21.649,46.632 v -46.915 h 6.741 v 49.683 z m -84.185,0 -22.074,-49.683 h 1.491 l 7.169,16.112 h 27.538 l 7.169,-16.112 h 7.311 l -22.073,49.683 z m 0.355,-2.557 13.131,-29.667 h -26.333 z m -30.812,2.557 v -39.179 l -33.144,39.179 h -7.383 v -49.683 h 1.349 v 46.418 l 39.178,-46.418 h 1.277 v 49.683 z m 158.713,-72.804 -6.824,-15.488 -6.849,15.488 h -2.595 v -4.515 -8.146 -6.019 h 0.624 v 5.941 10.949 l 7.419,-16.89 h 0.648 l 7.447,16.89 v -11.908 -4.982 h 2.697 v 4.982 9.183 4.515 z m -42.757,0 -7.732,-18.68 h 0.987 l 2.62,6.849 h 6.875 l 1.401,-3.424 c 0,0 0.415,-1.012 1.401,-3.425 v 0 h 2.931 l -7.938,18.68 z m -0.752,-3.373 3.268,-7.835 h -6.459 z m -36.141,3.373 v -4.696 -9.184 -4.8 h 12.998 v 0.623 h -10.3 v 18.057 z m -28.097,0 v -4.67 -6.849 -1.115 -1.323 -4.723 h 2.698 v 4.748 1.298 0.674 0.441 2.335 h 1.945 3.451 v 0.648 h -3.529 -1.867 v 3.295 0.545 4.073 h 2.464 5.734 v 0.623 z m -26.049,0 -7.731,-18.68 h 0.985 l 2.62,6.849 h 6.876 l 1.401,-3.424 c 0,0 0.415,-1.012 1.401,-3.425 v 0 h 2.931 l -7.939,18.68 z m -0.753,-3.373 3.269,-7.835 h -6.46 z"
         transform="matrix(1,0,0,-1,3.0000001e-5,2.5000001e-6)"
         id="path1320" />
    </clipPath>
    <clipPath
       clipPathUnits="userSpaceOnUse"
       id="clipPath1322">
      <path
         d="m 618.772,347.612 v -1.349 h 17.318 v -48.334 h 6.744 v 48.334 h 17.318 v 1.349 z m -26.834,0 -22.073,-49.683 h 1.49 l 7.169,16.112 h 27.539 l 7.168,-16.112 h 7.311 l -22.073,49.683 z m 0.356,-2.557 13.13,-29.667 h -26.333 z m -36.493,2.557 -19.447,-41.876 -23.634,41.876 h -5.394 v -49.683 h 1.349 v 43.225 l 24.202,-42.942 h 1.49 l 21.649,46.632 v -46.915 h 6.741 v 49.683 z m -84.185,0 -22.074,-49.683 h 1.491 l 7.169,16.112 h 27.538 l 7.169,-16.112 h 7.311 l -22.073,49.683 z m 0.355,-2.557 13.131,-29.667 h -26.333 z m -30.812,2.557 v -39.179 l -33.144,39.179 h -7.383 v -49.683 h 1.349 v 46.418 l 39.178,-46.418 h 1.277 v 49.683 z m 158.713,-72.804 -6.824,-15.488 -6.849,15.488 h -2.595 v -4.515 -8.146 -6.019 h 0.624 v 5.941 10.949 l 7.419,-16.89 h 0.648 l 7.447,16.89 v -11.908 -4.982 h 2.697 v 4.982 9.183 4.515 z m -42.757,0 -7.732,-18.68 h 0.987 l 2.62,6.849 h 6.875 l 1.401,-3.424 c 0,0 0.415,-1.012 1.401,-3.425 v 0 h 2.931 l -7.938,18.68 z m -0.752,-3.373 3.268,-7.835 h -6.459 z m -36.141,3.373 v -4.696 -9.184 -4.8 h 12.998 v 0.623 h -10.3 v 18.057 z m -28.097,0 v -4.67 -6.849 -1.115 -1.323 -4.723 h 2.698 v 4.748 1.298 0.674 0.441 2.335 h 1.945 3.451 v 0.648 h -3.529 -1.867 v 3.295 0.545 4.073 h 2.464 5.734 v 0.623 z m -26.049,0 -7.731,-18.68 h 0.985 l 2.62,6.849 h 6.876 l 1.401,-3.424 c 0,0 0.415,-1.012 1.401,-3.425 v 0 h 2.931 l -7.939,18.68 z m -0.753,-3.373 3.269,-7.835 h -6.46 z"
         transform="matrix(1,0,0,-1,3.0000001e-5,2.5000001e-6)"
         id="path1322" />
    </clipPath>
    <clipPath
       clipPathUnits="userSpaceOnUse"
       id="clipPath1324">
      <path
         d="m 618.772,347.612 v -1.349 h 17.318 v -48.334 h 6.744 v 48.334 h 17.318 v 1.349 z m -26.834,0 -22.073,-49.683 h 1.49 l 7.169,16.112 h 27.539 l 7.168,-16.112 h 7.311 l -22.073,49.683 z m 0.356,-2.557 13.13,-29.667 h -26.333 z m -36.493,2.557 -19.447,-41.876 -23.634,41.876 h -5.394 v -49.683 h 1.349 v 43.225 l 24.202,-42.942 h 1.49 l 21.649,46.632 v -46.915 h 6.741 v 49.683 z m -84.185,0 -22.074,-49.683 h 1.491 l 7.169,16.112 h 27.538 l 7.169,-16.112 h 7.311 l -22.073,49.683 z m 0.355,-2.557 13.131,-29.667 h -26.333 z m -30.812,2.557 v -39.179 l -33.144,39.179 h -7.383 v -49.683 h 1.349 v 46.418 l 39.178,-46.418 h 1.277 v 49.683 z m 158.713,-72.804 -6.824,-15.488 -6.849,15.488 h -2.595 v -4.515 -8.146 -6.019 h 0.624 v 5.941 10.949 l 7.419,-16.89 h 0.648 l 7.447,16.89 v -11.908 -4.982 h 2.697 v 4.982 9.183 4.515 z m -42.757,0 -7.732,-18.68 h 0.987 l 2.62,6.849 h 6.875 l 1.401,-3.424 c 0,0 0.415,-1.012 1.401,-3.425 v 0 h 2.931 l -7.938,18.68 z m -0.752,-3.373 3.268,-7.835 h -6.459 z m -36.141,3.373 v -4.696 -9.184 -4.8 h 12.998 v 0.623 h -10.3 v 18.057 z m -28.097,0 v -4.67 -6.849 -1.115 -1.323 -4.723 h 2.698 v 4.748 1.298 0.674 0.441 2.335 h 1.945 3.451 v 0.648 h -3.529 -1.867 v 3.295 0.545 4.073 h 2.464 5.734 v 0.623 z m -26.049,0 -7.731,-18.68 h 0.985 l 2.62,6.849 h 6.876 l 1.401,-3.424 c 0,0 0.415,-1.012 1.401,-3.425 v 0 h 2.931 l -7.939,18.68 z m -0.753,-3.373 3.269,-7.835 h -6.46 z"
         transform="matrix(1,0,0,-1,3.0000001e-5,2.5000001e-6)"
         id="path1324" />
    </clipPath>
    <clipPath
       clipPathUnits="userSpaceOnUse"
       id="clipPath1328">
      <path
         d="m 618.772,347.612 v -1.349 h 17.318 v -48.334 h 6.744 v 48.334 h 17.318 v 1.349 z m -26.834,0 -22.073,-49.683 h 1.49 l 7.169,16.112 h 27.539 l 7.168,-16.112 h 7.311 l -22.073,49.683 z m 0.356,-2.557 13.13,-29.667 h -26.333 z m -36.493,2.557 -19.447,-41.876 -23.634,41.876 h -5.394 v -49.683 h 1.349 v 43.225 l 24.202,-42.942 h 1.49 l 21.649,46.632 v -46.915 h 6.741 v 49.683 z m -84.185,0 -22.074,-49.683 h 1.491 l 7.169,16.112 h 27.538 l 7.169,-16.112 h 7.311 l -22.073,49.683 z m 0.355,-2.557 13.131,-29.667 h -26.333 z m -30.812,2.557 v -39.179 l -33.144,39.179 h -7.383 v -49.683 h 1.349 v 46.418 l 39.178,-46.418 h 1.277 v 49.683 z m 158.713,-72.804 -6.824,-15.488 -6.849,15.488 h -2.595 v -4.515 -8.146 -6.019 h 0.624 v 5.941 10.949 l 7.419,-16.89 h 0.648 l 7.447,16.89 v -11.908 -4.982 h 2.697 v 4.982 9.183 4.515 z m -42.757,0 -7.732,-18.68 h 0.987 l 2.62,6.849 h 6.875 l 1.401,-3.424 c 0,0 0.415,-1.012 1.401,-3.425 v 0 h 2.931 l -7.938,18.68 z m -0.752,-3.373 3.268,-7.835 h -6.459 z m -36.141,3.373 v -4.696 -9.184 -4.8 h 12.998 v 0.623 h -10.3 v 18.057 z m -28.097,0 v -4.67 -6.849 -1.115 -1.323 -4.723 h 2.698 v 4.748 1.298 0.674 0.441 2.335 h 1.945 3.451 v 0.648 h -3.529 -1.867 v 3.295 0.545 4.073 h 2.464 5.734 v 0.623 z m -26.049,0 -7.731,-18.68 h 0.985 l 2.62,6.849 h 6.876 l 1.401,-3.424 c 0,0 0.415,-1.012 1.401,-3.425 v 0 h 2.931 l -7.939,18.68 z m -0.753,-3.373 3.269,-7.835 h -6.46 z"
         transform="matrix(1,0,0,-1,3.0000001e-5,2.5000001e-6)"
         id="path1328" />
    </clipPath>
    <clipPath
       clipPathUnits="userSpaceOnUse"
       id="clipPath1332">
      <path
         d="m 618.772,347.612 v -1.349 h 17.318 v -48.334 h 6.744 v 48.334 h 17.318 v 1.349 z m -26.834,0 -22.073,-49.683 h 1.49 l 7.169,16.112 h 27.539 l 7.168,-16.112 h 7.311 l -22.073,49.683 z m 0.356,-2.557 13.13,-29.667 h -26.333 z m -36.493,2.557 -19.447,-41.876 -23.634,41.876 h -5.394 v -49.683 h 1.349 v 43.225 l 24.202,-42.942 h 1.49 l 21.649,46.632 v -46.915 h 6.741 v 49.683 z m -84.185,0 -22.074,-49.683 h 1.491 l 7.169,16.112 h 27.538 l 7.169,-16.112 h 7.311 l -22.073,49.683 z m 0.355,-2.557 13.131,-29.667 h -26.333 z m -30.812,2.557 v -39.179 l -33.144,39.179 h -7.383 v -49.683 h 1.349 v 46.418 l 39.178,-46.418 h 1.277 v 49.683 z m 158.713,-72.804 -6.824,-15.488 -6.849,15.488 h -2.595 v -4.515 -8.146 -6.019 h 0.624 v 5.941 10.949 l 7.419,-16.89 h 0.648 l 7.447,16.89 v -11.908 -4.982 h 2.697 v 4.982 9.183 4.515 z m -42.757,0 -7.732,-18.68 h 0.987 l 2.62,6.849 h 6.875 l 1.401,-3.424 c 0,0 0.415,-1.012 1.401,-3.425 v 0 h 2.931 l -7.938,18.68 z m -0.752,-3.373 3.268,-7.835 h -6.459 z m -36.141,3.373 v -4.696 -9.184 -4.8 h 12.998 v 0.623 h -10.3 v 18.057 z m -28.097,0 v -4.67 -6.849 -1.115 -1.323 -4.723 h 2.698 v 4.748 1.298 0.674 0.441 2.335 h 1.945 3.451 v 0.648 h -3.529 -1.867 v 3.295 0.545 4.073 h 2.464 5.734 v 0.623 z m -26.049,0 -7.731,-18.68 h 0.985 l 2.62,6.849 h 6.876 l 1.401,-3.424 c 0,0 0.415,-1.012 1.401,-3.425 v 0 h 2.931 l -7.939,18.68 z m -0.753,-3.373 3.269,-7.835 h -6.46 z"
         transform="matrix(1,0,0,-1,3.0000001e-5,2.5000001e-6)"
         id="path1332" />
    </clipPath>
    <clipPath
       clipPathUnits="userSpaceOnUse"
       id="clipPath1334">
      <path
         d="m 618.772,347.612 v -1.349 h 17.318 v -48.334 h 6.744 v 48.334 h 17.318 v 1.349 z m -26.834,0 -22.073,-49.683 h 1.49 l 7.169,16.112 h 27.539 l 7.168,-16.112 h 7.311 l -22.073,49.683 z m 0.356,-2.557 13.13,-29.667 h -26.333 z m -36.493,2.557 -19.447,-41.876 -23.634,41.876 h -5.394 v -49.683 h 1.349 v 43.225 l 24.202,-42.942 h 1.49 l 21.649,46.632 v -46.915 h 6.741 v 49.683 z m -84.185,0 -22.074,-49.683 h 1.491 l 7.169,16.112 h 27.538 l 7.169,-16.112 h 7.311 l -22.073,49.683 z m 0.355,-2.557 13.131,-29.667 h -26.333 z m -30.812,2.557 v -39.179 l -33.144,39.179 h -7.383 v -49.683 h 1.349 v 46.418 l 39.178,-46.418 h 1.277 v 49.683 z m 158.713,-72.804 -6.824,-15.488 -6.849,15.488 h -2.595 v -4.515 -8.146 -6.019 h 0.624 v 5.941 10.949 l 7.419,-16.89 h 0.648 l 7.447,16.89 v -11.908 -4.982 h 2.697 v 4.982 9.183 4.515 z m -42.757,0 -7.732,-18.68 h 0.987 l 2.62,6.849 h 6.875 l 1.401,-3.424 c 0,0 0.415,-1.012 1.401,-3.425 v 0 h 2.931 l -7.938,18.68 z m -0.752,-3.373 3.268,-7.835 h -6.459 z m -36.141,3.373 v -4.696 -9.184 -4.8 h 12.998 v 0.623 h -10.3 v 18.057 z m -28.097,0 v -4.67 -6.849 -1.115 -1.323 -4.723 h 2.698 v 4.748 1.298 0.674 0.441 2.335 h 1.945 3.451 v 0.648 h -3.529 -1.867 v 3.295 0.545 4.073 h 2.464 5.734 v 0.623 z m -26.049,0 -7.731,-18.68 h 0.985 l 2.62,6.849 h 6.876 l 1.401,-3.424 c 0,0 0.415,-1.012 1.401,-3.425 v 0 h 2.931 l -7.939,18.68 z m -0.753,-3.373 3.269,-7.835 h -6.46 z"
         transform="matrix(1,0,0,-1,3.0000001e-5,2.5000001e-6)"
         id="path1334" />
    </clipPath>
    <clipPath
       clipPathUnits="userSpaceOnUse"
       id="clipPath1336">
      <path
         d="m 618.772,347.612 v -1.349 h 17.318 v -48.334 h 6.744 v 48.334 h 17.318 v 1.349 z m -26.834,0 -22.073,-49.683 h 1.49 l 7.169,16.112 h 27.539 l 7.168,-16.112 h 7.311 l -22.073,49.683 z m 0.356,-2.557 13.13,-29.667 h -26.333 z m -36.493,2.557 -19.447,-41.876 -23.634,41.876 h -5.394 v -49.683 h 1.349 v 43.225 l 24.202,-42.942 h 1.49 l 21.649,46.632 v -46.915 h 6.741 v 49.683 z m -84.185,0 -22.074,-49.683 h 1.491 l 7.169,16.112 h 27.538 l 7.169,-16.112 h 7.311 l -22.073,49.683 z m 0.355,-2.557 13.131,-29.667 h -26.333 z m -30.812,2.557 v -39.179 l -33.144,39.179 h -7.383 v -49.683 h 1.349 v 46.418 l 39.178,-46.418 h 1.277 v 49.683 z m 158.713,-72.804 -6.824,-15.488 -6.849,15.488 h -2.595 v -4.515 -8.146 -6.019 h 0.624 v 5.941 10.949 l 7.419,-16.89 h 0.648 l 7.447,16.89 v -11.908 -4.982 h 2.697 v 4.982 9.183 4.515 z m -42.757,0 -7.732,-18.68 h 0.987 l 2.62,6.849 h 6.875 l 1.401,-3.424 c 0,0 0.415,-1.012 1.401,-3.425 v 0 h 2.931 l -7.938,18.68 z m -0.752,-3.373 3.268,-7.835 h -6.459 z m -36.141,3.373 v -4.696 -9.184 -4.8 h 12.998 v 0.623 h -10.3 v 18.057 z m -28.097,0 v -4.67 -6.849 -1.115 -1.323 -4.723 h 2.698 v 4.748 1.298 0.674 0.441 2.335 h 1.945 3.451 v 0.648 h -3.529 -1.867 v 3.295 0.545 4.073 h 2.464 5.734 v 0.623 z m -26.049,0 -7.731,-18.68 h 0.985 l 2.62,6.849 h 6.876 l 1.401,-3.424 c 0,0 0.415,-1.012 1.401,-3.425 v 0 h 2.931 l -7.939,18.68 z m -0.753,-3.373 3.269,-7.835 h -6.46 z"
         transform="matrix(1,0,0,-1,3.0000001e-5,2.5000001e-6)"
         id="path1336" />
    </clipPath>
    <clipPath
       clipPathUnits="userSpaceOnUse"
       id="clipPath1338">
      <path
         d="m 618.772,347.612 v -1.349 h 17.318 v -48.334 h 6.744 v 48.334 h 17.318 v 1.349 z m -26.834,0 -22.073,-49.683 h 1.49 l 7.169,16.112 h 27.539 l 7.168,-16.112 h 7.311 l -22.073,49.683 z m 0.356,-2.557 13.13,-29.667 h -26.333 z m -36.493,2.557 -19.447,-41.876 -23.634,41.876 h -5.394 v -49.683 h 1.349 v 43.225 l 24.202,-42.942 h 1.49 l 21.649,46.632 v -46.915 h 6.741 v 49.683 z m -84.185,0 -22.074,-49.683 h 1.491 l 7.169,16.112 h 27.538 l 7.169,-16.112 h 7.311 l -22.073,49.683 z m 0.355,-2.557 13.131,-29.667 h -26.333 z m -30.812,2.557 v -39.179 l -33.144,39.179 h -7.383 v -49.683 h 1.349 v 46.418 l 39.178,-46.418 h 1.277 v 49.683 z m 158.713,-72.804 -6.824,-15.488 -6.849,15.488 h -2.595 v -4.515 -8.146 -6.019 h 0.624 v 5.941 10.949 l 7.419,-16.89 h 0.648 l 7.447,16.89 v -11.908 -4.982 h 2.697 v 4.982 9.183 4.515 z m -42.757,0 -7.732,-18.68 h 0.987 l 2.62,6.849 h 6.875 l 1.401,-3.424 c 0,0 0.415,-1.012 1.401,-3.425 v 0 h 2.931 l -7.938,18.68 z m -0.752,-3.373 3.268,-7.835 h -6.459 z m -36.141,3.373 v -4.696 -9.184 -4.8 h 12.998 v 0.623 h -10.3 v 18.057 z m -28.097,0 v -4.67 -6.849 -1.115 -1.323 -4.723 h 2.698 v 4.748 1.298 0.674 0.441 2.335 h 1.945 3.451 v 0.648 h -3.529 -1.867 v 3.295 0.545 4.073 h 2.464 5.734 v 0.623 z m -26.049,0 -7.731,-18.68 h 0.985 l 2.62,6.849 h 6.876 l 1.401,-3.424 c 0,0 0.415,-1.012 1.401,-3.425 v 0 h 2.931 l -7.939,18.68 z m -0.753,-3.373 3.269,-7.835 h -6.46 z"
         transform="matrix(1,0,0,-1,3.0000001e-5,2.5000001e-6)"
         id="path1338" />
    </clipPath>
    <clipPath
       clipPathUnits="userSpaceOnUse"
       id="clipPath1342">
      <path
         d="m 618.772,347.612 v -1.349 h 17.318 v -48.334 h 6.744 v 48.334 h 17.318 v 1.349 z m -26.834,0 -22.073,-49.683 h 1.49 l 7.169,16.112 h 27.539 l 7.168,-16.112 h 7.311 l -22.073,49.683 z m 0.356,-2.557 13.13,-29.667 h -26.333 z m -36.493,2.557 -19.447,-41.876 -23.634,41.876 h -5.394 v -49.683 h 1.349 v 43.225 l 24.202,-42.942 h 1.49 l 21.649,46.632 v -46.915 h 6.741 v 49.683 z m -84.185,0 -22.074,-49.683 h 1.491 l 7.169,16.112 h 27.538 l 7.169,-16.112 h 7.311 l -22.073,49.683 z m 0.355,-2.557 13.131,-29.667 h -26.333 z m -30.812,2.557 v -39.179 l -33.144,39.179 h -7.383 v -49.683 h 1.349 v 46.418 l 39.178,-46.418 h 1.277 v 49.683 z m 158.713,-72.804 -6.824,-15.488 -6.849,15.488 h -2.595 v -4.515 -8.146 -6.019 h 0.624 v 5.941 10.949 l 7.419,-16.89 h 0.648 l 7.447,16.89 v -11.908 -4.982 h 2.697 v 4.982 9.183 4.515 z m -42.757,0 -7.732,-18.68 h 0.987 l 2.62,6.849 h 6.875 l 1.401,-3.424 c 0,0 0.415,-1.012 1.401,-3.425 v 0 h 2.931 l -7.938,18.68 z m -0.752,-3.373 3.268,-7.835 h -6.459 z m -36.141,3.373 v -4.696 -9.184 -4.8 h 12.998 v 0.623 h -10.3 v 18.057 z m -28.097,0 v -4.67 -6.849 -1.115 -1.323 -4.723 h 2.698 v 4.748 1.298 0.674 0.441 2.335 h 1.945 3.451 v 0.648 h -3.529 -1.867 v 3.295 0.545 4.073 h 2.464 5.734 v 0.623 z m -26.049,0 -7.731,-18.68 h 0.985 l 2.62,6.849 h 6.876 l 1.401,-3.424 c 0,0 0.415,-1.012 1.401,-3.425 v 0 h 2.931 l -7.939,18.68 z m -0.753,-3.373 3.269,-7.835 h -6.46 z"
         transform="matrix(1,0,0,-1,3.0000001e-5,2.5000001e-6)"
         id="path1342" />
    </clipPath>
    <clipPath
       clipPathUnits="userSpaceOnUse"
       id="clipPath1346">
      <path
         d="m 618.772,347.612 v -1.349 h 17.318 v -48.334 h 6.744 v 48.334 h 17.318 v 1.349 z m -26.834,0 -22.073,-49.683 h 1.49 l 7.169,16.112 h 27.539 l 7.168,-16.112 h 7.311 l -22.073,49.683 z m 0.356,-2.557 13.13,-29.667 h -26.333 z m -36.493,2.557 -19.447,-41.876 -23.634,41.876 h -5.394 v -49.683 h 1.349 v 43.225 l 24.202,-42.942 h 1.49 l 21.649,46.632 v -46.915 h 6.741 v 49.683 z m -84.185,0 -22.074,-49.683 h 1.491 l 7.169,16.112 h 27.538 l 7.169,-16.112 h 7.311 l -22.073,49.683 z m 0.355,-2.557 13.131,-29.667 h -26.333 z m -30.812,2.557 v -39.179 l -33.144,39.179 h -7.383 v -49.683 h 1.349 v 46.418 l 39.178,-46.418 h 1.277 v 49.683 z m 158.713,-72.804 -6.824,-15.488 -6.849,15.488 h -2.595 v -4.515 -8.146 -6.019 h 0.624 v 5.941 10.949 l 7.419,-16.89 h 0.648 l 7.447,16.89 v -11.908 -4.982 h 2.697 v 4.982 9.183 4.515 z m -42.757,0 -7.732,-18.68 h 0.987 l 2.62,6.849 h 6.875 l 1.401,-3.424 c 0,0 0.415,-1.012 1.401,-3.425 v 0 h 2.931 l -7.938,18.68 z m -0.752,-3.373 3.268,-7.835 h -6.459 z m -36.141,3.373 v -4.696 -9.184 -4.8 h 12.998 v 0.623 h -10.3 v 18.057 z m -28.097,0 v -4.67 -6.849 -1.115 -1.323 -4.723 h 2.698 v 4.748 1.298 0.674 0.441 2.335 h 1.945 3.451 v 0.648 h -3.529 -1.867 v 3.295 0.545 4.073 h 2.464 5.734 v 0.623 z m -26.049,0 -7.731,-18.68 h 0.985 l 2.62,6.849 h 6.876 l 1.401,-3.424 c 0,0 0.415,-1.012 1.401,-3.425 v 0 h 2.931 l -7.939,18.68 z m -0.753,-3.373 3.269,-7.835 h -6.46 z"
         transform="matrix(1,0,0,-1,3.0000001e-5,2.5000001e-6)"
         id="path1346" />
    </clipPath>
    <clipPath
       clipPathUnits="userSpaceOnUse"
       id="clipPath1396">
      <path
         d="m 618.772,347.612 v -1.349 h 17.318 v -48.334 h 6.744 v 48.334 h 17.318 v 1.349 z m -26.834,0 -22.073,-49.683 h 1.49 l 7.169,16.112 h 27.539 l 7.168,-16.112 h 7.311 l -22.073,49.683 z m 0.356,-2.557 13.13,-29.667 h -26.333 z m -36.493,2.557 -19.447,-41.876 -23.634,41.876 h -5.394 v -49.683 h 1.349 v 43.225 l 24.202,-42.942 h 1.49 l 21.649,46.632 v -46.915 h 6.741 v 49.683 z m -84.185,0 -22.074,-49.683 h 1.491 l 7.169,16.112 h 27.538 l 7.169,-16.112 h 7.311 l -22.073,49.683 z m 0.355,-2.557 13.131,-29.667 h -26.333 z m -30.812,2.557 v -39.179 l -33.144,39.179 h -7.383 v -49.683 h 1.349 v 46.418 l 39.178,-46.418 h 1.277 v 49.683 z m 158.713,-72.804 -6.824,-15.488 -6.849,15.488 h -2.595 v -4.515 -8.146 -6.019 h 0.624 v 5.941 10.949 l 7.419,-16.89 h 0.648 l 7.447,16.89 v -11.908 -4.982 h 2.697 v 4.982 9.183 4.515 z m -42.757,0 -7.732,-18.68 h 0.987 l 2.62,6.849 h 6.875 l 1.401,-3.424 c 0,0 0.415,-1.012 1.401,-3.425 v 0 h 2.931 l -7.938,18.68 z m -0.752,-3.373 3.268,-7.835 h -6.459 z m -36.141,3.373 v -4.696 -9.184 -4.8 h 12.998 v 0.623 h -10.3 v 18.057 z m -28.097,0 v -4.67 -6.849 -1.115 -1.323 -4.723 h 2.698 v 4.748 1.298 0.674 0.441 2.335 h 1.945 3.451 v 0.648 h -3.529 -1.867 v 3.295 0.545 4.073 h 2.464 5.734 v 0.623 z m -26.049,0 -7.731,-18.68 h 0.985 l 2.62,6.849 h 6.876 l 1.401,-3.424 c 0,0 0.415,-1.012 1.401,-3.425 v 0 h 2.931 l -7.939,18.68 z m -0.753,-3.373 3.269,-7.835 h -6.46 z"
         transform="matrix(1,0,0,-1,3.0000001e-5,2.5000001e-6)"
         id="path1396" />
    </clipPath>
    <clipPath
       clipPathUnits="userSpaceOnUse"
       id="clipPath1398">
      <path
         d="m 618.772,347.612 v -1.349 h 17.318 v -48.334 h 6.744 v 48.334 h 17.318 v 1.349 z m -26.834,0 -22.073,-49.683 h 1.49 l 7.169,16.112 h 27.539 l 7.168,-16.112 h 7.311 l -22.073,49.683 z m 0.356,-2.557 13.13,-29.667 h -26.333 z m -36.493,2.557 -19.447,-41.876 -23.634,41.876 h -5.394 v -49.683 h 1.349 v 43.225 l 24.202,-42.942 h 1.49 l 21.649,46.632 v -46.915 h 6.741 v 49.683 z m -84.185,0 -22.074,-49.683 h 1.491 l 7.169,16.112 h 27.538 l 7.169,-16.112 h 7.311 l -22.073,49.683 z m 0.355,-2.557 13.131,-29.667 h -26.333 z m -30.812,2.557 v -39.179 l -33.144,39.179 h -7.383 v -49.683 h 1.349 v 46.418 l 39.178,-46.418 h 1.277 v 49.683 z m 158.713,-72.804 -6.824,-15.488 -6.849,15.488 h -2.595 v -4.515 -8.146 -6.019 h 0.624 v 5.941 10.949 l 7.419,-16.89 h 0.648 l 7.447,16.89 v -11.908 -4.982 h 2.697 v 4.982 9.183 4.515 z m -42.757,0 -7.732,-18.68 h 0.987 l 2.62,6.849 h 6.875 l 1.401,-3.424 c 0,0 0.415,-1.012 1.401,-3.425 v 0 h 2.931 l -7.938,18.68 z m -0.752,-3.373 3.268,-7.835 h -6.459 z m -36.141,3.373 v -4.696 -9.184 -4.8 h 12.998 v 0.623 h -10.3 v 18.057 z m -28.097,0 v -4.67 -6.849 -1.115 -1.323 -4.723 h 2.698 v 4.748 1.298 0.674 0.441 2.335 h 1.945 3.451 v 0.648 h -3.529 -1.867 v 3.295 0.545 4.073 h 2.464 5.734 v 0.623 z m -26.049,0 -7.731,-18.68 h 0.985 l 2.62,6.849 h 6.876 l 1.401,-3.424 c 0,0 0.415,-1.012 1.401,-3.425 v 0 h 2.931 l -7.939,18.68 z m -0.753,-3.373 3.269,-7.835 h -6.46 z"
         transform="matrix(1,0,0,-1,3.0000001e-5,2.5000001e-6)"
         id="path1398" />
    </clipPath>
    <clipPath
       clipPathUnits="userSpaceOnUse"
       id="clipPath1400">
      <path
         d="m 618.772,347.612 v -1.349 h 17.318 v -48.334 h 6.744 v 48.334 h 17.318 v 1.349 z m -26.834,0 -22.073,-49.683 h 1.49 l 7.169,16.112 h 27.539 l 7.168,-16.112 h 7.311 l -22.073,49.683 z m 0.356,-2.557 13.13,-29.667 h -26.333 z m -36.493,2.557 -19.447,-41.876 -23.634,41.876 h -5.394 v -49.683 h 1.349 v 43.225 l 24.202,-42.942 h 1.49 l 21.649,46.632 v -46.915 h 6.741 v 49.683 z m -84.185,0 -22.074,-49.683 h 1.491 l 7.169,16.112 h 27.538 l 7.169,-16.112 h 7.311 l -22.073,49.683 z m 0.355,-2.557 13.131,-29.667 h -26.333 z m -30.812,2.557 v -39.179 l -33.144,39.179 h -7.383 v -49.683 h 1.349 v 46.418 l 39.178,-46.418 h 1.277 v 49.683 z m 158.713,-72.804 -6.824,-15.488 -6.849,15.488 h -2.595 v -4.515 -8.146 -6.019 h 0.624 v 5.941 10.949 l 7.419,-16.89 h 0.648 l 7.447,16.89 v -11.908 -4.982 h 2.697 v 4.982 9.183 4.515 z m -42.757,0 -7.732,-18.68 h 0.987 l 2.62,6.849 h 6.875 l 1.401,-3.424 c 0,0 0.415,-1.012 1.401,-3.425 v 0 h 2.931 l -7.938,18.68 z m -0.752,-3.373 3.268,-7.835 h -6.459 z m -36.141,3.373 v -4.696 -9.184 -4.8 h 12.998 v 0.623 h -10.3 v 18.057 z m -28.097,0 v -4.67 -6.849 -1.115 -1.323 -4.723 h 2.698 v 4.748 1.298 0.674 0.441 2.335 h 1.945 3.451 v 0.648 h -3.529 -1.867 v 3.295 0.545 4.073 h 2.464 5.734 v 0.623 z m -26.049,0 -7.731,-18.68 h 0.985 l 2.62,6.849 h 6.876 l 1.401,-3.424 c 0,0 0.415,-1.012 1.401,-3.425 v 0 h 2.931 l -7.939,18.68 z m -0.753,-3.373 3.269,-7.835 h -6.46 z"
         transform="matrix(1,0,0,-1,3.0000001e-5,2.5000001e-6)"
         id="path1400" />
    </clipPath>
    <clipPath
       clipPathUnits="userSpaceOnUse"
       id="clipPath1402">
      <path
         d="m 618.772,347.612 v -1.349 h 17.318 v -48.334 h 6.744 v 48.334 h 17.318 v 1.349 z m -26.834,0 -22.073,-49.683 h 1.49 l 7.169,16.112 h 27.539 l 7.168,-16.112 h 7.311 l -22.073,49.683 z m 0.356,-2.557 13.13,-29.667 h -26.333 z m -36.493,2.557 -19.447,-41.876 -23.634,41.876 h -5.394 v -49.683 h 1.349 v 43.225 l 24.202,-42.942 h 1.49 l 21.649,46.632 v -46.915 h 6.741 v 49.683 z m -84.185,0 -22.074,-49.683 h 1.491 l 7.169,16.112 h 27.538 l 7.169,-16.112 h 7.311 l -22.073,49.683 z m 0.355,-2.557 13.131,-29.667 h -26.333 z m -30.812,2.557 v -39.179 l -33.144,39.179 h -7.383 v -49.683 h 1.349 v 46.418 l 39.178,-46.418 h 1.277 v 49.683 z m 158.713,-72.804 -6.824,-15.488 -6.849,15.488 h -2.595 v -4.515 -8.146 -6.019 h 0.624 v 5.941 10.949 l 7.419,-16.89 h 0.648 l 7.447,16.89 v -11.908 -4.982 h 2.697 v 4.982 9.183 4.515 z m -42.757,0 -7.732,-18.68 h 0.987 l 2.62,6.849 h 6.875 l 1.401,-3.424 c 0,0 0.415,-1.012 1.401,-3.425 v 0 h 2.931 l -7.938,18.68 z m -0.752,-3.373 3.268,-7.835 h -6.459 z m -36.141,3.373 v -4.696 -9.184 -4.8 h 12.998 v 0.623 h -10.3 v 18.057 z m -28.097,0 v -4.67 -6.849 -1.115 -1.323 -4.723 h 2.698 v 4.748 1.298 0.674 0.441 2.335 h 1.945 3.451 v 0.648 h -3.529 -1.867 v 3.295 0.545 4.073 h 2.464 5.734 v 0.623 z m -26.049,0 -7.731,-18.68 h 0.985 l 2.62,6.849 h 6.876 l 1.401,-3.424 c 0,0 0.415,-1.012 1.401,-3.425 v 0 h 2.931 l -7.939,18.68 z m -0.753,-3.373 3.269,-7.835 h -6.46 z"
         transform="matrix(1,0,0,-1,3.0000001e-5,2.5000001e-6)"
         id="path1402" />
    </clipPath>
    <clipPath
       clipPathUnits="userSpaceOnUse"
       id="clipPath1412">
      <path
         d="m 618.772,347.612 v -1.349 h 17.318 v -48.334 h 6.744 v 48.334 h 17.318 v 1.349 z m -26.834,0 -22.073,-49.683 h 1.49 l 7.169,16.112 h 27.539 l 7.168,-16.112 h 7.311 l -22.073,49.683 z m 0.356,-2.557 13.13,-29.667 h -26.333 z m -36.493,2.557 -19.447,-41.876 -23.634,41.876 h -5.394 v -49.683 h 1.349 v 43.225 l 24.202,-42.942 h 1.49 l 21.649,46.632 v -46.915 h 6.741 v 49.683 z m -84.185,0 -22.074,-49.683 h 1.491 l 7.169,16.112 h 27.538 l 7.169,-16.112 h 7.311 l -22.073,49.683 z m 0.355,-2.557 13.131,-29.667 h -26.333 z m -30.812,2.557 v -39.179 l -33.144,39.179 h -7.383 v -49.683 h 1.349 v 46.418 l 39.178,-46.418 h 1.277 v 49.683 z m 158.713,-72.804 -6.824,-15.488 -6.849,15.488 h -2.595 v -4.515 -8.146 -6.019 h 0.624 v 5.941 10.949 l 7.419,-16.89 h 0.648 l 7.447,16.89 v -11.908 -4.982 h 2.697 v 4.982 9.183 4.515 z m -42.757,0 -7.732,-18.68 h 0.987 l 2.62,6.849 h 6.875 l 1.401,-3.424 c 0,0 0.415,-1.012 1.401,-3.425 v 0 h 2.931 l -7.938,18.68 z m -0.752,-3.373 3.268,-7.835 h -6.459 z m -36.141,3.373 v -4.696 -9.184 -4.8 h 12.998 v 0.623 h -10.3 v 18.057 z m -28.097,0 v -4.67 -6.849 -1.115 -1.323 -4.723 h 2.698 v 4.748 1.298 0.674 0.441 2.335 h 1.945 3.451 v 0.648 h -3.529 -1.867 v 3.295 0.545 4.073 h 2.464 5.734 v 0.623 z m -26.049,0 -7.731,-18.68 h 0.985 l 2.62,6.849 h 6.876 l 1.401,-3.424 c 0,0 0.415,-1.012 1.401,-3.425 v 0 h 2.931 l -7.939,18.68 z m -0.753,-3.373 3.269,-7.835 h -6.46 z"
         transform="matrix(1,0,0,-1,3.0000001e-5,2.5000001e-6)"
         id="path1412" />
    </clipPath>
    <clipPath
       clipPathUnits="userSpaceOnUse"
       id="clipPath1414">
      <path
         d="m 618.772,347.612 v -1.349 h 17.318 v -48.334 h 6.744 v 48.334 h 17.318 v 1.349 z m -26.834,0 -22.073,-49.683 h 1.49 l 7.169,16.112 h 27.539 l 7.168,-16.112 h 7.311 l -22.073,49.683 z m 0.356,-2.557 13.13,-29.667 h -26.333 z m -36.493,2.557 -19.447,-41.876 -23.634,41.876 h -5.394 v -49.683 h 1.349 v 43.225 l 24.202,-42.942 h 1.49 l 21.649,46.632 v -46.915 h 6.741 v 49.683 z m -84.185,0 -22.074,-49.683 h 1.491 l 7.169,16.112 h 27.538 l 7.169,-16.112 h 7.311 l -22.073,49.683 z m 0.355,-2.557 13.131,-29.667 h -26.333 z m -30.812,2.557 v -39.179 l -33.144,39.179 h -7.383 v -49.683 h 1.349 v 46.418 l 39.178,-46.418 h 1.277 v 49.683 z m 158.713,-72.804 -6.824,-15.488 -6.849,15.488 h -2.595 v -4.515 -8.146 -6.019 h 0.624 v 5.941 10.949 l 7.419,-16.89 h 0.648 l 7.447,16.89 v -11.908 -4.982 h 2.697 v 4.982 9.183 4.515 z m -42.757,0 -7.732,-18.68 h 0.987 l 2.62,6.849 h 6.875 l 1.401,-3.424 c 0,0 0.415,-1.012 1.401,-3.425 v 0 h 2.931 l -7.938,18.68 z m -0.752,-3.373 3.268,-7.835 h -6.459 z m -36.141,3.373 v -4.696 -9.184 -4.8 h 12.998 v 0.623 h -10.3 v 18.057 z m -28.097,0 v -4.67 -6.849 -1.115 -1.323 -4.723 h 2.698 v 4.748 1.298 0.674 0.441 2.335 h 1.945 3.451 v 0.648 h -3.529 -1.867 v 3.295 0.545 4.073 h 2.464 5.734 v 0.623 z m -26.049,0 -7.731,-18.68 h 0.985 l 2.62,6.849 h 6.876 l 1.401,-3.424 c 0,0 0.415,-1.012 1.401,-3.425 v 0 h 2.931 l -7.939,18.68 z m -0.753,-3.373 3.269,-7.835 h -6.46 z"
         transform="matrix(1,0,0,-1,3.0000001e-5,2.5000001e-6)"
         id="path1414" />
    </clipPath>
    <clipPath
       clipPathUnits="userSpaceOnUse"
       id="clipPath1416">
      <path
         d="m 618.772,347.612 v -1.349 h 17.318 v -48.334 h 6.744 v 48.334 h 17.318 v 1.349 z m -26.834,0 -22.073,-49.683 h 1.49 l 7.169,16.112 h 27.539 l 7.168,-16.112 h 7.311 l -22.073,49.683 z m 0.356,-2.557 13.13,-29.667 h -26.333 z m -36.493,2.557 -19.447,-41.876 -23.634,41.876 h -5.394 v -49.683 h 1.349 v 43.225 l 24.202,-42.942 h 1.49 l 21.649,46.632 v -46.915 h 6.741 v 49.683 z m -84.185,0 -22.074,-49.683 h 1.491 l 7.169,16.112 h 27.538 l 7.169,-16.112 h 7.311 l -22.073,49.683 z m 0.355,-2.557 13.131,-29.667 h -26.333 z m -30.812,2.557 v -39.179 l -33.144,39.179 h -7.383 v -49.683 h 1.349 v 46.418 l 39.178,-46.418 h 1.277 v 49.683 z m 158.713,-72.804 -6.824,-15.488 -6.849,15.488 h -2.595 v -4.515 -8.146 -6.019 h 0.624 v 5.941 10.949 l 7.419,-16.89 h 0.648 l 7.447,16.89 v -11.908 -4.982 h 2.697 v 4.982 9.183 4.515 z m -42.757,0 -7.732,-18.68 h 0.987 l 2.62,6.849 h 6.875 l 1.401,-3.424 c 0,0 0.415,-1.012 1.401,-3.425 v 0 h 2.931 l -7.938,18.68 z m -0.752,-3.373 3.268,-7.835 h -6.459 z m -36.141,3.373 v -4.696 -9.184 -4.8 h 12.998 v 0.623 h -10.3 v 18.057 z m -28.097,0 v -4.67 -6.849 -1.115 -1.323 -4.723 h 2.698 v 4.748 1.298 0.674 0.441 2.335 h 1.945 3.451 v 0.648 h -3.529 -1.867 v 3.295 0.545 4.073 h 2.464 5.734 v 0.623 z m -26.049,0 -7.731,-18.68 h 0.985 l 2.62,6.849 h 6.876 l 1.401,-3.424 c 0,0 0.415,-1.012 1.401,-3.425 v 0 h 2.931 l -7.939,18.68 z m -0.753,-3.373 3.269,-7.835 h -6.46 z"
         transform="matrix(1,0,0,-1,3.0000001e-5,2.5000001e-6)"
         id="path1416" />
    </clipPath>
    <clipPath
       clipPathUnits="userSpaceOnUse"
       id="clipPath1418">
      <path
         d="m 618.772,347.612 v -1.349 h 17.318 v -48.334 h 6.744 v 48.334 h 17.318 v 1.349 z m -26.834,0 -22.073,-49.683 h 1.49 l 7.169,16.112 h 27.539 l 7.168,-16.112 h 7.311 l -22.073,49.683 z m 0.356,-2.557 13.13,-29.667 h -26.333 z m -36.493,2.557 -19.447,-41.876 -23.634,41.876 h -5.394 v -49.683 h 1.349 v 43.225 l 24.202,-42.942 h 1.49 l 21.649,46.632 v -46.915 h 6.741 v 49.683 z m -84.185,0 -22.074,-49.683 h 1.491 l 7.169,16.112 h 27.538 l 7.169,-16.112 h 7.311 l -22.073,49.683 z m 0.355,-2.557 13.131,-29.667 h -26.333 z m -30.812,2.557 v -39.179 l -33.144,39.179 h -7.383 v -49.683 h 1.349 v 46.418 l 39.178,-46.418 h 1.277 v 49.683 z m 158.713,-72.804 -6.824,-15.488 -6.849,15.488 h -2.595 v -4.515 -8.146 -6.019 h 0.624 v 5.941 10.949 l 7.419,-16.89 h 0.648 l 7.447,16.89 v -11.908 -4.982 h 2.697 v 4.982 9.183 4.515 z m -42.757,0 -7.732,-18.68 h 0.987 l 2.62,6.849 h 6.875 l 1.401,-3.424 c 0,0 0.415,-1.012 1.401,-3.425 v 0 h 2.931 l -7.938,18.68 z m -0.752,-3.373 3.268,-7.835 h -6.459 z m -36.141,3.373 v -4.696 -9.184 -4.8 h 12.998 v 0.623 h -10.3 v 18.057 z m -28.097,0 v -4.67 -6.849 -1.115 -1.323 -4.723 h 2.698 v 4.748 1.298 0.674 0.441 2.335 h 1.945 3.451 v 0.648 h -3.529 -1.867 v 3.295 0.545 4.073 h 2.464 5.734 v 0.623 z m -26.049,0 -7.731,-18.68 h 0.985 l 2.62,6.849 h 6.876 l 1.401,-3.424 c 0,0 0.415,-1.012 1.401,-3.425 v 0 h 2.931 l -7.939,18.68 z m -0.753,-3.373 3.269,-7.835 h -6.46 z"
         transform="matrix(1,0,0,-1,3.0000001e-5,2.5000001e-6)"
         id="path1418" />
    </clipPath>
    <clipPath
       clipPathUnits="userSpaceOnUse"
       id="clipPath1428">
      <path
         d="m 618.772,347.612 v -1.349 h 17.318 v -48.334 h 6.744 v 48.334 h 17.318 v 1.349 z m -26.834,0 -22.073,-49.683 h 1.49 l 7.169,16.112 h 27.539 l 7.168,-16.112 h 7.311 l -22.073,49.683 z m 0.356,-2.557 13.13,-29.667 h -26.333 z m -36.493,2.557 -19.447,-41.876 -23.634,41.876 h -5.394 v -49.683 h 1.349 v 43.225 l 24.202,-42.942 h 1.49 l 21.649,46.632 v -46.915 h 6.741 v 49.683 z m -84.185,0 -22.074,-49.683 h 1.491 l 7.169,16.112 h 27.538 l 7.169,-16.112 h 7.311 l -22.073,49.683 z m 0.355,-2.557 13.131,-29.667 h -26.333 z m -30.812,2.557 v -39.179 l -33.144,39.179 h -7.383 v -49.683 h 1.349 v 46.418 l 39.178,-46.418 h 1.277 v 49.683 z m 158.713,-72.804 -6.824,-15.488 -6.849,15.488 h -2.595 v -4.515 -8.146 -6.019 h 0.624 v 5.941 10.949 l 7.419,-16.89 h 0.648 l 7.447,16.89 v -11.908 -4.982 h 2.697 v 4.982 9.183 4.515 z m -42.757,0 -7.732,-18.68 h 0.987 l 2.62,6.849 h 6.875 l 1.401,-3.424 c 0,0 0.415,-1.012 1.401,-3.425 v 0 h 2.931 l -7.938,18.68 z m -0.752,-3.373 3.268,-7.835 h -6.459 z m -36.141,3.373 v -4.696 -9.184 -4.8 h 12.998 v 0.623 h -10.3 v 18.057 z m -28.097,0 v -4.67 -6.849 -1.115 -1.323 -4.723 h 2.698 v 4.748 1.298 0.674 0.441 2.335 h 1.945 3.451 v 0.648 h -3.529 -1.867 v 3.295 0.545 4.073 h 2.464 5.734 v 0.623 z m -26.049,0 -7.731,-18.68 h 0.985 l 2.62,6.849 h 6.876 l 1.401,-3.424 c 0,0 0.415,-1.012 1.401,-3.425 v 0 h 2.931 l -7.939,18.68 z m -0.753,-3.373 3.269,-7.835 h -6.46 z"
         transform="matrix(1,0,0,-1,3.0000001e-5,2.5000001e-6)"
         id="path1428" />
    </clipPath>
    <clipPath
       clipPathUnits="userSpaceOnUse"
       id="clipPath1430">
      <path
         d="m 618.772,347.612 v -1.349 h 17.318 v -48.334 h 6.744 v 48.334 h 17.318 v 1.349 z m -26.834,0 -22.073,-49.683 h 1.49 l 7.169,16.112 h 27.539 l 7.168,-16.112 h 7.311 l -22.073,49.683 z m 0.356,-2.557 13.13,-29.667 h -26.333 z m -36.493,2.557 -19.447,-41.876 -23.634,41.876 h -5.394 v -49.683 h 1.349 v 43.225 l 24.202,-42.942 h 1.49 l 21.649,46.632 v -46.915 h 6.741 v 49.683 z m -84.185,0 -22.074,-49.683 h 1.491 l 7.169,16.112 h 27.538 l 7.169,-16.112 h 7.311 l -22.073,49.683 z m 0.355,-2.557 13.131,-29.667 h -26.333 z m -30.812,2.557 v -39.179 l -33.144,39.179 h -7.383 v -49.683 h 1.349 v 46.418 l 39.178,-46.418 h 1.277 v 49.683 z m 158.713,-72.804 -6.824,-15.488 -6.849,15.488 h -2.595 v -4.515 -8.146 -6.019 h 0.624 v 5.941 10.949 l 7.419,-16.89 h 0.648 l 7.447,16.89 v -11.908 -4.982 h 2.697 v 4.982 9.183 4.515 z m -42.757,0 -7.732,-18.68 h 0.987 l 2.62,6.849 h 6.875 l 1.401,-3.424 c 0,0 0.415,-1.012 1.401,-3.425 v 0 h 2.931 l -7.938,18.68 z m -0.752,-3.373 3.268,-7.835 h -6.459 z m -36.141,3.373 v -4.696 -9.184 -4.8 h 12.998 v 0.623 h -10.3 v 18.057 z m -28.097,0 v -4.67 -6.849 -1.115 -1.323 -4.723 h 2.698 v 4.748 1.298 0.674 0.441 2.335 h 1.945 3.451 v 0.648 h -3.529 -1.867 v 3.295 0.545 4.073 h 2.464 5.734 v 0.623 z m -26.049,0 -7.731,-18.68 h 0.985 l 2.62,6.849 h 6.876 l 1.401,-3.424 c 0,0 0.415,-1.012 1.401,-3.425 v 0 h 2.931 l -7.939,18.68 z m -0.753,-3.373 3.269,-7.835 h -6.46 z"
         transform="matrix(1,0,0,-1,3.0000001e-5,2.5000001e-6)"
         id="path1430" />
    </clipPath>
    <clipPath
       clipPathUnits="userSpaceOnUse"
       id="clipPath1432">
      <path
         d="m 618.772,347.612 v -1.349 h 17.318 v -48.334 h 6.744 v 48.334 h 17.318 v 1.349 z m -26.834,0 -22.073,-49.683 h 1.49 l 7.169,16.112 h 27.539 l 7.168,-16.112 h 7.311 l -22.073,49.683 z m 0.356,-2.557 13.13,-29.667 h -26.333 z m -36.493,2.557 -19.447,-41.876 -23.634,41.876 h -5.394 v -49.683 h 1.349 v 43.225 l 24.202,-42.942 h 1.49 l 21.649,46.632 v -46.915 h 6.741 v 49.683 z m -84.185,0 -22.074,-49.683 h 1.491 l 7.169,16.112 h 27.538 l 7.169,-16.112 h 7.311 l -22.073,49.683 z m 0.355,-2.557 13.131,-29.667 h -26.333 z m -30.812,2.557 v -39.179 l -33.144,39.179 h -7.383 v -49.683 h 1.349 v 46.418 l 39.178,-46.418 h 1.277 v 49.683 z m 158.713,-72.804 -6.824,-15.488 -6.849,15.488 h -2.595 v -4.515 -8.146 -6.019 h 0.624 v 5.941 10.949 l 7.419,-16.89 h 0.648 l 7.447,16.89 v -11.908 -4.982 h 2.697 v 4.982 9.183 4.515 z m -42.757,0 -7.732,-18.68 h 0.987 l 2.62,6.849 h 6.875 l 1.401,-3.424 c 0,0 0.415,-1.012 1.401,-3.425 v 0 h 2.931 l -7.938,18.68 z m -0.752,-3.373 3.268,-7.835 h -6.459 z m -36.141,3.373 v -4.696 -9.184 -4.8 h 12.998 v 0.623 h -10.3 v 18.057 z m -28.097,0 v -4.67 -6.849 -1.115 -1.323 -4.723 h 2.698 v 4.748 1.298 0.674 0.441 2.335 h 1.945 3.451 v 0.648 h -3.529 -1.867 v 3.295 0.545 4.073 h 2.464 5.734 v 0.623 z m -26.049,0 -7.731,-18.68 h 0.985 l 2.62,6.849 h 6.876 l 1.401,-3.424 c 0,0 0.415,-1.012 1.401,-3.425 v 0 h 2.931 l -7.939,18.68 z m -0.753,-3.373 3.269,-7.835 h -6.46 z"
         transform="matrix(1,0,0,-1,3.0000001e-5,2.5000001e-6)"
         id="path1432" />
    </clipPath>
    <clipPath
       clipPathUnits="userSpaceOnUse"
       id="clipPath1434">
      <path
         d="m 618.772,347.612 v -1.349 h 17.318 v -48.334 h 6.744 v 48.334 h 17.318 v 1.349 z m -26.834,0 -22.073,-49.683 h 1.49 l 7.169,16.112 h 27.539 l 7.168,-16.112 h 7.311 l -22.073,49.683 z m 0.356,-2.557 13.13,-29.667 h -26.333 z m -36.493,2.557 -19.447,-41.876 -23.634,41.876 h -5.394 v -49.683 h 1.349 v 43.225 l 24.202,-42.942 h 1.49 l 21.649,46.632 v -46.915 h 6.741 v 49.683 z m -84.185,0 -22.074,-49.683 h 1.491 l 7.169,16.112 h 27.538 l 7.169,-16.112 h 7.311 l -22.073,49.683 z m 0.355,-2.557 13.131,-29.667 h -26.333 z m -30.812,2.557 v -39.179 l -33.144,39.179 h -7.383 v -49.683 h 1.349 v 46.418 l 39.178,-46.418 h 1.277 v 49.683 z m 158.713,-72.804 -6.824,-15.488 -6.849,15.488 h -2.595 v -4.515 -8.146 -6.019 h 0.624 v 5.941 10.949 l 7.419,-16.89 h 0.648 l 7.447,16.89 v -11.908 -4.982 h 2.697 v 4.982 9.183 4.515 z m -42.757,0 -7.732,-18.68 h 0.987 l 2.62,6.849 h 6.875 l 1.401,-3.424 c 0,0 0.415,-1.012 1.401,-3.425 v 0 h 2.931 l -7.938,18.68 z m -0.752,-3.373 3.268,-7.835 h -6.459 z m -36.141,3.373 v -4.696 -9.184 -4.8 h 12.998 v 0.623 h -10.3 v 18.057 z m -28.097,0 v -4.67 -6.849 -1.115 -1.323 -4.723 h 2.698 v 4.748 1.298 0.674 0.441 2.335 h 1.945 3.451 v 0.648 h -3.529 -1.867 v 3.295 0.545 4.073 h 2.464 5.734 v 0.623 z m -26.049,0 -7.731,-18.68 h 0.985 l 2.62,6.849 h 6.876 l 1.401,-3.424 c 0,0 0.415,-1.012 1.401,-3.425 v 0 h 2.931 l -7.939,18.68 z m -0.753,-3.373 3.269,-7.835 h -6.46 z"
         transform="matrix(1,0,0,-1,3.0000001e-5,2.5000001e-6)"
         id="path1434" />
    </clipPath>
    <clipPath
       clipPathUnits="userSpaceOnUse"
       id="clipPath1446">
      <path
         d="m 618.772,347.612 v -1.349 h 17.318 v -48.334 h 6.744 v 48.334 h 17.318 v 1.349 z m -26.834,0 -22.073,-49.683 h 1.49 l 7.169,16.112 h 27.539 l 7.168,-16.112 h 7.311 l -22.073,49.683 z m 0.356,-2.557 13.13,-29.667 h -26.333 z m -36.493,2.557 -19.447,-41.876 -23.634,41.876 h -5.394 v -49.683 h 1.349 v 43.225 l 24.202,-42.942 h 1.49 l 21.649,46.632 v -46.915 h 6.741 v 49.683 z m -84.185,0 -22.074,-49.683 h 1.491 l 7.169,16.112 h 27.538 l 7.169,-16.112 h 7.311 l -22.073,49.683 z m 0.355,-2.557 13.131,-29.667 h -26.333 z m -30.812,2.557 v -39.179 l -33.144,39.179 h -7.383 v -49.683 h 1.349 v 46.418 l 39.178,-46.418 h 1.277 v 49.683 z m 158.713,-72.804 -6.824,-15.488 -6.849,15.488 h -2.595 v -4.515 -8.146 -6.019 h 0.624 v 5.941 10.949 l 7.419,-16.89 h 0.648 l 7.447,16.89 v -11.908 -4.982 h 2.697 v 4.982 9.183 4.515 z m -42.757,0 -7.732,-18.68 h 0.987 l 2.62,6.849 h 6.875 l 1.401,-3.424 c 0,0 0.415,-1.012 1.401,-3.425 v 0 h 2.931 l -7.938,18.68 z m -0.752,-3.373 3.268,-7.835 h -6.459 z m -36.141,3.373 v -4.696 -9.184 -4.8 h 12.998 v 0.623 h -10.3 v 18.057 z m -28.097,0 v -4.67 -6.849 -1.115 -1.323 -4.723 h 2.698 v 4.748 1.298 0.674 0.441 2.335 h 1.945 3.451 v 0.648 h -3.529 -1.867 v 3.295 0.545 4.073 h 2.464 5.734 v 0.623 z m -26.049,0 -7.731,-18.68 h 0.985 l 2.62,6.849 h 6.876 l 1.401,-3.424 c 0,0 0.415,-1.012 1.401,-3.425 v 0 h 2.931 l -7.939,18.68 z m -0.753,-3.373 3.269,-7.835 h -6.46 z"
         transform="matrix(1,0,0,-1,3.0000001e-5,2.5000001e-6)"
         id="path1446" />
    </clipPath>
  </defs>
  <g
     id="layer-MC1"
     transform="matrix(0.919102,0,0,0.919102,-3075.5359,-303.45699)">
    <path
       id="path1295"
       d="m 442.43587,-348.28023 -1.23689,2e-5 v 1.50271 l 1.23689,-2e-5 z"
       style="fill:#a45473;fill-opacity:1;fill-rule:nonzero;stroke:none"
       transform="matrix(11.212354,0,0,11.212354,-1145.7881,4227.7156)"
       clip-path="url(#clipPath1296)" />
    <path
       id="path1299"
       d="m 442.43587,-346.77752 v 9.08839 l -1.23689,2e-5 v -9.08839 z"
       style="fill:#aa5772;fill-opacity:1;fill-rule:nonzero;stroke:none"
       transform="matrix(11.212354,0,0,11.212354,-1145.7881,4227.7156)"
       clip-path="url(#clipPath1300)" />
    <path
       id="path1301"
       d="m 441.19898,-355.86541 c 0,3.0293 0,6.0586 0,9.08791 -4.25878,0 -8.51757,0 -12.77733,0 0,-3.02931 0,-6.05861 0,-9.08791 4.25976,0 8.51855,0 12.77733,0 z"
       style="fill:#b05667;fill-opacity:1;fill-rule:nonzero;stroke:none"
       transform="matrix(11.212354,0,0,11.212354,-1145.7881,4227.7156)"
       clip-path="url(#clipPath1302)" />
    <path
       id="path1303"
       d="m 428.42165,-355.86541 c 0,3.0293 0,6.0586 0,9.08791 -4.25879,0 -8.51757,0 -12.77734,0 0,-3.02931 0,-6.05861 0,-9.08791 4.25977,0 8.51855,0 12.77734,0 z"
       style="fill:#c15c5b;fill-opacity:1;fill-rule:nonzero;stroke:none"
       transform="matrix(11.212354,0,0,11.212354,-1145.7881,4227.7156)"
       clip-path="url(#clipPath1304)" />
    <path
       id="path1305"
       d="m 441.19898,-346.7775 c 0,3.0293 0,6.0586 0,9.08839 -4.25878,0 -8.51757,0 -12.77733,0 0,-3.02979 0,-6.05909 0,-9.08839 4.25976,0 8.51855,0 12.77733,0 z"
       style="fill:#b95a66;fill-opacity:1;fill-rule:nonzero;stroke:none"
       transform="matrix(11.212354,0,0,11.212354,-1145.7881,4227.7156)"
       clip-path="url(#clipPath1306)" />
    <path
       id="path1307"
       d="m 428.42165,-346.7775 c 0,3.0293 0,6.0586 0,9.08839 -4.25879,0 -8.51757,0 -12.77734,0 0,-3.02979 0,-6.05909 0,-9.08839 4.25977,0 8.51855,0 12.77734,0 z"
       style="fill:#c9615d;fill-opacity:1;fill-rule:nonzero;stroke:none"
       transform="matrix(11.212354,0,0,11.212354,-1145.7881,4227.7156)"
       clip-path="url(#clipPath1308)" />
    <path
       id="path1311"
       d="m 442.43587,-337.68913 v 9.0879 l -1.23689,2e-5 v -9.0879 z"
       style="fill:#be6273;fill-opacity:1;fill-rule:nonzero;stroke:none"
       transform="matrix(11.212354,0,0,11.212354,-1145.7881,4227.7156)"
       clip-path="url(#clipPath1312)" />
    <path
       id="path1315"
       d="m 442.43587,-328.60123 v 9.08791 l -1.23689,2e-5 v -9.08791 z"
       style="fill:#d67377;fill-opacity:1;fill-rule:nonzero;stroke:none"
       transform="matrix(11.212354,0,0,11.212354,-1145.7881,4227.7156)"
       clip-path="url(#clipPath1316)" />
    <path
       id="path1317"
       d="m 441.19898,-337.68911 c 0,3.0293 0,6.0586 0,9.0879 -4.25878,0 -8.51757,0 -12.77733,0 0,-3.0293 0,-6.0586 0,-9.0879 4.25976,0 8.51855,0 12.77733,0 z"
       style="fill:#ca6669;fill-opacity:1;fill-rule:nonzero;stroke:none"
       transform="matrix(11.212354,0,0,11.212354,-1145.7881,4227.7156)"
       clip-path="url(#clipPath1318)" />
    <path
       id="path1319"
       d="m 428.42165,-337.68911 c 0,3.0293 0,6.0586 0,9.0879 -4.25879,0 -8.51757,0 -12.77734,0 0,-3.0293 0,-6.0586 0,-9.0879 4.25977,0 8.51855,0 12.77734,0 z"
       style="fill:#d86d61;fill-opacity:1;fill-rule:nonzero;stroke:none"
       transform="matrix(11.212354,0,0,11.212354,-1145.7881,4227.7156)"
       clip-path="url(#clipPath1320)" />
    <path
       id="path1321"
       d="m 441.19898,-328.60121 c 0,3.0293 0,6.0586 0,9.08791 -4.25878,0 -8.51757,0 -12.77733,0 0,-3.02931 0,-6.05861 0,-9.08791 4.25976,0 8.51855,0 12.77733,0 z"
       style="fill:#df776f;fill-opacity:1;fill-rule:nonzero;stroke:none"
       transform="matrix(11.212354,0,0,11.212354,-1145.7881,4227.7156)"
       clip-path="url(#clipPath1322)" />
    <path
       id="path1323"
       d="m 428.42165,-328.60121 c 0,3.0293 0,6.0586 0,9.08791 -4.25879,0 -8.51757,0 -12.77734,0 0,-3.02931 0,-6.05861 0,-9.08791 4.25977,0 8.51855,0 12.77734,0 z"
       style="fill:#e77c69;fill-opacity:1;fill-rule:nonzero;stroke:none"
       transform="matrix(11.212354,0,0,11.212354,-1145.7881,4227.7156)"
       clip-path="url(#clipPath1324)" />
    <path
       id="path1327"
       d="m 442.43587,-319.51332 v 9.08839 l -1.23689,2e-5 v -9.08839 z"
       style="fill:#e6857b;fill-opacity:1;fill-rule:nonzero;stroke:none"
       transform="matrix(11.212354,0,0,11.212354,-1145.7881,4227.7156)"
       clip-path="url(#clipPath1328)" />
    <path
       id="path1331"
       d="m 442.43587,-310.42493 v 9.0879 l -1.23689,2e-5 v -9.0879 z"
       style="fill:#f09987;fill-opacity:1;fill-rule:nonzero;stroke:none"
       transform="matrix(11.212354,0,0,11.212354,-1145.7881,4227.7156)"
       clip-path="url(#clipPath1332)" />
    <path
       id="path1333"
       d="m 441.19898,-319.5133 c 0,3.02979 0,6.05909 0,9.08839 -4.25878,0 -8.51757,0 -12.77733,0 0,-3.0293 0,-6.0586 0,-9.08839 4.25976,0 8.51855,0 12.77733,0 z"
       style="fill:#ec8776;fill-opacity:1;fill-rule:nonzero;stroke:none"
       transform="matrix(11.212354,0,0,11.212354,-1145.7881,4227.7156)"
       clip-path="url(#clipPath1334)" />
    <path
       id="path1335"
       d="m 428.42165,-319.5133 c 0,3.02979 0,6.05909 0,9.08839 -4.25879,0 -8.51757,0 -12.77734,0 0,-3.0293 0,-6.0586 0,-9.08839 4.25977,0 8.51855,0 12.77734,0 z"
       style="fill:#f18c74;fill-opacity:1;fill-rule:nonzero;stroke:none"
       transform="matrix(11.212354,0,0,11.212354,-1145.7881,4227.7156)"
       clip-path="url(#clipPath1336)" />
    <path
       id="path1337"
       d="m 441.19898,-310.42491 c -8.51757,0 -17.03612,0 -25.55467,0 0,3.0293 0,6.0586 0,9.0879 8.51855,0 17.0371,0 25.55467,0 0,-3.0293 0,-6.0586 0,-9.0879 z"
       style="fill:#f29b85;fill-opacity:1;fill-rule:nonzero;stroke:none"
       transform="matrix(11.212354,0,0,11.212354,-1145.7881,4227.7156)"
       clip-path="url(#clipPath1338)" />
    <path
       id="path1341"
       d="m 442.43587,-301.33703 -1e-5,3.4082 -1.23689,2e-5 1e-5,-3.4082 z"
       style="fill:#f6b19d;fill-opacity:1;fill-rule:nonzero;stroke:none"
       transform="matrix(11.212354,0,0,11.212354,-1145.7881,4227.7156)"
       clip-path="url(#clipPath1342)" />
    <path
       id="path1345"
       d="m 441.19898,-301.33701 h -25.55467 l -1e-5,3.4082 h 25.55467 z"
       style="fill:#f7b19c;fill-opacity:1;fill-rule:nonzero;stroke:none"
       transform="matrix(11.212354,0,0,11.212354,-1145.7881,4227.7156)"
       clip-path="url(#clipPath1346)" />
    <path
       id="path1395"
       d="m 415.64431,-355.86541 c 0,3.0293 0,6.0586 0,9.08791 -4.25878,0 -8.51757,0 -12.77733,0 0,-3.02931 0,-6.05861 0,-9.08791 4.25976,0 8.51855,0 12.77733,0 z"
       style="fill:#cb6958;fill-opacity:1;fill-rule:nonzero;stroke:none"
       transform="matrix(11.212354,0,0,11.212354,-1145.7881,4227.7156)"
       clip-path="url(#clipPath1396)" />
    <path
       id="path1397"
       d="m 402.86698,-355.86541 c 0,3.0293 0,6.0586 0,9.08791 -4.25879,0 -8.51757,0 -12.77734,0 0,-3.02931 0,-6.05861 0,-9.08791 4.25977,0 8.51855,0 12.77734,0 z"
       style="fill:#cf7b5f;fill-opacity:1;fill-rule:nonzero;stroke:none"
       transform="matrix(11.212354,0,0,11.212354,-1145.7881,4227.7156)"
       clip-path="url(#clipPath1398)" />
    <path
       id="path1399"
       d="m 415.64431,-346.7775 c 0,3.0293 0,6.0586 0,9.08839 -4.25878,0 -8.51757,0 -12.77733,0 0,-3.02979 0,-6.05909 0,-9.08839 4.25976,0 8.51855,0 12.77733,0 z"
       style="fill:#d26c59;fill-opacity:1;fill-rule:nonzero;stroke:none"
       transform="matrix(11.212354,0,0,11.212354,-1145.7881,4227.7156)"
       clip-path="url(#clipPath1400)" />
    <path
       id="path1401"
       d="m 402.86698,-346.7775 c 0,3.0293 0,6.0586 0,9.08839 -4.25879,0 -8.51757,0 -12.77734,0 0,-3.02979 0,-6.05909 0,-9.08839 4.25977,0 8.51855,0 12.77734,0 z"
       style="fill:#d57e61;fill-opacity:1;fill-rule:nonzero;stroke:none"
       transform="matrix(11.212354,0,0,11.212354,-1145.7881,4227.7156)"
       clip-path="url(#clipPath1402)" />
    <path
       id="path1411"
       d="m 415.64431,-337.68911 c 0,3.0293 0,6.0586 0,9.0879 -4.25878,0 -8.51757,0 -12.77733,0 0,-3.0293 0,-6.0586 0,-9.0879 4.25976,0 8.51855,0 12.77733,0 z"
       style="fill:#df775f;fill-opacity:1;fill-rule:nonzero;stroke:none"
       transform="matrix(11.212354,0,0,11.212354,-1145.7881,4227.7156)"
       clip-path="url(#clipPath1412)" />
    <path
       id="path1413"
       d="m 402.86698,-337.68911 c 0,3.0293 0,6.0586 0,9.0879 -4.25879,0 -8.51757,0 -12.77734,0 0,-3.0293 0,-6.0586 0,-9.0879 4.25977,0 8.51855,0 12.77734,0 z"
       style="fill:#e18868;fill-opacity:1;fill-rule:nonzero;stroke:none"
       transform="matrix(11.212354,0,0,11.212354,-1145.7881,4227.7156)"
       clip-path="url(#clipPath1414)" />
    <path
       id="path1415"
       d="m 415.64431,-328.60121 c 0,3.0293 0,6.0586 0,9.08791 -4.25878,0 -8.51757,0 -12.77733,0 0,-3.02931 0,-6.05861 0,-9.08791 4.25976,0 8.51855,0 12.77733,0 z"
       style="fill:#ec8568;fill-opacity:1;fill-rule:nonzero;stroke:none"
       transform="matrix(11.212354,0,0,11.212354,-1145.7881,4227.7156)"
       clip-path="url(#clipPath1416)" />
    <path
       id="path1417"
       d="m 402.86698,-328.60121 c 0,3.0293 0,6.0586 0,9.08791 -4.25879,0 -8.51757,0 -12.77734,0 0,-3.02931 0,-6.05861 0,-9.08791 4.25977,0 8.51855,0 12.77734,0 z"
       style="fill:#ed9471;fill-opacity:1;fill-rule:nonzero;stroke:none"
       transform="matrix(11.212354,0,0,11.212354,-1145.7881,4227.7156)"
       clip-path="url(#clipPath1418)" />
    <path
       id="path1427"
       d="m 415.64431,-319.5133 c 0,3.02979 0,6.05909 0,9.08839 -4.25878,0 -8.51757,0 -12.77733,0 0,-3.0293 0,-6.0586 0,-9.08839 4.25976,0 8.51855,0 12.77733,0 z"
       style="fill:#f49475;fill-opacity:1;fill-rule:nonzero;stroke:none"
       transform="matrix(11.212354,0,0,11.212354,-1145.7881,4227.7156)"
       clip-path="url(#clipPath1428)" />
    <path
       id="path1429"
       d="m 402.86698,-319.5133 c 0,3.02979 0,6.05909 0,9.08839 -4.25879,0 -8.51757,0 -12.77734,0 0,-3.0293 0,-6.0586 0,-9.08839 4.25977,0 8.51855,0 12.77734,0 z"
       style="fill:#f5a17d;fill-opacity:1;fill-rule:nonzero;stroke:none"
       transform="matrix(11.212354,0,0,11.212354,-1145.7881,4227.7156)"
       clip-path="url(#clipPath1430)" />
    <path
       id="path1431"
       d="m 415.64431,-310.42491 c 0,3.0293 0,6.0586 0,9.0879 -4.25878,0 -8.51757,0 -12.77733,0 0,-3.0293 0,-6.0586 0,-9.0879 4.25976,0 8.51855,0 12.77733,0 z"
       style="fill:#f7a486;fill-opacity:1;fill-rule:nonzero;stroke:none"
       transform="matrix(11.212354,0,0,11.212354,-1145.7881,4227.7156)"
       clip-path="url(#clipPath1432)" />
    <path
       id="path1433"
       d="m 402.86698,-310.42491 c 0,3.0293 0,6.0586 0,9.0879 -4.25879,0 -8.51757,0 -12.77734,0 0,-3.0293 0,-6.0586 0,-9.0879 4.25977,0 8.51855,0 12.77734,0 z"
       style="fill:#f7b08e;fill-opacity:1;fill-rule:nonzero;stroke:none"
       transform="matrix(11.212354,0,0,11.212354,-1145.7881,4227.7156)"
       clip-path="url(#clipPath1434)" />
    <path
       id="path1445"
       d="m 402.86698,-301.33701 -1e-5,3.4082 h -12.77734 l 10e-6,-3.4082 z"
       style="fill:#fac0a5;fill-opacity:1;fill-rule:nonzero;stroke:none"
       transform="matrix(11.212354,0,0,11.212354,-1145.7881,4227.7156)"
       clip-path="url(#clipPath1446)" />
  </g>
</svg>
