<?xml version="1.0" encoding="UTF-8" standalone="no"?>
<svg
   viewBox="0 0 500 500"
   version="1.1"
   id="svg51"
   xmlns="http://www.w3.org/2000/svg"
   xmlns:svg="http://www.w3.org/2000/svg">
  <defs
     id="defs51" />
  <g
     id="freepik--Character--inject-2"
     transform="translate(0,55.322961)">
    <path
       d="m 374.26,86.05 v 144.16 a 8.06,8.06 0 0 1 -8.06,8.06 H 148.35 a 8.05,8.05 0 0 1 -8,-8.06 V 86.05 a 8.05,8.05 0 0 1 8,-8.06 H 366.2 a 8.06,8.06 0 0 1 8.06,8.06 z"
       style="fill:#ff8b1a"
       id="path2" />
    <path
       d="m 374.26,86.05 v 144.16 a 8.06,8.06 0 0 1 -8.06,8.06 H 148.35 a 8.05,8.05 0 0 1 -8,-8.06 V 86.05 a 8.05,8.05 0 0 1 8,-8.06 H 366.2 a 8.06,8.06 0 0 1 8.06,8.06 z"
       style="opacity:0.7;fill:#ffffff;stroke:#ffffff;stroke-miterlimit:10"
       id="path3" />
    <circle
       cx="360.70001"
       cy="87.93"
       r="2.1700001"
       style="fill:#ff8b1a"
       id="circle3" />
    <path
       d="m 350.33,87.93 a 2.18,2.18 0 1 1 -2.18,-2.17 2.19,2.19 0 0 1 2.18,2.17 z"
       style="fill:#ff8b1a"
       id="path4" />
    <path
       d="m 337.78,87.93 a 2.18,2.18 0 1 1 -2.18,-2.17 2.19,2.19 0 0 1 2.18,2.17 z"
       style="fill:#ff8b1a"
       id="path5" />
    <path
       d="m 357.12,115.31 v 144.16 a 8.05,8.05 0 0 1 -8.05,8 H 131.21 a 8.05,8.05 0 0 1 -8.05,-8 V 115.31 a 8.06,8.06 0 0 1 8.05,-8.06 h 217.86 a 8.06,8.06 0 0 1 8.05,8.06 z"
       style="fill:#ff8b1a"
       id="path6" />
    <path
       d="m 357.12,115.31 v 144.16 a 8.05,8.05 0 0 1 -8.05,8 H 131.21 a 8.05,8.05 0 0 1 -8.05,-8 V 115.31 a 8.06,8.06 0 0 1 8.05,-8.06 h 217.86 a 8.06,8.06 0 0 1 8.05,8.06 z"
       style="opacity:0.8;fill:#ffffff"
       id="path7" />
    <rect
       x="304.94"
       y="124.17"
       width="52.189999"
       height="131.88"
       style="fill:#ff8b1a"
       id="rect7" />
    <rect
       x="304.94"
       y="124.17"
       width="52.189999"
       height="131.88"
       style="opacity:0.2"
       id="rect8" />
    <rect
       x="304.94"
       y="163.78"
       width="52.189999"
       height="1.6799999"
       style="fill:#fafafa"
       id="rect9" />
    <rect
       x="304.94"
       y="205.17"
       width="52.189999"
       height="1.6799999"
       style="fill:#fafafa"
       id="rect10" />
    <rect
       x="304.94"
       y="245.95"
       width="52.189999"
       height="1.6799999"
       style="fill:#fafafa"
       id="rect11" />
    <polygon
       points="327.7,195.02 342.58,185.17 327.7,175.32 "
       style="fill:#fafafa"
       id="polygon11" />
    <polygon
       points="327.7,236.25 342.58,226.4 327.7,216.54 "
       style="fill:#fafafa"
       id="polygon12" />
    <polygon
       points="327.7,153.08 342.58,143.22 327.7,133.37 "
       style="fill:#fafafa"
       id="polygon13" />
    <g
       id="g51"
       transform="translate(16.900247,-10.71723)">
      <polygon
         points="143.36,407.53 151.19,404.56 146.39,385.64 138.56,388.61 "
         style="fill:#b55b52"
         id="polygon22"
         transform="translate(119.8022,39.0589)" />
      <polygon
         points="84.53,407.69 92.9,407.69 94.16,388.29 85.78,388.29 "
         style="fill:#b55b52"
         id="polygon23"
         transform="translate(119.8022,39.0589)" />
      <path
         d="m 213.5422,445.7789 h -10.21 a 0.69,0.69 0 0 0 -0.69,0.57 l -1.28,7.44 a 1.31,1.31 0 0 0 1.3,1.49 c 3.28,-0.06 5.67,-0.25 9.81,-0.25 2.54,0 10.23,0.27 13.75,0.27 3.52,0 3.8,-3.48 2.34,-3.8 -6.52,-1.41 -11.48,-3.35 -13.64,-5.21 a 2.14,2.14 0 0 0 -1.38,-0.51 z"
         style="fill:#263238"
         id="path23-0" />
      <path
         d="m 270.5922,442.7389 -8.55,3.24 a 0.74,0.74 0 0 0 -0.47,0.79 l 1.1,7.54 a 1.21,1.21 0 0 0 1.65,1 c 3.06,-1.22 5.67,-2.77 9.57,-4.17 a 64.73,64.73 0 0 0 12.78,-5.75 c 2.9,-1.84 1.68,-5.34 0.31,-4.79 -6.22,2.5 -7.75,3.32 -14.28,2.06 a 3.87,3.87 0 0 0 -2.11,0.08 z"
         style="fill:#263238"
         id="path24-9" />
      <path
         d="m 248.5022,191.5489 c 2.63,4.66 5.41,9.46 8.21,14.1 2.8,4.64 5.67,9.28 8.72,13.6 0.73,1.09 1.55,2.14 2.29,3.15 a 2.53,2.53 0 0 0 0.65,0.76 2.47,2.47 0 0 0 1.52,0.24 10.74,10.74 0 0 0 2.79,-0.67 33.78,33.78 0 0 0 6.46,-3.38 c 1.08,-0.71 2.18,-1.44 3.25,-2.22 1.07,-0.78 2.15,-1.62 3.13,-2.37 l 4.69,4.18 a 44.24,44.24 0 0 1 -2.75,3.57 44.8,44.8 0 0 1 -3,3.31 39,39 0 0 1 -3.43,3.07 28.58,28.58 0 0 1 -4,2.74 19.91,19.91 0 0 1 -5.08,2.07 13.51,13.51 0 0 1 -6.75,0 12.71,12.71 0 0 1 -6.17,-3.89 c -1,-1.16 -2,-2.25 -2.9,-3.4 a 155.64,155.64 0 0 1 -10.09,-14.05 c -3.1,-4.82 -6,-9.65 -8.66,-14.79 z"
         style="fill:#b65b52"
         id="path25-4" />
      <path
         d="m 233.6422,191.9389 c -2.25,7.68 13.64,28.62 13.64,28.62 l 16,-10.31 a 102.06,102.06 0 0 0 -11.11,-18.84 c -6.53,-8.35 -16.05,-7.9 -18.53,0.53 z"
         style="fill:#ff8b1a"
         id="path26-8" />
      <path
         d="m 233.6422,191.9389 c -2.25,7.68 13.64,28.62 13.64,28.62 l 16,-10.31 a 102.06,102.06 0 0 0 -11.11,-18.84 c -6.53,-8.35 -16.05,-7.9 -18.53,0.53 z"
         style="opacity:0.2"
         id="path27-8" />
      <path
         d="m 243.4122,200.9489 c 3.3,1.41 8.15,9.35 10.68,15.24 l -6.81,4.37 a 128.61,128.61 0 0 1 -10.22,-16 c 2.15,-2.39 4.61,-4.35 6.35,-3.61 z"
         style="opacity:0.2"
         id="path28-2" />
      <path
         d="m 284.5322,217.3689 2.94,-8.23 8.33,4 c 0,0 -1.73,7.33 -7.83,7.32 z"
         style="fill:#b55b52"
         id="path29" />
      <polygon
         points="175.08,164.67 178.61,168.56 176,174.06 167.67,170.08 "
         style="fill:#b55b52"
         id="polygon29-4"
         transform="translate(119.8022,39.0589)" />
      <polygon
         points="146.39,385.65 148.86,395.4 141.03,398.37 138.56,388.62 "
         style="opacity:0.2"
         id="polygon30-5"
         transform="translate(119.8022,39.0589)" />
      <polygon
         points="85.78,388.3 94.16,388.3 93.51,398.29 85.13,398.29 "
         style="opacity:0.2"
         id="polygon31"
         transform="translate(119.8022,39.0589)" />
      <path
         d="m 196.3222,188.5389 c 9,31.81 7.54,65.56 8.1,72.42 l 44.76,-1.68 c 7.61,-47.42 -6,-73.81 -6,-73.81 0,0 -2.87,-0.55 -6.78,-0.95 -1.22,-0.13 -2.54,-0.24 -3.92,-0.31 -0.76,-0.05 -1.53,-0.07 -2.31,-0.09 a 165.25,165.25 0 0 0 -19,1.42 c -1.19,0.15 -2.4,0.32 -3.58,0.52 -1.18,0.2 -2.15,0.38 -3.16,0.58 -4.63,0.91 -8.11,1.9 -8.11,1.9 z"
         style="fill:#ff8b1a"
         id="path31-5" />
      <path
         d="m 196.3222,188.5389 c 9,31.81 7.54,65.56 8.1,72.42 l 44.76,-1.68 c 7.61,-47.42 -6,-73.81 -6,-73.81 0,0 -2.87,-0.55 -6.78,-0.95 -1.22,-0.13 -2.54,-0.24 -3.92,-0.31 -0.76,-0.05 -1.53,-0.07 -2.31,-0.09 a 165.25,165.25 0 0 0 -19,1.42 c -1.19,0.15 -2.4,0.32 -3.58,0.52 -1.18,0.2 -2.15,0.38 -3.16,0.58 -4.63,0.91 -8.11,1.9 -8.11,1.9 z"
         style="opacity:0.2"
         id="path32-1" />
      <path
         d="m 205.8522,202.1889 c 0.8,3.07 -0.12,17.12 -3.33,20.58 -0.44,-4.5 -1,-9.19 -1.8,-14 z"
         style="opacity:0.2"
         id="path33-7" />
      <path
         d="m 211.4222,164.0589 c 1.65,6 3.68,17.12 -0.29,21.51 3.57,3.06 8.19,6.55 15.46,6.26 7.27,-0.29 5.64,-5.18 3.53,-7.67 -6.94,-1.12 -7.14,-6.18 -6.3,-11 z"
         style="fill:#b55b52"
         id="path34-1" />
      <polygon
         points="106.98,151.7 108.3,152.59 103.48,154 104.72,151.76 "
         style="fill:#ff8b1a"
         id="polygon34"
         transform="translate(119.8022,39.0589)" />
      <polygon
         points="108.8,151.23 108.3,152.59 113.14,154 112.81,151.41 "
         style="fill:#ff8b1a"
         id="polygon35-1"
         transform="translate(119.8022,39.0589)" />
      <path
         d="m 208.2422,185.0589 1.9,-0.95 a 1.85,1.85 0 0 1 1.92,0.16 38.13,38.13 0 0 0 14.74,6.49 c -3.82,1.82 -2.88,6.72 -2.88,6.72 0,0 -12.15,-4 -16,-11.26 a 0.86,0.86 0 0 1 0.32,-1.16 z"
         style="fill:#ffffff"
         id="path35-5" />
      <path
         d="m 232.2422,183.8089 -2.79,-0.42 a 0.37,0.37 0 0 0 -0.36,0.58 c 1,1.39 2.6,4.44 -0.49,6.32 3.82,1.82 5,6.29 5,6.29 0,0 5,-5.37 -0.82,-12.46 a 0.93,0.93 0 0 0 -0.54,-0.31 z"
         style="fill:#ffffff"
         id="path36-2" />
      <path
         d="m 216.4722,167.7189 7.33,5.34 a 19.21,19.21 0 0 0 -0.33,3.42 c -2.63,-0.18 -6.42,-2.77 -6.9,-5.48 a 9.29,9.29 0 0 1 -0.1,-3.28 z"
         style="opacity:0.2"
         id="path37-7" />
      <path
         d="m 232.6722,151.6689 c -0.34,2.91 -3.13,5.41 -4.93,6 l -2.25,-12.61 c 5.05,-3.57 7.65,2.53 7.18,6.61 z"
         style="fill:#263238"
         id="path38-6" />
      <path
         d="m 208.8922,155.1589 c 1.46,8.18 1.89,13.05 6.54,16.8 7,5.64 16.73,0.69 17.75,-7.76 0.92,-7.61 -1.62,-19.71 -10.06,-22.06 a 11.34,11.34 0 0 0 -14.23,13.02 z"
         style="fill:#b55b52"
         id="path39-1" />
      <path
         d="m 210.4522,160.6789 c 3.79,2 5.45,-2.51 5.49,-4.35 0,-2.92 -1.22,-6.13 -2.73,-7.3 7.32,0 21.8,-0.36 18.14,-7.33 -3.66,-6.97 -11,-6.18 -16.47,-2.36 -2.91,2 -12.33,0.26 -10,5.69 -4.91,2.61 -0.65,12.34 5.57,15.65 z"
         style="fill:#263238"
         id="path40-4" />
      <path
         d="m 205.6822,144.5789 a 6,6 0 0 1 -3.61,-1.23 3.43,3.43 0 0 0 3.2,2.65 z"
         style="fill:#263238"
         id="path41-2" />
      <path
         d="m 205.8022,161.8889 a 8,8 0 0 0 4.57,4 c 2.64,0.85 3.24,-1.57 2.6,-4.11 -0.58,-2.3 -1.82,-5.41 -4.51,-5.16 -2.69,0.25 -3.78,2.97 -2.66,5.27 z"
         style="fill:#b55b52"
         id="path42-3" />
      <path
         d="m 258.9322,347.8089 c -3.4,-25.33 -9.75,-88.53 -9.75,-88.53 l -29.38,1.11 c 0,0 13.88,63.15 18.9,88.76 5.02,25.61 19,87.41 19,87.41 l 13.26,-5 c 0,0 -8.48,-57.41 -12.03,-83.75 z"
         style="fill:#263238"
         id="path43-2" />
      <path
         d="m 230.8022,277.4089 a 15.58,15.58 0 0 0 -6.55,3.35 c 2.78,12.77 6.41,29.58 9.53,44.39 2.08,-12.83 2.14,-37.04 -2.98,-47.74 z"
         style="opacity:0.2"
         id="path44-2" />
      <path
         d="m 233.3122,259.8789 c 0,0 -6.25,68.56 -9.11,92.92 -3.13,26.69 -7,82.62 -7,82.62 h -15.4 c 0,0 -0.63,-49.47 1.36,-75.59 2.27,-29.75 1.25,-98.87 1.25,-98.87 z"
         style="fill:#263238"
         id="path45-1" />
      <polygon
         points="99.4,396.69 81.34,396.69 80.96,391.29 101.12,390.94 "
         style="fill:#ff8b1a"
         id="polygon45"
         transform="translate(119.8022,39.0589)" />
      <polygon
         points="152.89,392.16 137.09,398.15 135.16,393.04 152.72,386.08 "
         style="fill:#ff8b1a"
         id="polygon46"
         transform="translate(119.8022,39.0589)" />
      <path
         d="m 221.6622,156.0589 c 0.07,0.68 0.49,1.18 0.93,1.13 0.44,-0.05 0.73,-0.64 0.65,-1.31 -0.08,-0.67 -0.49,-1.17 -0.93,-1.12 -0.44,0.05 -0.73,0.59 -0.65,1.3 z"
         style="fill:#263238"
         id="path46-6" />
      <path
         d="m 229.2422,155.1489 c 0.08,0.67 0.5,1.17 0.93,1.12 0.43,-0.05 0.74,-0.63 0.66,-1.3 -0.08,-0.67 -0.5,-1.18 -0.94,-1.13 -0.44,0.05 -0.73,0.64 -0.65,1.31 z"
         style="fill:#263238"
         id="path47" />
      <path
         d="m 226.8722,155.7589 a 24.13,24.13 0 0 0 3.86,5.37 3.86,3.86 0 0 1 -3.13,1 z"
         style="fill:#a02724"
         id="path48" />
      <path
         d="m 224.9822,164.2189 a 5.57,5.57 0 0 1 -4.05,-1.76 0.2,0.2 0 1 1 0.31,-0.25 5.36,5.36 0 0 0 4.57,1.58 0.19,0.19 0 0 1 0.22,0.17 0.2,0.2 0 0 1 -0.17,0.22 5.33,5.33 0 0 1 -0.88,0.04 z"
         style="fill:#263238"
         id="path49" />
      <path
         d="m 219.0422,153.8389 a 0.35,0.35 0 0 1 -0.2,0 0.39,0.39 0 0 1 -0.14,-0.54 3.94,3.94 0 0 1 3,-2 0.4,0.4 0 0 1 0.42,0.38 0.39,0.39 0 0 1 -0.38,0.41 v 0 a 3.18,3.18 0 0 0 -2.38,1.61 0.36,0.36 0 0 1 -0.32,0.14 z"
         style="fill:#263238"
         id="path50" />
      <path
         d="m 232.2122,152.1689 a 0.41,0.41 0 0 1 -0.33,-0.19 3.12,3.12 0 0 0 -2.43,-1.52 0.4,0.4 0 0 1 0,-0.8 4,4 0 0 1 3.09,1.9 0.39,0.39 0 0 1 -0.12,0.54 0.38,0.38 0 0 1 -0.21,0.07 z"
         style="fill:#263238"
         id="path51" />
      <path
         d="m 216.3822,447.2389 a 10.18,10.18 0 0 1 -2.21,-0.3 0.2,0.2 0 0 1 -0.15,-0.16 0.18,0.18 0 0 1 0.08,-0.2 c 0.29,-0.19 2.91,-1.85 3.86,-1.38 a 0.68,0.68 0 0 1 0.37,0.56 1.13,1.13 0 0 1 -0.36,1.05 2.42,2.42 0 0 1 -1.59,0.43 z m -1.64,-0.58 c 1.43,0.28 2.52,0.23 3,-0.15 a 0.8,0.8 0 0 0 0.24,-0.72 c 0,-0.16 -0.09,-0.21 -0.14,-0.23 -0.53,-0.25 -2.04,0.5 -3.1,1.1 z"
         style="fill:#ff8b1a"
         id="path52" />
      <path
         d="m 214.2222,446.9389 a 0.23,0.23 0 0 1 -0.11,0 0.22,0.22 0 0 1 -0.1,-0.18 c 0,-0.1 0.09,-2.52 1,-3.31 a 1,1 0 0 1 0.83,-0.26 v 0 a 0.69,0.69 0 0 1 0.66,0.52 c 0.22,0.93 -1.36,2.77 -2.21,3.24 a 0.13,0.13 0 0 1 -0.07,-0.01 z m 1.52,-3.39 a 0.67,0.67 0 0 0 -0.44,0.17 4.54,4.54 0 0 0 -0.86,2.63 c 0.83,-0.66 1.82,-2 1.69,-2.6 0,-0.05 0,-0.16 -0.3,-0.2 z"
         style="fill:#ff8b1a"
         id="path53" />
      <path
         d="m 271.8022,443.5289 a 0.19,0.19 0 0 1 -0.18,-0.11 0.2,0.2 0 0 1 0,-0.22 c 0.29,-0.32 2.83,-3.11 4,-2.94 a 0.62,0.62 0 0 1 0.5,0.37 v 0 a 1.1,1.1 0 0 1 0,1 c -0.57,1.08 -2.93,1.63 -4.29,1.85 z m 3.69,-2.88 c -0.67,0 -2.13,1.31 -3.15,2.38 1.84,-0.37 3.1,-0.94 3.42,-1.55 a 0.74,0.74 0 0 0 0,-0.68 0.24,0.24 0 0 0 -0.19,-0.15 z"
         style="fill:#ff8b1a"
         id="path54" />
      <path
         d="m 271.8022,443.5289 h -0.06 a 0.2,0.2 0 0 1 -0.14,-0.14 c 0,-0.09 -0.61,-2.28 0.07,-3.48 a 1.45,1.45 0 0 1 0.91,-0.7 v 0 c 0.53,-0.15 0.77,0.06 0.89,0.25 0.48,0.83 -0.75,3.24 -1.54,4 a 0.16,0.16 0 0 1 -0.13,0.07 z m 1.09,-4 h -0.21 v 0 a 1,1 0 0 0 -0.66,0.52 4.62,4.62 0 0 0 -0.12,2.81 c 0.74,-1 1.51,-2.76 1.22,-3.26 -0.04,0.02 -0.09,-0.06 -0.26,-0.05 z m -0.26,-0.16 z"
         style="fill:#ff8b1a"
         id="path55" />
    </g>
    <path
       d="m 357.12,115.31 v 8.86 h -234 v -8.86 a 8.06,8.06 0 0 1 8.05,-8.06 h 217.9 a 8.06,8.06 0 0 1 8.05,8.06 z"
       style="fill:#ff8b1a"
       id="path41" />
    <path
       d="m 357.12,256.05 v 3.42 a 8.05,8.05 0 0 1 -8.05,8 H 131.21 a 8.05,8.05 0 0 1 -8.05,-8 v -3.42 z"
       style="fill:#ff8b1a"
       id="path42" />
    <g
       id="g52"
       transform="translate(16.900247,-10.71723)">
      <path
         d="m 205.5222,200.3789 c -2.51,5.17 -5.07,10.51 -7.55,15.77 -1.23,2.65 -2.47,5.29 -3.63,7.94 l -1.74,4 -0.8,1.97 -0.2,0.5 -0.15,0.37 c -0.1,0.23 -0.17,0.48 -0.26,0.71 a 12.2,12.2 0 0 0 -0.32,6.09 21,21 0 0 0 2.63,6.65 41.73,41.73 0 0 0 4.76,6.44 c 0.91,1 1.87,2.06 2.87,3 0.5,0.48 1,1 1.53,1.43 0.53,0.43 1.06,1 1.5,1.35 l -3.36,5.35 a 40.15,40.15 0 0 1 -4.19,-2.46 c -1.33,-0.87 -2.63,-1.79 -3.89,-2.79 a 43,43 0 0 1 -7,-7 29.33,29.33 0 0 1 -5.05,-9.36 22.54,22.54 0 0 1 -0.49,-11.58 c 0.13,-0.47 0.23,-1 0.38,-1.42 l 0.39,-1.24 0.7,-2.21 c 0.5,-1.45 1,-2.91 1.52,-4.34 1.05,-2.87 2.15,-5.71 3.34,-8.51 2.29,-5.58 4.86,-10.98 7.72,-16.45 z"
         style="fill:#b65b52"
         id="path56" />
      <path
         d="m 196.3222,188.5389 c -7.64,2.39 -15.15,28.3 -15.15,28.3 l 17.63,7.74 c 0,0 5.72,-12.52 9,-22.33 3.63,-10.69 -2.23,-16.61 -11.48,-13.71 z"
         style="fill:#ff8b1a"
         id="path57" />
      <path
         d="m 196.3222,188.5389 c -7.64,2.39 -15.15,28.3 -15.15,28.3 l 17.63,7.74 c 0,0 5.72,-12.52 9,-22.33 3.63,-10.69 -2.23,-16.61 -11.48,-13.71 z"
         style="opacity:0.2"
         id="path58" />
      <path
         d="m 202.2622,254.9789 7.31,4.34 -7.11,7.08 c 0,0 -6.17,-4.75 -4.33,-8.47 z"
         style="fill:#b55b52"
         id="path59" />
      <polygon
         points="94.66,227.19 87.32,232.33 82.66,227.34 89.77,220.26 "
         style="fill:#b55b52"
         id="polygon59"
         transform="translate(119.8022,39.0589)" />
    </g>
    <rect
       x="218.38"
       y="183.77"
       width="3.45"
       height="20.32"
       style="display:inline;fill:#fafafa"
       id="rect40" />
    <rect
       x="210.3"
       y="183.77"
       width="3.45"
       height="20.32"
       style="display:inline;fill:#fafafa"
       id="rect41" />
    <circle
       cx="215.73"
       cy="193.64999"
       r="16.530001"
       transform="matrix(0.23,-0.97,0.97,0.23,-22.03,359.51)"
       style="display:inline;fill:none;stroke:#fafafa;stroke-miterlimit:10"
       id="circle41" />
    <path
       d="m 169.36,120.1 h -34.18 a 3.71,3.71 0 0 1 -3.71,-3.7 v 0 a 3.71,3.71 0 0 1 3.71,-3.71 h 34.18 a 3.71,3.71 0 0 1 3.71,3.71 v 0 a 3.71,3.71 0 0 1 -3.71,3.7 z"
       style="fill:none;stroke:#ffffff;stroke-width:0.5px;stroke-miterlimit:10"
       id="path43" />
    <path
       d="m 187.92,120.1 h -5 a 3.7,3.7 0 0 1 -3.7,-3.7 v 0 a 3.71,3.71 0 0 1 3.7,-3.71 h 5 a 3.71,3.71 0 0 1 3.71,3.71 v 0 a 3.71,3.71 0 0 1 -3.71,3.7 z"
       style="fill:none;stroke:#ffffff;stroke-width:0.5px;stroke-miterlimit:10"
       id="path44" />
    <rect
       x="128.61"
       y="128.72"
       width="171.42"
       height="123.52"
       rx="15.04"
       style="fill:none;stroke:#ffffff;stroke-width:0.5px;stroke-miterlimit:10"
       id="rect44" />
    <rect
       x="112.61"
       y="139.38"
       width="76.910004"
       height="38.02"
       rx="8.25"
       style="fill:#ff8b1a"
       id="rect45" />
    <path
       d="m 192.46,145.87 v 25 A 6.48,6.48 0 0 1 186,177.4 h -23.17 c -7,2.42 -2.62,12.11 -2.47,12.46 a 12.64,12.64 0 0 1 -3.69,-2 c -5,-4 -4.3,-10.45 -4.3,-10.45 H 122 a 6.49,6.49 0 0 1 -6.49,-6.49 v -25 a 6.49,6.49 0 0 1 6.49,-6.49 h 64 a 6.48,6.48 0 0 1 6.46,6.44 z"
       style="fill:#ff8b1a"
       id="path45" />
    <path
       d="m 189.51,145.87 v 25 A 6.48,6.48 0 0 1 183,177.4 h -23.12 c -5.12,1.76 -4.16,7.4 -3.21,10.45 -5,-4 -4.3,-10.45 -4.3,-10.45 h -33.28 a 6.48,6.48 0 0 1 -6.48,-6.49 v -25 a 6.48,6.48 0 0 1 6.48,-6.49 H 183 a 6.48,6.48 0 0 1 6.51,6.45 z"
       style="opacity:0.2;fill:#ffffff"
       id="path46" />
    <rect
       x="118.2"
       y="145.42"
       width="65.32"
       height="3.46"
       style="fill:#ff8b1a"
       id="rect46" />
    <rect
       x="118.2"
       y="151.77"
       width="65.32"
       height="3.46"
       style="fill:#ff8b1a"
       id="rect47" />
    <rect
       x="118.2"
       y="158.13"
       width="65.32"
       height="3.46"
       style="fill:#ff8b1a"
       id="rect48" />
    <rect
       x="118.2"
       y="145.42"
       width="65.32"
       height="3.46"
       style="opacity:0.1"
       id="rect49" />
    <rect
       x="118.2"
       y="151.77"
       width="65.32"
       height="3.46"
       style="opacity:0.1"
       id="rect50" />
    <rect
       x="118.2"
       y="158.13"
       width="65.32"
       height="3.46"
       style="opacity:0.1"
       id="rect51" />
  </g>
</svg>
