<?xml version="1.0" encoding="UTF-8" standalone="no"?>
<svg
   viewBox="0 0 500 500"
   version="1.1"
   id="svg159"
   xmlns="http://www.w3.org/2000/svg"
   xmlns:svg="http://www.w3.org/2000/svg">
  <defs
     id="defs159" />
  <g
     id="g159"
     transform="matrix(1.0671115,0,0,1.0671115,-7.4513361,57.853038)">
    <g
       id="freepik--Desk--inject-2"
       transform="translate(0,2.66)">
      <path
         d="m 296.51,290.69 h -6.24 L 280.28,409 a 2.27,2.27 0 0 0 2.26,2.46 v 0 a 2.27,2.27 0 0 0 2.25,-2 z"
         style="fill:#263238"
         id="path1" />
      <path
         d="m 296.51,290.69 h -6.24 L 280.28,409 a 2.27,2.27 0 0 0 2.26,2.46 v 0 a 2.27,2.27 0 0 0 2.25,-2 z"
         style="opacity:0.1;fill:#ffffff"
         id="path2" />
      <path
         d="m 146.53,289.86 h -6.25 l -10,119.19 a 2.26,2.26 0 0 0 2.26,2.45 v 0 a 2.27,2.27 0 0 0 2.25,-2 z"
         style="fill:#263238"
         id="path3" />
      <path
         d="m 146.53,289.86 h -6.25 l -10,119.19 a 2.26,2.26 0 0 0 2.26,2.45 v 0 a 2.27,2.27 0 0 0 2.25,-2 z"
         style="opacity:0.1;fill:#ffffff"
         id="path4" />
      <path
         d="m 174.21,289.86 h 6.24 l 0.18,119.55 a 2.27,2.27 0 0 1 -2.27,2.27 v 0 a 2.28,2.28 0 0 1 -2.27,-2.24 z"
         style="fill:#263238"
         id="path5" />
      <path
         d="m 174.21,289.86 h 6.24 l 0.18,119.55 a 2.27,2.27 0 0 1 -2.27,2.27 v 0 a 2.28,2.28 0 0 1 -2.27,-2.24 z"
         style="opacity:0.2;fill:#ffffff"
         id="path6" />
      <path
         d="m 322.19,289.86 h 6.25 l 0.18,119.55 a 2.27,2.27 0 0 1 -2.27,2.27 v 0 a 2.28,2.28 0 0 1 -2.27,-2.24 z"
         style="fill:#263238"
         id="path7" />
      <path
         d="m 328.44,289.86 0.18,119.55 a 2.27,2.27 0 0 1 -2.27,2.27 v 0 a 2.28,2.28 0 0 1 -2.27,-2.24 l -1.89,-119.58 z"
         style="opacity:0.2;fill:#ffffff"
         id="path8" />
      <polygon
         points="138.41,312.27 328.3,310.86 328.3,289.87 140.28,289.87 "
         style="fill:#ff8b1a"
         id="polygon8" />
      <polygon
         points="174.21,290.02 174.56,312 138.41,312.27 140.28,289.87 "
         style="opacity:0.3"
         id="polygon9" />
      <path
         d="m 335.63,284.82 v 0 c 0,-2.82 -1.06,-5.11 -2.36,-5.12 H 137.45 c -1.3,0 -2.35,2.3 -2.36,5.12 v 0 c 0,2.83 1.06,5.12 2.36,5.13 h 195.82 c 1.3,-0.01 2.35,-2.3 2.36,-5.13 z"
         style="fill:#263238"
         id="path9" />
      <path
         d="m 335.63,284.82 v 0 c 0,-2.82 -1.06,-5.11 -2.36,-5.12 H 137.45 c -1.3,0 -2.35,2.3 -2.36,5.12 v 0 c 0,2.83 1.06,5.12 2.36,5.13 h 195.82 c 1.3,-0.01 2.35,-2.3 2.36,-5.13 z"
         style="opacity:0.1;fill:#ffffff"
         id="path10" />
      <path
         d="m 185.64,284.82 v 0 c 0,-2.82 -1,-5.11 -2.35,-5.12 h -45.84 c -1.3,0 -2.35,2.3 -2.36,5.12 v 0 c 0,2.83 1.06,5.12 2.36,5.13 h 45.84 c 1.3,-0.01 2.35,-2.3 2.35,-5.13 z"
         style="opacity:0.3"
         id="path11" />
    </g>
    <g
       id="freepik--Device--inject-2"
       transform="translate(0,2.66)">
      <path
         d="m 285.28,280.22 h -20.57 l 0.47,-2.23 c 2.2,-5.91 13.44,-5.91 13.44,-5.91 2.79,0.16 5.51,2.77 6.29,6.42 z"
         style="fill:#ff8b1a"
         id="path12" />
      <path
         d="m 228.2,276.92 h 20.66 l 2.46,-21.6 h -18.76 z"
         style="fill:#263238"
         id="path13" />
      <path
         d="m 224.55,279.66 h 1 v 0.25 h 35 v -3 H 228.2 l 4.36,-21.6 h 18.76 l 1,-9.16 a 2.34,2.34 0 0 0 -2.34,-2.24 h -16.04 a 2.37,2.37 0 0 0 -2.35,2.24 z"
         style="fill:#263238"
         id="path14" />
      <polygon
         points="251.32,255.32 232.56,255.32 228.2,276.92 248.86,276.92 251.13,257.02 "
         style="fill:#263238"
         id="polygon14" />
      <polygon
         points="250.46,262.51 251.32,255.32 229.67,255.32 228.16,262.51 "
         style="opacity:0.1"
         id="polygon15" />
      <path
         d="m 261,277.55 h 2.46 a 0.44,0.44 0 0 0 0.46,-0.42 v -2.37 a 0.44,0.44 0 0 0 -0.46,-0.43 h -1.76 a 0.47,0.47 0 0 0 -0.45,0.32 l -0.69,2.37 a 0.43,0.43 0 0 0 0.44,0.53 z"
         style="fill:#263238"
         id="path15" />
      <path
         d="m 257.62,277.55 h 2.46 a 0.45,0.45 0 0 0 0.46,-0.42 v -2.37 a 0.45,0.45 0 0 0 -0.46,-0.43 h -1.77 a 0.47,0.47 0 0 0 -0.45,0.32 l -0.69,2.37 a 0.43,0.43 0 0 0 0.45,0.53 z"
         style="fill:#263238"
         id="path16" />
      <path
         d="m 254.23,277.55 h 2.45 a 0.45,0.45 0 0 0 0.47,-0.42 v -2.37 a 0.45,0.45 0 0 0 -0.47,-0.43 h -1.76 a 0.46,0.46 0 0 0 -0.45,0.32 l -0.69,2.37 a 0.43,0.43 0 0 0 0.45,0.53 z"
         style="fill:#263238"
         id="path17" />
      <path
         d="m 250.84,277.55 h 2.45 a 0.45,0.45 0 0 0 0.47,-0.42 v -2.37 a 0.45,0.45 0 0 0 -0.47,-0.43 h -1.76 a 0.46,0.46 0 0 0 -0.45,0.32 l -0.69,2.37 a 0.43,0.43 0 0 0 0.45,0.53 z"
         style="fill:#263238"
         id="path18" />
      <path
         d="m 247.45,277.55 h 2.45 a 0.45,0.45 0 0 0 0.47,-0.42 v -2.37 a 0.45,0.45 0 0 0 -0.47,-0.43 h -1.76 a 0.46,0.46 0 0 0 -0.45,0.32 L 247,277 a 0.43,0.43 0 0 0 0.45,0.55 z"
         style="fill:#263238"
         id="path19" />
      <path
         d="m 244.06,277.55 h 2.45 a 0.45,0.45 0 0 0 0.47,-0.42 v -2.37 a 0.45,0.45 0 0 0 -0.47,-0.43 h -1.76 a 0.46,0.46 0 0 0 -0.45,0.32 l -0.69,2.37 a 0.43,0.43 0 0 0 0.45,0.53 z"
         style="fill:#263238"
         id="path20" />
      <path
         d="m 240.67,277.55 h 2.45 a 0.45,0.45 0 0 0 0.47,-0.42 v -2.37 a 0.45,0.45 0 0 0 -0.47,-0.43 h -1.76 a 0.46,0.46 0 0 0 -0.45,0.32 l -0.7,2.37 a 0.44,0.44 0 0 0 0.46,0.53 z"
         style="fill:#263238"
         id="path21" />
      <path
         d="m 237.28,277.55 h 2.45 a 0.45,0.45 0 0 0 0.47,-0.42 v -2.37 a 0.45,0.45 0 0 0 -0.47,-0.43 H 238 a 0.46,0.46 0 0 0 -0.45,0.32 l -0.7,2.37 a 0.44,0.44 0 0 0 0.43,0.53 z"
         style="fill:#263238"
         id="path22" />
      <path
         d="m 233.89,277.55 h 2.45 a 0.45,0.45 0 0 0 0.47,-0.42 v -2.37 a 0.45,0.45 0 0 0 -0.47,-0.43 h -1.76 a 0.46,0.46 0 0 0 -0.45,0.32 l -0.7,2.37 a 0.44,0.44 0 0 0 0.46,0.53 z"
         style="fill:#263238"
         id="path23" />
      <path
         d="M 230.49,277.55 H 233 a 0.45,0.45 0 0 0 0.47,-0.42 v -2.37 A 0.45,0.45 0 0 0 233,274.33 h -1.76 a 0.47,0.47 0 0 0 -0.46,0.32 L 230,277 a 0.43,0.43 0 0 0 0.49,0.55 z"
         style="fill:#263238"
         id="path24" />
      <path
         d="m 227.1,277.55 h 2.46 a 0.45,0.45 0 0 0 0.47,-0.42 v -2.37 a 0.45,0.45 0 0 0 -0.47,-0.43 h -1.76 a 0.47,0.47 0 0 0 -0.46,0.32 l -0.69,2.37 a 0.43,0.43 0 0 0 0.45,0.53 z"
         style="fill:#263238"
         id="path25" />
      <path
         d="m 223.71,277.55 h 2.46 a 0.45,0.45 0 0 0 0.47,-0.42 v -2.37 a 0.45,0.45 0 0 0 -0.47,-0.43 h -1.76 a 0.47,0.47 0 0 0 -0.46,0.32 l -0.69,2.37 a 0.43,0.43 0 0 0 0.45,0.53 z"
         style="fill:#263238"
         id="path26" />
      <path
         d="m 220.32,277.55 h 2.46 a 0.45,0.45 0 0 0 0.46,-0.42 v -2.37 a 0.45,0.45 0 0 0 -0.46,-0.43 H 221 a 0.47,0.47 0 0 0 -0.45,0.32 l -0.69,2.37 a 0.43,0.43 0 0 0 0.46,0.53 z"
         style="fill:#263238"
         id="path27" />
      <path
         d="m 216.93,277.55 h 2.46 a 0.45,0.45 0 0 0 0.46,-0.42 v -2.37 a 0.45,0.45 0 0 0 -0.46,-0.43 h -1.77 a 0.47,0.47 0 0 0 -0.45,0.32 l -0.69,2.37 a 0.43,0.43 0 0 0 0.45,0.53 z"
         style="fill:#263238"
         id="path28" />
      <path
         d="M 213.54,277.55 H 216 a 0.45,0.45 0 0 0 0.47,-0.42 v -2.37 A 0.45,0.45 0 0 0 216,274.33 h -1.76 a 0.46,0.46 0 0 0 -0.45,0.32 l -0.69,2.37 a 0.43,0.43 0 0 0 0.44,0.53 z"
         style="fill:#263238"
         id="path29" />
      <path
         d="m 211.07,277.81 a 2,2 0 0 0 2,1.86 h 50.77 a 2,2 0 0 0 2.05,-1.86 1.76,1.76 0 0 0 -0.6,-1.32 2.11,2.11 0 0 0 -1.4,-0.54 h -50.78 a 2,2 0 0 0 -0.56,0.07 1.9,1.9 0 0 0 -1.48,1.79 z"
         style="fill:#263238"
         id="path30" />
      <path
         d="m 211.07,277.81 a 2,2 0 0 0 2,1.86 h 50.77 a 2,2 0 0 0 2.05,-1.86 1.76,1.76 0 0 0 -0.6,-1.32 2.11,2.11 0 0 0 -1.4,-0.54 h -50.78 a 2,2 0 0 0 -0.56,0.07 1.9,1.9 0 0 0 -1.48,1.79 z"
         style="opacity:0.2;fill:#ffffff"
         id="path31" />
      <path
         d="m 211.07,277.81 a 2,2 0 0 0 2,1.86 h 17.23 a 1.89,1.89 0 0 0 1.42,-1.78 1.76,1.76 0 0 0 0,-0.33 1.84,1.84 0 0 0 -0.57,-1 2.32,2.32 0 0 0 -0.44,-0.31 l -0.24,-0.11 a 2.24,2.24 0 0 0 -0.78,-0.13 h -17.14 a 1.9,1.9 0 0 0 -1.48,1.8 z"
         style="fill:#263238"
         id="path32" />
      <path
         d="m 196.46,194.65 h 5.19 l 5.83,63.27 h -5.19 a 1.88,1.88 0 0 1 -1.72,-1.79 l -5.5,-59.69 a 1.51,1.51 0 0 1 1.39,-1.79 z"
         style="fill:#ff8b1a"
         id="path33" />
      <path
         d="m 196.46,194.65 h 5.19 l 5.83,63.27 h -5.19 a 1.88,1.88 0 0 1 -1.72,-1.79 l -5.5,-59.69 a 1.51,1.51 0 0 1 1.39,-1.79 z"
         style="opacity:0.3"
         id="path34" />
      <path
         d="m 204.48,257.92 h 77.76 a 1.51,1.51 0 0 0 1.39,-1.79 l -5.5,-59.69 a 1.88,1.88 0 0 0 -1.72,-1.79 h -77.76 a 1.51,1.51 0 0 0 -1.39,1.79 l 5.5,59.69 a 1.88,1.88 0 0 0 1.72,1.79 z"
         style="fill:#ff8b1a"
         id="path35" />
      <polygon
         points="206.83,245.23 277.45,245.23 273.53,200.46 202.91,200.46 "
         style="fill:#ff8b1a"
         id="polygon35" />
      <path
         d="m 207.8,248.73 h 69.59 a 3.23,3.23 0 0 0 3.27,-3.57 l -3.9,-44.49 a 4,4 0 0 0 -3.88,-3.58 h -69.6 a 3.23,3.23 0 0 0 -3.26,3.58 l 3.89,44.49 a 4,4 0 0 0 3.89,3.57 z"
         style="fill:#263238"
         id="path36" />
      <polygon
         points="206.83,245.23 277.45,245.23 273.53,200.46 202.91,200.46 "
         style="fill:#ff8b1a"
         id="polygon36" />
      <polygon
         points="206.83,245.23 277.45,245.23 273.53,200.46 202.91,200.46 "
         style="opacity:0.4;fill:#ffffff"
         id="polygon37" />
      <path
         d="m 230,202.91 3.41,39 h -25.93 l -3.42,-39 H 230 m 0.92,-1 H 203 l 0.1,1.09 3.41,39 0.08,0.92 h 27.89 l -0.09,-1.09 -3.41,-39 -0.08,-0.91 z"
         style="fill:#ff8b1a"
         id="path37" />
      <polygon
         points="233.36,241.91 207.47,241.91 204.06,202.91 229.95,202.91 "
         style="fill:#ffffff"
         id="polygon38" />
      <polygon
         points="215.09,214.83 207.21,214.83 206.35,204.93 214.22,204.93 "
         style="fill:#ff8b1a"
         id="polygon39" />
      <g
         style="opacity:0.2"
         id="g39">
        <path
           d="m 207.28,204.93 h -0.93 l 0.67,7.68 h 0.25 v -0.56 h 0.67 v 0.56 h 0.26 l -0.67,-7.68 z m -0.32,4.12 -0.09,-1.12 h 0.67 l 0.1,1.12 z m 0.7,0.25 0.1,1.12 h -0.68 L 207,209.3 Z m -0.82,-1.62 -0.09,-1.12 h 0.67 l 0.1,1.12 z m -0.12,-1.38 -0.09,-1.11 h 0.67 l 0.1,1.11 z m 0.48,5.49 -0.09,-1.11 h 0.67 l 0.1,1.11 z"
           id="path39" />
      </g>
      <g
         style="opacity:0.2"
         id="g40">
        <path
           d="m 214,204.93 h -1 l 0.67,7.68 H 214 l -0.05,-0.56 h 0.68 v 0.56 h 0.26 l -0.67,-7.68 z m -0.31,4.12 -0.1,-1.12 h 0.68 l 0.09,1.12 z m 0.7,0.25 0.09,1.12 h -0.67 l -0.1,-1.12 z m -0.82,-1.62 -0.1,-1.12 h 0.68 l 0.09,1.12 z m -0.12,-1.38 -0.1,-1.11 H 214 l 0.09,1.11 z m 0.48,5.49 -0.1,-1.11 h 0.68 l 0.09,1.11 z"
           id="path40" />
      </g>
      <polygon
         points="213.7,212.6 208.21,212.61 207.54,204.93 213.03,204.93 "
         style="opacity:0.2;fill:#ffffff"
         id="polygon40" />
      <path
         d="m 212.9,208.87 a 2,2 0 0 1 -2.07,2.27 2.53,2.53 0 0 1 -2.48,-2.27 2.05,2.05 0 0 1 2.08,-2.27 2.53,2.53 0 0 1 2.47,2.27 z"
         style="opacity:0.2;fill:#ffffff"
         id="path41" />
      <polygon
         points="210.14,210.31 209.91,207.68 211.91,209 "
         style="fill:#ffffff"
         id="polygon41" />
      <polygon
         points="216.17,227.23 208.3,227.23 207.43,217.34 215.3,217.34 "
         style="fill:#ff8b1a"
         id="polygon42" />
      <g
         style="opacity:0.2"
         id="g42">
        <path
           d="m 208.37,217.33 h -0.94 l 0.67,7.68 h 0.26 l -0.05,-0.56 H 209 v 0.56 h 0.25 l -0.67,-7.68 z m -0.32,4.12 -0.1,-1.11 h 0.68 l 0.1,1.11 z m 0.7,0.26 0.1,1.12 h -0.68 l -0.1,-1.12 z m -0.82,-1.63 -0.1,-1.12 h 0.68 l 0.1,1.12 z m -0.12,-1.37 -0.1,-1.12 h 0.68 l 0.1,1.12 z m 0.48,5.49 -0.1,-1.12 h 0.68 l 0.1,1.12 z"
           id="path42" />
      </g>
      <g
         style="opacity:0.2"
         id="g43">
        <path
           d="m 215.05,217.33 h -0.94 l 0.68,7.68 H 215 v -0.56 h 0.68 l 0.05,0.56 H 216 l -0.68,-7.68 z m -0.32,4.12 -0.1,-1.11 h 0.68 l 0.1,1.11 z m 0.7,0.26 0.1,1.12 h -0.68 l -0.1,-1.12 z m -0.82,-1.63 -0.1,-1.12 h 0.68 l 0.1,1.12 z m -0.12,-1.37 -0.1,-1.12 h 0.68 l 0.1,1.12 z m 0.48,5.49 -0.1,-1.12 h 0.68 l 0.1,1.12 z"
           id="path43" />
      </g>
      <polygon
         points="214.78,225 209.29,225.01 208.62,217.34 214.12,217.34 "
         style="opacity:0.2;fill:#ffffff"
         id="polygon43" />
      <path
         d="m 214,221.27 a 2.05,2.05 0 0 1 -2.08,2.28 2.54,2.54 0 0 1 -2.47,-2.28 2,2 0 0 1 2.07,-2.27 2.54,2.54 0 0 1 2.48,2.27 z"
         style="opacity:0.2;fill:#ffffff"
         id="path44" />
      <polygon
         points="211.23,222.72 211,220.09 213,221.4 "
         style="fill:#ffffff"
         id="polygon44" />
      <polygon
         points="225.41,214.83 217.54,214.83 216.67,204.93 224.55,204.93 "
         style="fill:#ff8b1a"
         id="polygon45" />
      <g
         style="opacity:0.2"
         id="g45">
        <path
           d="m 217.61,204.93 h -0.94 l 0.68,7.68 h 0.25 v -0.56 h 0.68 l 0.05,0.56 h 0.26 l -0.68,-7.68 z m -0.32,4.12 -0.1,-1.12 h 0.68 l 0.1,1.12 z m 0.7,0.26 0.1,1.11 h -0.68 l -0.1,-1.11 z m -0.82,-1.63 -0.1,-1.12 h 0.68 l 0.1,1.12 z m -0.12,-1.38 -0.1,-1.11 h 0.68 l 0.1,1.11 z m 0.48,5.5 -0.1,-1.12 h 0.68 l 0.1,1.12 z"
           id="path45" />
      </g>
      <g
         style="opacity:0.2"
         id="g46">
        <path
           d="m 224.29,204.93 h -0.93 l 0.67,7.68 h 0.25 v -0.56 h 0.67 l 0.05,0.56 h 0.26 l -0.67,-7.68 z m -0.32,4.12 -0.09,-1.12 h 0.67 l 0.1,1.12 z m 0.7,0.26 0.1,1.11 h -0.68 L 224,209.31 Z m -0.82,-1.63 -0.09,-1.12 h 0.67 l 0.1,1.12 z m -0.12,-1.38 -0.09,-1.11 h 0.67 l 0.1,1.11 z m 0.48,5.5 -0.09,-1.12 h 0.67 l 0.1,1.12 z"
           id="path46" />
      </g>
      <polygon
         points="224.03,212.6 218.53,212.61 217.86,204.93 223.36,204.93 "
         style="opacity:0.2;fill:#ffffff"
         id="polygon46" />
      <path
         d="m 223.23,208.87 a 2,2 0 0 1 -2.08,2.27 2.53,2.53 0 0 1 -2.47,-2.27 2.05,2.05 0 0 1 2.08,-2.27 2.53,2.53 0 0 1 2.47,2.27 z"
         style="opacity:0.2;fill:#ffffff"
         id="path47" />
      <polygon
         points="220.47,210.31 220.24,207.68 222.24,209 "
         style="fill:#ffffff"
         id="polygon47" />
      <polygon
         points="217.26,239.64 209.38,239.64 208.52,229.74 216.39,229.74 "
         style="fill:#ff8b1a"
         id="polygon48" />
      <g
         style="opacity:0.2"
         id="g48">
        <path
           d="m 209.45,229.74 h -0.93 l 0.67,7.68 h 0.25 v -0.56 h 0.67 l 0.05,0.56 h 0.26 l -0.67,-7.68 z m -0.32,4.12 -0.09,-1.12 h 0.67 l 0.1,1.12 z m 0.7,0.25 0.1,1.12 h -0.68 l -0.09,-1.12 z m -0.82,-1.63 -0.09,-1.11 h 0.67 l 0.1,1.11 z m -0.12,-1.37 -0.09,-1.11 h 0.67 l 0.1,1.12 z m 0.48,5.49 -0.09,-1.12 H 210 l 0.1,1.12 z"
           id="path48" />
      </g>
      <g
         style="opacity:0.2"
         id="g49">
        <path
           d="m 216.13,229.74 h -0.93 l 0.67,7.68 h 0.26 v -0.56 h 0.68 l 0.05,0.56 h 0.25 l -0.67,-7.68 z m -0.31,4.12 -0.1,-1.12 h 0.68 l 0.09,1.12 z m 0.7,0.25 0.09,1.12 h -0.67 l -0.1,-1.12 z m -0.82,-1.63 -0.1,-1.11 h 0.68 l 0.09,1.11 z m -0.12,-1.37 -0.1,-1.12 h 0.68 l 0.09,1.12 z m 0.48,5.49 -0.1,-1.12 h 0.68 l 0.09,1.12 z"
           id="path49" />
      </g>
      <polygon
         points="215.87,237.41 210.38,237.42 209.71,229.74 215.2,229.74 "
         style="opacity:0.2;fill:#ffffff"
         id="polygon49" />
      <path
         d="M 215.07,233.68 A 2,2 0 0 1 213,236 a 2.54,2.54 0 0 1 -2.48,-2.27 2.05,2.05 0 0 1 2.08,-2.27 2.53,2.53 0 0 1 2.47,2.22 z"
         style="opacity:0.2;fill:#ffffff"
         id="path50" />
      <polygon
         points="212.31,235.12 212.08,232.49 214.09,233.8 "
         style="fill:#ffffff"
         id="polygon50" />
      <polygon
         points="227.15,197.12 213.35,248.71 218,248.71 231.64,197.12 "
         style="opacity:0.1;isolation:isolate;fill:#ffffff"
         id="polygon51" />
      <polygon
         points="234.31,197.12 220.52,248.71 229.72,248.71 243.36,197.12 "
         style="opacity:0.1;isolation:isolate;fill:#ffffff"
         id="polygon52" />
      <polygon
         points="275.73,235.59 230.86,235.59 228.54,209.09 273.41,209.09 "
         style="fill:#263238"
         id="polygon53" />
      <path
         d="m 257.42,219.42 a 5,5 0 0 1 -5.09,5.58 6.22,6.22 0 0 1 -6.07,-5.58 5,5 0 0 1 5.09,-5.59 6.21,6.21 0 0 1 6.07,5.59 z"
         style="fill:#ffffff"
         id="path53" />
      <polygon
         points="250.49,222.31 254.9,219.62 250.02,216.94 "
         style="fill:#263238"
         id="polygon54" />
      <polygon
         points="274.68,230.39 231,230.39 230.92,229.53 274.6,229.53 "
         style="fill:#ffffff"
         id="polygon55" />
      <polygon
         points="255.48,230.39 231,230.39 230.92,229.53 255.41,229.53 "
         style="fill:#ff8b1a"
         id="polygon56" />
      <polygon
         points="231.75,233.58 231.33,233.58 231.18,231.92 231.6,231.92 "
         style="fill:#ffffff"
         id="polygon57" />
      <polygon
         points="232.48,233.58 232.06,233.58 231.92,231.92 232.34,231.92 "
         style="fill:#ffffff"
         id="polygon58" />
      <polygon
         points="236.27,233.58 234.61,233.58 234.47,231.92 236.13,231.92 "
         style="fill:#ffffff"
         id="polygon59" />
      <polygon
         points="239.97,233.58 238.47,232.75 239.83,231.92 "
         style="fill:#ffffff"
         id="polygon60" />
      <polygon
         points="238.54,233.58 238.12,233.58 237.97,231.92 238.39,231.92 "
         style="fill:#ffffff"
         id="polygon61" />
      <polygon
         points="241.75,233.58 243.11,232.75 241.61,231.92 "
         style="fill:#ffffff"
         id="polygon62" />
      <polygon
         points="243.19,233.58 243.61,233.58 243.46,231.92 243.04,231.92 "
         style="fill:#ffffff"
         id="polygon63" />
      <polygon
         points="247.11,232.89 246.19,231.89 245.45,232.89 "
         style="fill:#ffffff"
         id="polygon64" />
      <polygon
         points="247.2,233.61 247.17,233.19 245.45,233.19 245.49,233.61 "
         style="fill:#ffffff"
         id="polygon65" />
      <path
         d="m 275,233.71 h -3.2 l -0.17,-2 h 3.19 z m -2.95,-0.27 h 2.65 l -0.12,-1.41 h -2.65 z"
         style="fill:#ffffff"
         id="path65" />
      <polygon
         points="268.74,233.14 269.01,233.12 269.04,233.44 269.44,233.44 269.44,233.71 268.79,233.71 "
         style="fill:#ffffff"
         id="polygon66" />
      <polygon
         points="270.22,233.44 270.58,233.44 270.55,233.14 270.82,233.12 270.87,233.71 270.22,233.71 "
         style="fill:#ffffff"
         id="polygon67" />
      <polygon
         points="270.08,232.03 270.08,231.76 270.7,231.76 270.75,232.36 270.49,232.38 270.45,232.03 "
         style="fill:#ffffff"
         id="polygon68" />
      <polygon
         points="269.29,231.76 269.29,232.03 268.92,232.03 268.95,232.36 268.68,232.38 268.62,231.76 "
         style="fill:#ffffff"
         id="polygon69" />
      <polygon
         points="236.92,209.09 241.99,209.09 235.98,235.59 230.85,235.59 "
         style="opacity:0.1;fill:#ffffff;stroke:#263238;stroke-linecap:round;stroke-linejoin:round"
         id="polygon70" />
      <polygon
         points="262.14,235.59 268.21,209.09 273.29,209.09 267.28,235.59 "
         style="opacity:0.1;fill:#ffffff;stroke:#263238;stroke-linecap:round;stroke-linejoin:round"
         id="polygon71" />
      <polyline
         points="273.69 212.31 269.75 229.53 269.55 230.39 269.21 231.89 268.89 233.27 268.36 235.59 269.68 235.59 270.52 231.89 270.86 230.39 271.05 229.53 274.04 216.36"
         style="opacity:0.1;fill:#ffffff;stroke:#263238;stroke-linecap:round;stroke-linejoin:round"
         id="polyline71" />
      <polygon
         points="273.41,209.09 228.54,209.09 228.33,206.69 273.2,206.69 "
         style="fill:#ff8b1a"
         id="polygon72" />
      <path
         d="m 231.72,207.91 a 0.67,0.67 0 0 1 -0.68,0.74 0.81,0.81 0 0 1 -0.8,-0.74 0.67,0.67 0 0 1 0.67,-0.74 0.83,0.83 0 0 1 0.81,0.74 z"
         style="fill:#ffffff"
         id="path72" />
      <path
         d="m 233.94,207.91 a 0.67,0.67 0 0 1 -0.68,0.74 0.81,0.81 0 0 1 -0.8,-0.74 0.66,0.66 0 0 1 0.67,-0.74 0.83,0.83 0 0 1 0.81,0.74 z"
         style="fill:#ffffff"
         id="path73" />
      <path
         d="m 236.15,207.91 a 0.66,0.66 0 0 1 -0.67,0.74 0.83,0.83 0 0 1 -0.81,-0.74 0.67,0.67 0 0 1 0.68,-0.74 0.81,0.81 0 0 1 0.8,0.74 z"
         style="fill:#ffffff"
         id="path74" />
      <polygon
         points="189.12,279.7 163.47,279.7 156.78,203.11 182.42,203.11 "
         style="fill:#ff8b1a"
         id="polygon74" />
      <polygon
         points="189.12,279.7 163.47,279.7 156.78,203.11 182.42,203.11 "
         style="opacity:0.3"
         id="polygon75" />
      <polygon
         points="191.64,279.7 165.99,279.7 159.29,203.11 184.94,203.11 "
         style="fill:#ff8b1a"
         id="polygon76" />
      <path
         d="m 172.94,209 a 8.8,8.8 0 0 0 -8.91,9.76 10.88,10.88 0 0 0 10.62,9.76 8.8,8.8 0 0 0 8.9,-9.76 10.86,10.86 0 0 0 -10.61,-9.76 z"
         style="opacity:0.5"
         id="path76" />
      <path
         d="m 171.15,219.42 a 3.08,3.08 0 0 0 3,2.78 2.5,2.5 0 0 0 2.53,-2.78 3.1,3.1 0 0 0 -3,-2.77 2.5,2.5 0 0 0 -2.53,2.77 z"
         style="fill:#ff8b1a"
         id="path77" />
      <path
         d="m 170.77,237.8 a 5.3,5.3 0 0 0 5.18,4.76 4.29,4.29 0 0 0 4.34,-4.76 5.31,5.31 0 0 0 -5.18,-4.77 v 0 a 4.3,4.3 0 0 0 -4.34,4.77 z"
         style="opacity:0.5"
         id="path78" />
      <path
         d="m 172.46,250 a 4.57,4.57 0 0 0 4.47,4.12 3.71,3.71 0 0 0 3.76,-4.12 4.59,4.59 0 0 0 -4.48,-4.12 v 0 a 3.71,3.71 0 0 0 -3.75,4.12 z"
         style="opacity:0.5"
         id="path79" />
      <path
         d="m 174.06,261.22 a 3.87,3.87 0 0 0 3.78,3.47 3.12,3.12 0 0 0 3.16,-3.47 3.85,3.85 0 0 0 -3.77,-3.47 v 0 a 3.13,3.13 0 0 0 -3.17,3.47 z"
         style="opacity:0.5"
         id="path80" />
      <path
         d="m 175.49,270.52 a 3.15,3.15 0 0 0 3.08,2.82 2.54,2.54 0 0 0 2.58,-2.82 3.14,3.14 0 0 0 -3.08,-2.83 v 0 a 2.55,2.55 0 0 0 -2.58,2.83 z"
         style="opacity:0.5"
         id="path81" />
      <polygon
         points="319.67,279.6 294.02,279.6 287.32,203.01 312.97,203.01 "
         style="fill:#ff8b1a"
         id="polygon81" />
      <polygon
         points="319.67,279.6 294.02,279.6 287.32,203.01 312.97,203.01 "
         style="opacity:0.3"
         id="polygon82" />
      <polygon
         points="322.19,279.6 296.54,279.6 289.84,203.01 315.49,203.01 "
         style="fill:#ff8b1a"
         id="polygon83" />
      <path
         d="m 303.49,208.9 a 8.8,8.8 0 0 0 -8.91,9.76 10.88,10.88 0 0 0 10.62,9.76 8.8,8.8 0 0 0 8.9,-9.76 10.86,10.86 0 0 0 -10.61,-9.76 z"
         style="opacity:0.5"
         id="path83" />
      <path
         d="m 301.7,219.33 a 3.08,3.08 0 0 0 3,2.77 2.5,2.5 0 0 0 2.53,-2.77 3.1,3.1 0 0 0 -3,-2.78 2.5,2.5 0 0 0 -2.53,2.78 z"
         style="fill:#ff8b1a"
         id="path84" />
      <path
         d="m 301.32,237.7 a 5.3,5.3 0 0 0 5.18,4.76 4.29,4.29 0 0 0 4.34,-4.76 5.3,5.3 0 0 0 -5.18,-4.76 v 0 a 4.29,4.29 0 0 0 -4.34,4.76 z"
         style="opacity:0.5"
         id="path85" />
      <path
         d="m 303,249.89 a 4.57,4.57 0 0 0 4.47,4.12 3.71,3.71 0 0 0 3.76,-4.12 4.58,4.58 0 0 0 -4.48,-4.11 v 0 a 3.7,3.7 0 0 0 -3.75,4.11 z"
         style="opacity:0.5"
         id="path86" />
      <path
         d="m 304.61,261.12 a 3.87,3.87 0 0 0 3.78,3.47 3.12,3.12 0 0 0 3.16,-3.47 3.85,3.85 0 0 0 -3.77,-3.47 v 0 a 3.13,3.13 0 0 0 -3.17,3.47 z"
         style="opacity:0.5"
         id="path87" />
      <path
         d="m 306,270.42 a 3.16,3.16 0 0 0 3.08,2.83 2.55,2.55 0 0 0 2.58,-2.83 3.15,3.15 0 0 0 -3.08,-2.83 v 0 a 2.56,2.56 0 0 0 -2.58,2.83 z"
         style="opacity:0.5"
         id="path88" />
    </g>
    <g
       id="freepik--video-files--inject-2"
       transform="translate(0,2.66)">
      <path
         d="m 115.28,180.29 -4.67,-77.4 c 0,-0.1 0,-0.2 0,-0.3 a 3.72,3.72 0 0 1 3.75,-3.68 l 206.19,-0.47 a 4.3,4.3 0 0 1 4.23,4 l 4.67,77.4 c 0,0.1 0,0.21 0,0.31 a 3.71,3.71 0 0 1 -3.75,3.67 l -206.2,0.47 a 4.3,4.3 0 0 1 -4.22,-4 z"
         style="fill:#ffffff"
         id="path89" />
      <polygon
         points="191.84,99.3 135.24,99.3 135.2,98.87 191.79,98.73 "
         style="fill:#ffffff"
         id="polygon89" />
      <path
         d="m 329.45,180.13 a 3.72,3.72 0 0 1 -3.75,3.67 l -206.2,0.47 a 4.29,4.29 0 0 1 -4.22,-4 l -4.67,-77.4 c 0,-0.1 0,-0.21 0,-0.31 a 3.73,3.73 0 0 1 3.75,-3.68 h 15.85 l -0.32,-3.69 a 5.48,5.48 0 0 1 5.55,-6.08 h 44.43 a 6.76,6.76 0 0 1 6.61,6.08 l 0.32,3.55 133.76,-0.3 a 4.32,4.32 0 0 1 4.22,4 l 4.67,77.39 c 0,0.1 0,0.17 0,0.3 z"
         style="fill:#ffffff"
         id="path90" />
      <path
         d="m 179.86,89.1 a 6.76,6.76 0 0 1 6.61,6.08 l 0.32,3.55 133.76,-0.3 a 4.32,4.32 0 0 1 4.22,4 l 4.67,77.39 c 0,0.12 0,0.22 0,0.32 a 3.71,3.71 0 0 1 -3.71,3.67 v 0 l -206.2,0.47 a 4.29,4.29 0 0 1 -4.22,-4 l -4.67,-77.4 c 0,-0.1 0,-0.21 0,-0.31 a 3.73,3.73 0 0 1 3.73,-3.68 v 0 h 15.85 L 129.9,95.2 a 5.48,5.48 0 0 1 5.55,-6.08 h 44.43 m 0,-3.06 h -44.45 a 8.54,8.54 0 0 0 -8.6,9.41 v 0.37 h -12.52 a 6.8,6.8 0 0 0 -6.8,6.71 v 0.52 l 4.67,77.41 a 7.33,7.33 0 0 0 7.24,6.85 l 206.25,-0.47 a 6.79,6.79 0 0 0 6.8,-6.7 c 0,-0.2 0,-0.38 0,-0.57 l -4.67,-77.36 a 7.35,7.35 0 0 0 -7.23,-6.86 h -0.06 l -131,0.29 -0.07,-0.75 A 9.76,9.76 0 0 0 179.86,86 Z"
         style="fill:#ff8b1a"
         id="path91" />
      <rect
         x="121.72"
         y="81.769997"
         width="45.799999"
         height="57.59"
         style="fill:#ff8b1a"
         id="rect91" />
      <g
         style="opacity:0.2"
         id="g92">
        <path
           d="m 127.16,81.77 h -5.44 v 44.67 h 1.49 v -3.25 h 4 v 3.25 h 1.49 V 81.77 Z m -4,24 v -6.5 h 4 v 6.5 z m 4,1.48 v 6.5 h -4 v -6.5 z m -4,-9.47 v -6.5 h 4 v 6.5 z m 0,-8 v -6.5 h 4 v 6.5 z m 0,32 v -6.5 h 4 v 6.5 z"
           id="path92" />
      </g>
      <g
         style="opacity:0.2"
         id="g93">
        <path
           d="m 166,81.77 h -5.43 v 44.67 h 1.49 v -3.25 H 166 v 3.25 h 1.49 V 81.77 Z m -3.94,24 v -6.5 H 166 v 6.5 z m 3.94,1.48 v 6.5 h -3.9 v -6.5 z m -3.94,-9.47 v -6.5 H 166 v 6.5 z m 0,-8 v -6.5 H 166 v 6.5 z m 0,32 v -6.5 H 166 v 6.5 z"
           id="path93" />
      </g>
      <polygon
         points="160.61,126.38 128.65,126.44 128.65,81.77 160.61,81.77 "
         style="opacity:0.2;fill:#ffffff"
         id="polygon93" />
      <path
         d="m 157.85,104.69 a 13.23,13.23 0 1 1 -13.22,-13.22 13.22,13.22 0 0 1 13.22,13.22 z"
         style="opacity:0.2;fill:#ffffff"
         id="path94" />
      <polygon
         points="141.07,113.07 141.07,97.78 152.05,105.42 "
         style="fill:#ffffff"
         id="polygon94" />
      <polygon
         points="152.05,105.42 151.21,106 141.06,98.94 141.06,97.77 "
         style="fill:#ff8b1a"
         id="polygon95" />
      <path
         d="m 139.24,136.86 v -4.57 l -2.24,3.77 h -0.8 l -2.2,-3.67 v 4.47 h -1.65 v -7.62 h 1.45 l 2.86,4.74 2.8,-4.74 h 1.45 v 7.62 z"
         style="fill:#ffffff"
         id="path95" />
      <path
         d="m 145.47,133.87 -1,1.07 v 1.92 h -1.77 v -7.62 h 1.75 v 3.56 l 3.37,-3.56 h 2 l -3.16,3.4 3.35,4.22 h -2.06 z"
         style="fill:#ffffff"
         id="path96" />
      <path
         d="m 157.64,129.24 -3.3,7.62 h -1.74 l -3.29,-7.62 h 1.9 l 2.32,5.45 2.35,-5.45 z"
         style="fill:#ffffff"
         id="path97" />
      <rect
         x="171.64999"
         y="94.599998"
         width="45.799999"
         height="57.59"
         style="fill:#ff8b1a"
         id="rect97" />
      <g
         style="opacity:0.2"
         id="g98">
        <path
           d="m 177.09,94.6 h -5.44 v 44.67 h 1.49 V 136 h 4 v 3.25 h 1.49 V 94.6 Z m -4,24 v -6.5 h 4 v 6.5 z m 4,1.49 v 6.5 h -4 v -6.5 z m -4,-9.48 v -6.5 h 4 v 6.5 z m 0,-8 v -6.5 h 4 v 6.5 z m 0,31.94 V 128 h 4 v 6.5 z"
           id="path98" />
      </g>
      <g
         style="opacity:0.2"
         id="g99">
        <path
           d="m 216,94.6 h -5.43 v 44.67 H 212 V 136 h 4 v 3.25 h 1.49 V 94.6 Z m -3.94,24 v -6.5 H 216 v 6.5 z m 3.94,1.49 v 6.5 h -4 v -6.5 z m -4,-9.52 v -6.5 h 4 v 6.5 z m 0,-8 v -6.5 h 4 v 6.5 z m 0,31.94 V 128 h 4 v 6.5 z"
           id="path99" />
      </g>
      <polygon
         points="210.54,139.22 178.58,139.27 178.58,94.6 210.54,94.6 "
         style="opacity:0.2;fill:#ffffff"
         id="polygon99" />
      <path
         d="m 207.78,117.53 a 13.23,13.23 0 1 1 -13.22,-13.23 13.22,13.22 0 0 1 13.22,13.23 z"
         style="opacity:0.2;fill:#ffffff"
         id="path100" />
      <polygon
         points="191,125.9 191,110.61 201.98,118.26 "
         style="fill:#ffffff"
         id="polygon100" />
      <polygon
         points="201.98,118.25 201.15,118.83 191,111.77 191,110.61 "
         style="fill:#ff8b1a"
         id="polygon101" />
      <path
         d="m 189.93,148.07 h -3.54 l -0.67,1.63 h -1.81 l 3.4,-7.62 h 1.74 l 3.41,7.62 h -1.85 z m -0.55,-1.34 -1.21,-2.92 -1.17,2.92 z"
         style="fill:#ffffff"
         id="path101" />
      <path
         d="m 200.16,142.08 -3.3,7.62 h -1.74 l -3.29,-7.62 h 1.91 l 2.31,5.44 2.36,-5.44 z"
         style="fill:#ffffff"
         id="path102" />
      <path
         d="m 200.79,142.08 h 1.76 v 7.62 h -1.76 z"
         style="fill:#ffffff"
         id="path103" />
      <rect
         x="221.37"
         y="72.919998"
         width="45.799999"
         height="57.59"
         style="fill:#ff8b1a"
         id="rect103" />
      <g
         style="opacity:0.2"
         id="g104">
        <path
           d="m 226.8,72.92 h -5.43 v 44.67 h 1.49 v -3.25 h 3.94 v 3.25 h 1.49 V 72.92 Z m -3.94,24 v -6.5 h 3.94 v 6.5 z m 3.94,1.48 v 6.5 h -3.94 v -6.5 z m -3.94,-9.47 v -6.5 h 3.94 v 6.5 z m 0,-8 V 74.4 h 3.94 v 6.5 z m 0,31.95 v -6.5 h 3.94 v 6.5 z"
           id="path104" />
      </g>
      <g
         style="opacity:0.2"
         id="g105">
        <path
           d="m 265.68,72.92 h -5.43 v 44.67 h 1.49 v -3.25 h 3.94 v 3.25 h 1.49 V 72.92 Z m -3.94,24 v -6.5 h 3.94 v 6.5 z m 3.94,1.48 v 6.5 h -3.94 v -6.5 z m -3.94,-9.47 v -6.5 h 3.94 v 6.5 z m 0,-8 V 74.4 h 3.94 v 6.5 z m 0,31.95 v -6.5 h 3.94 v 6.5 z"
           id="path105" />
      </g>
      <polygon
         points="260.25,117.53 228.29,117.59 228.29,72.92 260.25,72.92 "
         style="opacity:0.2;fill:#ffffff"
         id="polygon105" />
      <path
         d="M 257.49,95.84 A 13.22,13.22 0 1 1 244.27,82.62 13.22,13.22 0 0 1 257.49,95.84 Z"
         style="opacity:0.2;fill:#ffffff"
         id="path106" />
      <polygon
         points="240.71,104.22 240.71,88.93 251.7,96.57 "
         style="fill:#ffffff"
         id="polygon106" />
      <polygon
         points="251.7,96.57 250.86,97.15 240.71,90.09 240.71,88.93 "
         style="fill:#ff8b1a"
         id="polygon107" />
      <path
         d="m 238.88,128 v -4.58 l -2.24,3.77 h -0.79 l -2.24,-3.67 V 128 H 232 v -7.6 h 1.46 l 2.85,4.73 2.81,-4.73 h 1.45 v 7.62 z"
         style="fill:#ffffff"
         id="path107" />
      <path
         d="m 249,123.16 c 0,1.7 -1.28,2.75 -3.31,2.75 H 244.1 V 128 h -1.76 v -7.6 h 3.3 c 2.03,0 3.36,1.05 3.36,2.76 z m -1.79,0 c 0,-0.84 -0.54,-1.33 -1.62,-1.33 h -1.49 v 2.65 h 1.44 c 1.08,0 1.62,-0.48 1.62,-1.32 z"
         style="fill:#ffffff"
         id="path108" />
      <path
         d="m 256.47,126.42 h -1.24 V 128 h -1.72 v -1.6 h -4.1 v -1.19 L 253,120.4 h 1.85 l -3.33,4.6 h 2 v -1.43 h 1.66 V 125 h 1.24 z"
         style="fill:#ffffff"
         id="path109" />
      <rect
         x="270.95999"
         y="82.809998"
         width="45.799999"
         height="57.59"
         style="fill:#ff8b1a"
         id="rect109" />
      <g
         style="opacity:0.2"
         id="g110">
        <path
           d="M 276.4,82.81 H 271 v 44.67 h 1.49 v -3.24 h 3.95 v 3.24 h 1.49 V 82.81 Z m -3.95,24 v -6.5 h 3.95 v 6.5 z m 3.95,1.49 v 6.5 h -3.95 v -6.5 z m -3.95,-9.48 v -6.5 h 3.95 v 6.5 z m 0,-8 V 84.3 h 3.95 v 6.5 z m 0,32 v -6.5 h 3.95 v 6.5 z"
           id="path110" />
      </g>
      <g
         style="opacity:0.2"
         id="g111">
        <path
           d="m 315.28,82.81 h -5.43 v 44.67 h 1.49 v -3.24 h 3.94 v 3.24 h 1.49 V 82.81 Z m -3.94,24 v -6.5 h 3.94 v 6.5 z m 3.94,1.49 v 6.5 h -3.94 v -6.5 z m -3.94,-9.48 v -6.5 h 3.94 v 6.5 z m 0,-8 V 84.3 h 3.94 v 6.5 z m 0,32 v -6.5 h 3.94 v 6.5 z"
           id="path111" />
      </g>
      <polygon
         points="309.85,127.43 277.89,127.48 277.89,82.81 309.85,82.81 "
         style="opacity:0.2;fill:#ffffff"
         id="polygon111" />
      <circle
         cx="293.87"
         cy="105.74"
         r="13.22"
         style="opacity:0.2;fill:#ffffff"
         id="circle111" />
      <polygon
         points="290.31,114.11 290.31,98.82 301.29,106.47 "
         style="fill:#ffffff"
         id="polygon112" />
      <polygon
         points="301.3,106.47 300.46,107.05 290.32,99.99 290.32,98.83 "
         style="fill:#ff8b1a"
         id="polygon113" />
      <path
         d="m 288.48,137.91 v -4.57 l -2.24,3.77 h -0.8 l -2.23,-3.67 v 4.47 h -1.66 v -7.62 H 283 l 2.85,4.74 2.81,-4.74 h 1.45 v 7.62 z"
         style="fill:#ffffff"
         id="path113" />
      <path
         d="m 291.46,134.1 a 4.17,4.17 0 1 1 4.16,3.94 3.94,3.94 0 0 1 -4.16,-3.94 z m 6.55,0 a 2.39,2.39 0 1 0 -2.39,2.44 2.32,2.32 0 0 0 2.38,-2.44 z"
         style="fill:#ffffff"
         id="path114" />
      <path
         d="m 308.19,130.29 -3.3,7.62 h -1.74 l -3.28,-7.62 h 1.9 l 2.32,5.44 2.35,-5.44 z"
         style="fill:#ffffff"
         id="path115" />
      <path
         d="m 233.42,178.27 h -14.88 a 5.85,5.85 0 0 1 -5.7,-5.24 l -0.11,-1.33 a 4.73,4.73 0 0 1 4.78,-5.24 h 14.88 z"
         style="fill:#ff8b1a"
         id="path116" />
      <polygon
         points="242.45,177.33 233.9,173.09 233.69,170.69 241.5,166.46 "
         style="fill:#ff8b1a"
         id="polygon116" />
      <polygon
         points="243.58,177.33 242.45,177.33 241.5,166.46 242.63,166.46 "
         style="fill:#ff8b1a"
         id="polygon117" />
      <path
         d="m 222.35,161.39 a 3.71,3.71 0 0 1 -3.76,4.11 4.57,4.57 0 0 1 -4.47,-4.11 3.71,3.71 0 0 1 3.75,-4.12 4.58,4.58 0 0 1 4.48,4.12 z"
         style="fill:#ff8b1a"
         id="path117" />
      <path
         d="m 230.59,161.39 a 3.72,3.72 0 0 1 -3.76,4.11 4.58,4.58 0 0 1 -4.48,-4.11 3.71,3.71 0 0 1 3.76,-4.12 4.59,4.59 0 0 1 4.48,4.12 z"
         style="fill:#ff8b1a"
         id="path118" />
    </g>
    <g
       id="freepik--Character--inject-2">
      <g
         id="freepik--character--inject-2">
        <path
           d="m 301.74,203.57 a 22.26,22.26 0 0 1 -2.35,5.47 3.41,3.41 0 0 0 2.89,0.17 z"
           style="fill:#a02724"
           id="path119" />
        <path
           d="m 323.85,209.37 -4.75,5 -6.5,6.77 a 7.69,7.69 0 0 1 1.13,2.59 c 0.58,2 1.08,3.51 -3.32,5.49 a 2.66,2.66 0 0 0 -1.65,2.34 c 0,1.25 1,2.61 5.34,2.69 a 19.69,19.69 0 0 0 11.67,-3.89 c 1.66,-1.18 1.5,-2.25 0.46,-4 -3.06,-4.83 -2.98,-11.62 -2.38,-16.99 z"
           style="fill:#ff8b7b"
           id="path120" />
        <path
           d="m 300.2,203.24 c -0.06,0.67 0.18,1.24 0.53,1.26 0.35,0.02 0.67,-0.49 0.72,-1.16 0.05,-0.67 -0.18,-1.23 -0.53,-1.26 -0.35,-0.03 -0.67,0.49 -0.72,1.16 z"
           style="fill:#263238"
           id="path121" />
        <path
           d="m 300.79,199.5 a 4.48,4.48 0 0 1 4,1.56"
           style="fill:none;stroke:#263238;stroke-linecap:round;stroke-linejoin:round"
           id="path122" />
        <path
           d="m 301.69,212.3 a 12.12,12.12 0 0 0 7.1,8 11.07,11.07 0 0 0 3.67,0.83 10.35,10.35 0 0 0 8.21,-3.34 c 4.13,-4.39 3.86,-9.34 4.13,-17.76 a 11.72,11.72 0 0 0 -16.22,-11.29 c -8.15,3.49 -8.93,16.02 -6.89,23.56 z"
           style="fill:#ff8b7b"
           id="path123" />
        <path
           d="m 308.79,220.34 a 11.07,11.07 0 0 0 3.67,0.83 l 0.14,-0.06 -0.8,-1.56 c 0,0 -0.49,1.33 -3.01,0.79 z"
           style="opacity:0.2"
           id="path124" />
        <path
           d="m 328.16,205.52 c -0.9,3 -2.13,6.15 -4.43,8.33 -0.85,0.81 -8.19,1.56 -8.19,1.56 -0.35,-2.48 -4.9,-10.46 -6.89,-13 -0.28,1.24 -0.74,6.59 -1.16,7.77 -0.83,0 -2.14,-1.28 -2.14,-1.28 a 19.84,19.84 0 0 0 1,-10.89 l -0.29,-1.51 c 0,0.32 -4.85,2.6 -7.21,-1.81 -8.81,-16.49 13.79,-13.56 20.06,-7.13 a 6.21,6.21 0 0 1 6.39,0.8 10.19,10.19 0 0 1 3.51,5.66 21.74,21.74 0 0 1 -0.65,11.5 z"
           style="fill:#263238"
           id="path125" />
      </g>
      <path
         d="m 321.5,183.85 a 2.81,2.81 0 0 0 -2.71,1.82 c -0.25,0.65 -0.5,2.22 0.23,2.55 a 23.62,23.62 0 0 1 2.48,-4.37 z"
         style="fill:#263238"
         id="path126" />
      <path
         d="m 314.28,204.56 a 7.73,7.73 0 0 1 -3,4.64 c -2,1.42 -4,-0.6 -3.94,-3 0,-2.14 1.43,-5.11 3.67,-5.59 2.24,-0.48 3.73,1.65 3.27,3.95 z"
         style="fill:#ff8b7b"
         id="path127" />
      <polygon
         points="279,381.24 274.64,399.39 266.47,396.96 268.95,377.66 "
         style="fill:#ff8b7b"
         id="polygon127" />
      <polygon
         points="277.34,388.43 280.13,375.86 269.52,371.91 267.93,385.79 "
         style="opacity:0.2;isolation:isolate"
         id="polygon128" />
      <path
         d="m 265.78,395.58 9.31,2.52 a 0.72,0.72 0 0 1 0.48,0.84 l -1.41,8.86 a 1.57,1.57 0 0 1 -1.83,1.35 c -3.22,-0.94 -4.73,-1.58 -8.82,-2.69 -2.52,-0.68 -8.28,-2.32 -11.8,-3 -3.52,-0.68 -2.81,-4.77 -1.26,-4.87 7,-0.44 11,-1.27 13.77,-2.82 a 2.09,2.09 0 0 1 1.56,-0.19 z"
         style="fill:#263238"
         id="path128" />
      <path
         d="m 261.43,396.9 a 10.57,10.57 0 0 0 2.24,0.22 0.16,0.16 0 0 0 0.17,-0.11 0.2,0.2 0 0 0 0,-0.21 c -0.22,-0.25 -2.2,-2.41 -3.3,-2.26 a 0.71,0.71 0 0 0 -0.58,0.43 1.12,1.12 0 0 0 0,1.13 2.37,2.37 0 0 0 1.47,0.8 z m 1.83,-0.18 c -1.56,-0.11 -2.65,-0.36 -2.94,-0.85 a 0.67,0.67 0 0 1 0.05,-0.71 0.35,0.35 0 0 1 0.27,-0.23 c 0.58,-0.09 1.8,0.95 2.62,1.79 z"
         style="fill:#ff8b1a"
         id="path129" />
      <path
         d="m 263.68,397.12 h 0.09 a 0.2,0.2 0 0 0 0.14,-0.14 c 0,-0.1 0.79,-2.44 0.14,-3.45 a 1,1 0 0 0 -0.75,-0.47 0.75,0.75 0 0 0 -0.84,0.42 c -0.41,0.86 0.41,2.89 1.12,3.58 a 0.14,0.14 0 0 0 0.1,0.06 z m -0.33,-3.64 a 0.61,0.61 0 0 1 0.37,0.28 4.35,4.35 0 0 1 -0.09,2.76 4,4 0 0 1 -0.81,-2.86 c 0,-0.11 0.14,-0.23 0.43,-0.19 z"
         style="fill:#ff8b1a"
         id="path130" />
      <path
         d="m 316,294.79 c 0,0 -45.71,-0.15 -47.19,25.09 -1.45,17.74 -2.37,25 -1.49,63.66 l 12.17,0.67 c 0,0 12.38,-41.83 10.71,-58.44 13.64,0 44.86,1.19 49.39,-11.11 a 54.62,54.62 0 0 0 3.24,-19.49 z"
         style="fill:#ff8b1a"
         id="path131" />
      <g
         style="opacity:0.3"
         id="g132">
        <path
           d="m 316,294.79 c 0,0 -45.71,-0.15 -47.19,25.09 -1.45,17.74 -2.37,25 -1.49,63.66 l 12.17,0.67 c 0,0 12.38,-41.83 10.71,-58.44 13.64,0 44.86,1.19 49.39,-11.11 a 54.62,54.62 0 0 0 3.24,-19.49 z"
           id="path132" />
      </g>
      <polygon
         points="282.28,380.47 281.46,386.57 265.56,383.85 265.82,376.81 "
         style="fill:#ff8b1a"
         id="polygon132" />
      <polygon
         points="250.17,384.64 243.09,401.92 235.39,398.27 240.78,379.58 "
         style="fill:#ff8b7b"
         id="polygon133" />
      <polygon
         points="247.43,391.5 252.1,379.5 242.23,373.98 238.53,387.46 "
         style="opacity:0.2;isolation:isolate"
         id="polygon134" />
      <path
         d="m 234.92,396.8 8.81,3.92 a 0.71,0.71 0 0 1 0.35,0.89 l -2.75,8.55 a 1.58,1.58 0 0 1 -2,1.06 c -3,-1.43 -4.44,-2.29 -8.31,-4 -2.39,-1.06 -7.82,-3.56 -11.21,-4.73 -3.39,-1.17 -2.05,-5.15 -0.5,-5 6.95,0.64 11,0.42 14,-0.68 a 2.1,2.1 0 0 1 1.61,-0.01 z"
         style="fill:#263238"
         id="path134" />
      <path
         d="m 230.42,397.44 a 10.81,10.81 0 0 0 2.17,0.56 0.18,0.18 0 0 0 0.2,-0.08 0.2,0.2 0 0 0 0,-0.21 c -0.17,-0.28 -1.8,-2.71 -2.91,-2.73 a 0.7,0.7 0 0 0 -0.65,0.34 1.14,1.14 0 0 0 -0.18,1.11 2.32,2.32 0 0 0 1.37,1.01 z m 1.83,0.11 c -1.52,-0.35 -2.56,-0.77 -2.77,-1.29 a 0.71,0.71 0 0 1 0.15,-0.7 0.4,0.4 0 0 1 0.31,-0.19 c 0.59,0.01 1.63,1.21 2.31,2.18 z"
         style="fill:#ff8b1a"
         id="path135" />
      <path
         d="m 232.6,398 h 0.09 a 0.26,0.26 0 0 0 0.17,-0.12 c 0,-0.1 1.15,-2.29 0.66,-3.38 a 1,1 0 0 0 -0.67,-0.58 0.76,0.76 0 0 0 -0.9,0.28 c -0.53,0.79 0,2.92 0.57,3.71 a 0.18,0.18 0 0 0 0.08,0.09 z m 0.23,-3.65 a 0.59,0.59 0 0 1 0.33,0.33 4.38,4.38 0 0 1 -0.51,2.72 4,4 0 0 1 -0.37,-3 c 0,-0.11 0.17,-0.2 0.46,-0.12 z"
         style="fill:#ff8b1a"
         id="path136" />
      <path
         d="m 301.63,294.79 c -0.32,0 -50.91,-4.93 -54.3,23.84 -5.37,35.22 -8.75,64.91 -8.75,64.91 l 10.65,5.28 c 0,0 18.56,-37.59 18.28,-61.16 14.83,-4.26 53.2,2.89 57.74,-9.4 3.71,-10.06 1.7,-23.47 1.7,-23.47 z"
         style="fill:#ff8b1a"
         id="path137" />
      <path
         d="m 301.63,294.79 c -0.32,0 -50.91,-4.93 -54.3,23.84 -5.37,35.22 -8.75,64.91 -8.75,64.91 l 10.65,5.28 c 0,0 18.56,-37.59 18.28,-61.16 14.83,-4.26 53.2,2.89 57.74,-9.4 3.71,-10.06 1.7,-23.47 1.7,-23.47 z"
         style="opacity:0.3"
         id="path138" />
      <polygon
         points="252.87,383.27 250.94,390.35 236.65,383.92 237.8,378.07 "
         style="fill:#ff8b1a"
         id="polygon138" />
      <path
         d="m 326.09,232.3 c 1.15,3.16 2.05,6.19 3,9.33 0.95,3.14 1.65,6.27 2.33,9.47 0.68,3.2 1.22,6.46 1.6,9.82 a 50.28,50.28 0 0 1 0.15,10.55 21.4,21.4 0 0 1 -1.45,6 13.76,13.76 0 0 1 -1.9,3.28 10.68,10.68 0 0 1 -1.53,1.55 l -0.45,0.37 c -0.24,0.17 -0.51,0.36 -0.77,0.51 a 7.36,7.36 0 0 1 -1.35,0.59 9.8,9.8 0 0 1 -2.13,0.48 12.46,12.46 0 0 1 -1.73,0.1 24,24 0 0 1 -2.93,-0.25 40.74,40.74 0 0 1 -5.12,-1 98,98 0 0 1 -18.19,-7 l 1.86,-5.17 c 6,1.27 12.2,2.6 18.05,3.38 1.47,0.13 2.88,0.32 4.21,0.37 a 13.18,13.18 0 0 0 1.78,-0.06 c 0.49,0 0.92,-0.18 0.78,-0.19 l -0.29,0.11 a 1.67,1.67 0 0 0 -0.28,0.18 v 0 l 0.1,-0.15 a 4.34,4.34 0 0 0 0.36,-0.83 13.31,13.31 0 0 0 0.54,-3.19 41.6,41.6 0 0 0 -0.5,-8.27 c -0.4,-2.94 -1,-5.82 -1.67,-8.76 -0.67,-2.94 -1.42,-5.88 -2.26,-8.82 -0.84,-2.94 -1.75,-5.9 -2.65,-8.68 z"
         style="fill:#ff8b7b"
         id="path139" />
      <path
         d="m 300,272.58 -6.06,-4.15 -3.81,6.62 c 0,0 7.18,3.76 8.92,2 z"
         style="fill:#ff8b7b"
         id="path140" />
      <polygon
         points="293.91,268.38 288.63,269.28 285.31,273.64 290.1,275 "
         style="fill:#ff8b7b"
         id="polygon140" />
      <path
         d="m 262.65,266.75 -8.88,-1 -2.55,9.76 c 0,0 10.15,0.09 11.75,-2.82 z"
         style="fill:#ff8b7b"
         id="path141" />
      <path
         d="m 247.11,269.36 -1.52,3.74 a 1.71,1.71 0 0 0 1.57,2.36 h 4.06 l 2.55,-9.76 -5.8,2.71 a 1.78,1.78 0 0 0 -0.86,0.95 z"
         style="fill:#ff8b7b"
         id="path142" />
      <path
         d="m 339.84,230.29 c -0.73,-1.93 -4.1,-3.86 -6.18,-3.86 h -1.37 A 74.53,74.53 0 0 0 324,227 a 147.1,147.1 0 0 0 -16.41,2.76 69.29,69.29 0 0 0 -6.8,2.2 h -0.07 a 5.18,5.18 0 0 0 -3.22,5.53 c 0.85,6.21 2.49,18.84 3.47,31.41 0.77,9.81 0.45,19.55 0.7,26.25 h 41.17 c 1.42,-8.05 1.19,-15.07 1.31,-29.6 0.09,-8.74 -1.33,-27.32 -4.31,-35.26 z"
         style="fill:#ff8b1a"
         id="path143" />
      <path
         d="m 339.84,230.29 c -0.73,-1.93 -4.1,-3.86 -6.18,-3.86 h -1.37 A 74.53,74.53 0 0 0 324,227 a 147.1,147.1 0 0 0 -16.41,2.76 69.29,69.29 0 0 0 -6.8,2.2 h -0.07 a 5.18,5.18 0 0 0 -3.22,5.53 c 0.85,6.21 2.49,18.84 3.47,31.41 0.77,9.81 0.45,19.55 0.7,26.25 h 41.17 c 1.42,-8.05 1.19,-15.07 1.31,-29.6 0.09,-8.74 -1.33,-27.32 -4.31,-35.26 z"
         style="opacity:0.8;fill:#ffffff"
         id="path144" />
      <path
         d="m 304.25,232.43 a 6.47,6.47 0 0 1 3.76,8.39 c -2.94,7.61 -7.88,19.68 -10.06,23.92 -0.83,1.51 -1.66,3 -2.6,4.53 -0.48,0.76 -1,1.51 -1.57,2.29 -0.32,0.4 -0.56,0.76 -0.93,1.17 l -0.53,0.61 -0.3,0.34 a 8,8 0 0 1 -3,2 14.23,14.23 0 0 1 -1.82,0.57 19,19 0 0 1 -3.09,0.41 40.1,40.1 0 0 1 -5.37,0 97.58,97.58 0 0 1 -19.54,-3.65 l -0.68,-6.75 c 6.29,0.18 12.72,0.39 18.72,0.09 1.41,-0.08 2.82,-0.23 4.22,-0.45 a 10.62,10.62 0 0 0 1.66,-0.42 2.55,2.55 0 0 0 0.5,-0.24 c 0.05,0 0,-0.07 -0.25,0.12 a 1.64,1.64 0 0 0 -0.25,0.21 l 0.09,-0.12 0.24,-0.32 c 0.16,-0.19 0.34,-0.5 0.52,-0.75 0.35,-0.53 0.71,-1.11 1.06,-1.73 0.69,-1.22 1.35,-2.56 2,-3.92 1.3,-2.72 2.48,-5.59 3.63,-8.48 0.81,-2.06 3.2,-8.3 5.22,-13.87 a 6.47,6.47 0 0 1 8.37,-3.87 z"
         style="fill:#ff8b1a"
         id="path145" />
      <path
         d="m 300.1,259 c 0.31,3.7 0.2,2.5 0.54,6.38 10.05,-15.53 6.73,-25.78 6.73,-25.78 z"
         style="opacity:0.2;isolation:isolate"
         id="path146" />
      <path
         d="m 304.25,232.43 a 6.47,6.47 0 0 1 3.76,8.39 c -2.94,7.61 -7.88,19.68 -10.06,23.92 -0.83,1.51 -1.66,3 -2.6,4.53 -0.48,0.76 -1,1.51 -1.57,2.29 -0.32,0.4 -0.56,0.76 -0.93,1.17 l -0.53,0.61 -0.3,0.34 a 8,8 0 0 1 -3,2 14.23,14.23 0 0 1 -1.82,0.57 19,19 0 0 1 -3.09,0.41 40.1,40.1 0 0 1 -5.37,0 97.58,97.58 0 0 1 -19.54,-3.65 l -0.68,-6.75 c 6.29,0.18 12.72,0.39 18.72,0.09 1.41,-0.08 2.82,-0.23 4.22,-0.45 a 10.62,10.62 0 0 0 1.66,-0.42 2.55,2.55 0 0 0 0.5,-0.24 c 0.05,0 0,-0.07 -0.25,0.12 a 1.64,1.64 0 0 0 -0.25,0.21 l 0.09,-0.12 0.24,-0.32 c 0.16,-0.19 0.34,-0.5 0.52,-0.75 0.35,-0.53 0.71,-1.11 1.06,-1.73 0.69,-1.22 1.35,-2.56 2,-3.92 1.3,-2.72 2.48,-5.59 3.63,-8.48 0.81,-2.06 3.2,-8.3 5.22,-13.87 a 6.47,6.47 0 0 1 8.37,-3.87 z"
         style="opacity:0.8;fill:#ffffff"
         id="path147" />
      <path
         d="m 290.74,410.14 a 4.2,4.2 0 1 1 -4.2,-4.2 4.2,4.2 0 0 1 4.2,4.2 z"
         style="fill:#263238"
         id="path148" />
      <path
         d="m 352.39,410.14 a 4.2,4.2 0 1 0 4.2,-4.2 4.2,4.2 0 0 0 -4.2,4.2 z"
         style="fill:#263238"
         id="path149" />
      <path
         d="m 316,408.8 a 4.2,4.2 0 1 0 4.2,-4.2 4.2,4.2 0 0 0 -4.2,4.2 z"
         style="fill:#263238"
         id="path150" />
      <path
         d="m 365.74,404.5 a 2.07,2.07 0 0 1 -2.07,1.65 l -43.78,-0.6 -41,0.92 a 2.0126165,2.0126165 0 0 1 -0.45,-4 l 22.39,-4.35 a 37.72,37.72 0 0 1 7,-0.66 h 24.06 a 37.7,37.7 0 0 1 7,0.66 l 25.16,4 a 2,2 0 0 1 1.69,2.38 z"
         style="fill:#263238"
         id="path151" />
      <rect
         x="312.44"
         y="360.89999"
         width="14.89"
         height="42.860001"
         style="fill:#263238"
         id="rect151" />
      <rect
         x="314.57999"
         y="333.75"
         width="10.62"
         height="27.370001"
         style="fill:#263238"
         id="rect152" />
      <polygon
         points="314.58,333.75 314.58,338.82 325.2,341.5 325.2,333.75 "
         style="opacity:0.2;isolation:isolate"
         id="polygon152" />
      <rect
         x="275.35001"
         y="294.64001"
         width="5.3899999"
         height="23.02"
         style="fill:#263238"
         id="rect153" />
      <rect
         x="275.35001"
         y="294.64001"
         width="5.3899999"
         height="23.02"
         style="fill:#263238"
         id="rect154" />
      <path
         d="m 316.51,243 a 11.85,11.85 0 0 0 -0.15,1.89 v 88.81 h -8.57 v -88.77 a 1.48,1.48 0 0 1 0,-0.21 z"
         style="fill:#263238"
         id="path154" />
      <path
         d="m 366.41,333.64 v 0.1 H 365 a 11.51,11.51 0 0 0 1.41,-0.1 z"
         style="fill:#263238"
         id="path155" />
      <path
         d="m 375,242.47 -0.63,-10.55 a 12.6,12.6 0 0 0 -3.48,-7.95 l -6.73,-7 -3.46,-17.58 a 5.83,5.83 0 0 0 -5.72,-4.72 h -15.51 a 5.83,5.83 0 0 0 -5.52,4 l -6.49,18.91 -12.38,7.62 a 12.61,12.61 0 0 0 -5.86,8.87 l -1.6,10.77 h 0.18 l 8.71,-1.68 a 11.85,11.85 0 0 0 -0.15,1.89 v 88.81 H 365 a 11.51,11.51 0 0 0 1.45,-0.1 v 0 a 10,10 0 0 0 8.56,-9.92 v -79.69 a 14,14 0 0 0 -0.11,-1.71 z m -41.09,-6.7 -15,1.43 -0.66,0.06 1.61,-6.86 10.05,-4.85 3.34,-1.61 0.66,1.61 0.11,0.27 0.61,1.48 z m 29.71,0.17 v 0 l -1.89,-0.47 c -0.07,-0.59 -0.15,-1.19 -0.22,-1.78 -0.42,-3.29 -0.8,-6.39 -0.8,-6.39 l 0.15,-1.08 0.31,-2.28 7.15,6.46 0.1,1.53 0.37,5.33 z"
         style="fill:#263238"
         id="path156" />
      <path
         d="m 316.36,314.39 v 19.35 h -56.5 a 6.93,6.93 0 0 1 -6,-10.48 18,18 0 0 1 15.52,-8.87 z"
         style="fill:#263238"
         id="path157" />
      <path
         d="m 296.37,301.67 a 55.59,55.59 0 0 0 -36.68,0 5.21,5.21 0 0 1 -6.45,-2.46 v 0 c -1.1,-2.33 0.37,-5.34 3.37,-6.39 a 64.83,64.83 0 0 1 42.82,0 c 3,1 4.47,4.06 3.37,6.39 v 0 a 5.22,5.22 0 0 1 -6.43,2.46 z"
         style="fill:#263238"
         id="path158" />
      <path
         d="m 296.37,301.67 a 55.59,55.59 0 0 0 -36.68,0 5.21,5.21 0 0 1 -6.45,-2.46 v 0 c -1.1,-2.33 0.37,-5.34 3.37,-6.39 a 64.83,64.83 0 0 1 42.82,0 c 3,1 4.47,4.06 3.37,6.39 v 0 a 5.22,5.22 0 0 1 -6.43,2.46 z"
         style="opacity:0.4;fill:#263238"
         id="path159" />
    </g>
  </g>
</svg>
