<?xml version="1.0" encoding="UTF-8" standalone="no"?>
<svg
   id="layer-1"
   viewBox="0 0 500 499.99998"
   version="1.1"
   width="500"
   height="500"
   xmlns="http://www.w3.org/2000/svg"
   xmlns:svg="http://www.w3.org/2000/svg">
  <defs
     id="defs145" />
  <g
     id="g147"
     transform="translate(0,114.28)">
    <g
       id="freepik--Spotlight--inject-2">
      <rect
         x="125.74"
         y="16.469999"
         width="5.3800001"
         height="307.70001"
         rx="1.59"
         style="fill:#263238"
         id="rect1" />
      <rect
         x="125.74"
         y="16.469999"
         width="5.3800001"
         height="307.70001"
         rx="1.59"
         style="opacity:0.8;isolation:isolate;fill:#ffffff"
         id="rect2" />
      <rect
         x="89.239998"
         y="51.779999"
         width="58.68"
         height="5.3800001"
         rx="1.59"
         style="fill:#263238"
         id="rect3" />
      <rect
         x="89.239998"
         y="51.779999"
         width="58.68"
         height="5.3800001"
         rx="1.59"
         style="opacity:0.8;isolation:isolate;fill:#ffffff"
         id="rect4" />
      <path
         d="m 139.37,373.06 h -21.88 a 2,2 0 0 1 -2,-2.39 L 121.76,318 a 3,3 0 0 1 3,-2.67 h 7.37 a 3,3 0 0 1 3,2.67 l 6.27,52.67 a 2,2 0 0 1 -1.57,2.35 1.79,1.79 0 0 1 -0.46,0.04 z"
         style="fill:#263238"
         id="path4" />
      <path
         d="m 139.37,373.06 h -21.88 a 2,2 0 0 1 -2,-2.39 L 121.76,318 a 3,3 0 0 1 3,-2.67 h 7.37 a 3,3 0 0 1 3,2.67 l 6.27,52.67 a 2,2 0 0 1 -1.57,2.35 1.79,1.79 0 0 1 -0.46,0.04 z"
         style="opacity:0.6;isolation:isolate;fill:#ffffff"
         id="path5" />
      <polygon
         points="187.08,119.02 113.76,119.02 134.73,22.37 208.05,22.37 "
         style="fill:#263238"
         id="polygon5" />
      <path
         d="m 103.47,100.28 10.29,18.72 21,-96.65 -17.68,13.79 a 21.06,21.06 0 0 0 -7.62,12.14 l -8.11,37.39 a 21,21 0 0 0 2.12,14.61 z"
         style="fill:#263238"
         id="path6" />
      <polygon
         points="116.84,116.53 136.73,24.86 204.97,24.86 185.08,116.53 "
         style="opacity:0.3;isolation:isolate;fill:#ffffff"
         id="polygon6" />
      <polygon
         points="120.92,114.05 139.74,27.34 202.89,27.34 184.07,114.05 "
         style="opacity:0.3;isolation:isolate;fill:#ffffff"
         id="polygon7" />
      <polygon
         points="125,111.56 142.74,29.83 200.81,29.83 183.07,111.56 "
         style="fill:#ffffff"
         id="polygon8" />
    </g>
    <g
       id="freepik--Chroma--inject-2"
       transform="translate(0,6.3400027)">
      <rect
         x="214.17"
         y="87.260002"
         width="200.34"
         height="292.12"
         rx="9.7700005"
         style="fill:#ff8b1a"
         id="rect8" />
      <path
         d="m 412.4,369.61 v 0 a 2.1,2.1 0 0 0 2.11,-2.11 v 0 -268.36 a 2.1,2.1 0 0 0 -2.1,-2.12 v 0 a 2.1,2.1 0 0 0 -2.11,2.11 v 0 268.36 a 2.1,2.1 0 0 0 2.1,2.12 z"
         style="opacity:0.2;isolation:isolate"
         id="path8" />
    </g>
    <g
       id="freepik--character-1--inject-2">
      <g
         id="g146"
         transform="matrix(0.90581472,0,0,0.90581472,75.441656,30.692015)">
        <g
           id="freepik--Character--inject-45"
           transform="matrix(0.65285225,0,0,0.65285225,-36.071771,120.13779)">
          <polygon
             points="146.39,385.64 138.56,388.61 143.36,407.53 151.19,404.56 "
             style="fill:#b55b52"
             id="polygon1" />
          <polygon
             points="94.16,388.29 85.78,388.29 84.53,407.69 92.9,407.69 "
             style="fill:#b55b52"
             id="polygon2" />
          <path
             d="M 93.74,406.72 H 83.53 a 0.69,0.69 0 0 0 -0.69,0.57 l -1.28,7.44 a 1.31,1.31 0 0 0 1.3,1.49 c 3.28,-0.06 5.67,-0.25 9.81,-0.25 2.54,0 10.23,0.27 13.75,0.27 3.52,0 3.8,-3.48 2.34,-3.8 -6.52,-1.41 -11.48,-3.35 -13.64,-5.21 a 2.14,2.14 0 0 0 -1.38,-0.51 z"
             style="fill:#263238"
             id="path2" />
          <path
             d="m 150.79,403.68 -8.55,3.24 a 0.74,0.74 0 0 0 -0.47,0.79 l 1.1,7.54 a 1.21,1.21 0 0 0 1.65,1 c 3.06,-1.22 5.67,-2.77 9.57,-4.17 a 64.73,64.73 0 0 0 12.78,-5.75 c 2.9,-1.84 1.68,-5.34 0.31,-4.79 -6.22,2.5 -7.75,3.32 -14.28,2.06 a 3.87,3.87 0 0 0 -2.11,0.08 z"
             style="fill:#263238"
             id="path3" />
          <path
             d="m 128.7,152.49 c 2.63,4.66 5.41,9.46 8.21,14.1 2.8,4.64 5.67,9.28 8.72,13.6 0.73,1.09 1.55,2.14 2.29,3.15 a 2.53,2.53 0 0 0 0.65,0.76 2.47,2.47 0 0 0 1.52,0.24 10.74,10.74 0 0 0 2.79,-0.67 33.78,33.78 0 0 0 6.46,-3.38 c 1.08,-0.71 2.18,-1.44 3.25,-2.22 1.07,-0.78 2.15,-1.62 3.13,-2.37 l 4.69,4.18 a 44.24,44.24 0 0 1 -2.75,3.57 44.8,44.8 0 0 1 -3,3.31 39,39 0 0 1 -3.43,3.07 28.58,28.58 0 0 1 -4,2.74 19.91,19.91 0 0 1 -5.08,2.07 13.51,13.51 0 0 1 -6.75,0 12.71,12.71 0 0 1 -6.17,-3.89 c -1,-1.16 -2,-2.25 -2.9,-3.4 A 155.64,155.64 0 0 1 126.24,173.3 c -3.1,-4.82 -6,-9.65 -8.66,-14.79 z"
             style="fill:#b65b52"
             id="path4-8" />
          <path
             d="m 113.84,152.88 c -2.25,7.68 13.64,28.62 13.64,28.62 l 16,-10.31 a 102.06,102.06 0 0 0 -11.11,-18.84 c -6.53,-8.35 -16.05,-7.9 -18.53,0.53 z"
             style="fill:#ff8b1a"
             id="path5-5" />
          <path
             d="m 113.84,152.88 c -2.25,7.68 13.64,28.62 13.64,28.62 l 16,-10.31 a 102.06,102.06 0 0 0 -11.11,-18.84 c -6.53,-8.35 -16.05,-7.9 -18.53,0.53 z"
             style="opacity:0.2"
             id="path6-7" />
          <path
             d="m 123.61,161.89 c 3.3,1.41 8.15,9.35 10.68,15.24 l -6.81,4.37 a 128.61,128.61 0 0 1 -10.22,-16 c 2.15,-2.39 4.61,-4.35 6.35,-3.61 z"
             style="opacity:0.2"
             id="path7" />
          <path
             d="m 164.73,178.31 2.94,-8.23 8.33,4 c 0,0 -1.73,7.33 -7.83,7.32 z"
             style="fill:#b55b52"
             id="path8-6" />
          <polygon
             points="176,174.06 167.67,170.08 175.08,164.67 178.61,168.56 "
             style="fill:#b55b52"
             id="polygon8-1" />
          <polygon
             points="141.03,398.37 138.56,388.62 146.39,385.65 148.86,395.4 "
             style="opacity:0.2"
             id="polygon9" />
          <polygon
             points="93.51,398.29 85.13,398.29 85.78,388.3 94.16,388.3 "
             style="opacity:0.2"
             id="polygon10" />
          <path
             d="m 76.52,149.48 c 9,31.81 7.54,65.56 8.1,72.42 l 44.76,-1.68 c 7.61,-47.42 -6,-73.81 -6,-73.81 0,0 -2.87,-0.55 -6.78,-0.95 -1.22,-0.13 -2.54,-0.24 -3.92,-0.31 -0.76,-0.05 -1.53,-0.07 -2.31,-0.09 a 165.25,165.25 0 0 0 -19,1.42 c -1.19,0.15 -2.4,0.32 -3.58,0.52 -1.18,0.2 -2.15,0.38 -3.16,0.58 -4.63,0.91 -8.11,1.9 -8.11,1.9 z"
             style="fill:#ff8b1a"
             id="path10-8" />
          <path
             d="m 76.52,149.48 c 9,31.81 7.54,65.56 8.1,72.42 l 44.76,-1.68 c 7.61,-47.42 -6,-73.81 -6,-73.81 0,0 -2.87,-0.55 -6.78,-0.95 -1.22,-0.13 -2.54,-0.24 -3.92,-0.31 -0.76,-0.05 -1.53,-0.07 -2.31,-0.09 a 165.25,165.25 0 0 0 -19,1.42 c -1.19,0.15 -2.4,0.32 -3.58,0.52 -1.18,0.2 -2.15,0.38 -3.16,0.58 -4.63,0.91 -8.11,1.9 -8.11,1.9 z"
             style="opacity:0.2"
             id="path11-9" />
          <path
             d="m 86.05,163.13 c 0.8,3.07 -0.12,17.12 -3.33,20.58 -0.44,-4.5 -1,-9.19 -1.8,-14 z"
             style="opacity:0.2"
             id="path12-2" />
          <path
             d="m 91.62,125 c 1.65,6 3.68,17.12 -0.29,21.51 3.57,3.06 8.19,6.55 15.46,6.26 7.27,-0.29 5.64,-5.18 3.53,-7.67 -6.94,-1.12 -7.14,-6.18 -6.3,-11 z"
             style="fill:#b55b52"
             id="path13-7" />
          <polygon
             points="103.48,154 104.72,151.76 106.98,151.7 108.3,152.59 "
             style="fill:#ff8b1a"
             id="polygon13" />
          <polygon
             points="113.14,154 112.81,151.41 108.8,151.23 108.3,152.59 "
             style="fill:#ff8b1a"
             id="polygon14" />
          <path
             d="m 88.44,146 1.9,-0.95 a 1.85,1.85 0 0 1 1.92,0.16 38.13,38.13 0 0 0 14.74,6.49 c -3.82,1.82 -2.88,6.72 -2.88,6.72 0,0 -12.15,-4 -16,-11.26 A 0.86,0.86 0 0 1 88.44,146 Z"
             style="fill:#ffffff"
             id="path14-9" />
          <path
             d="m 112.44,144.75 -2.79,-0.42 a 0.37,0.37 0 0 0 -0.36,0.58 c 1,1.39 2.6,4.44 -0.49,6.32 3.82,1.82 5,6.29 5,6.29 0,0 5,-5.37 -0.82,-12.46 a 0.93,0.93 0 0 0 -0.54,-0.31 z"
             style="fill:#ffffff"
             id="path15-5" />
          <path
             d="M 96.67,128.66 104,134 a 19.21,19.21 0 0 0 -0.33,3.42 c -2.63,-0.18 -6.42,-2.77 -6.9,-5.48 a 9.29,9.29 0 0 1 -0.1,-3.28 z"
             style="opacity:0.2"
             id="path16-4" />
          <path
             d="m 112.87,112.61 c -0.34,2.91 -3.13,5.41 -4.93,6 L 105.69,106 c 5.05,-3.57 7.65,2.53 7.18,6.61 z"
             style="fill:#263238"
             id="path17-3" />
          <path
             d="m 89.09,116.1 c 1.46,8.18 1.89,13.05 6.54,16.8 7,5.64 16.73,0.69 17.75,-7.76 0.92,-7.61 -1.62,-19.71 -10.06,-22.06 A 11.34,11.34 0 0 0 89.09,116.1 Z"
             style="fill:#b55b52"
             id="path18-1" />
          <path
             d="m 90.65,121.62 c 3.79,2 5.45,-2.51 5.49,-4.35 0,-2.92 -1.22,-6.13 -2.73,-7.3 7.32,0 21.8,-0.36 18.14,-7.33 -3.66,-6.97 -11,-6.18 -16.47,-2.36 -2.91,2 -12.33,0.26 -10,5.69 -4.91,2.61 -0.65,12.34 5.57,15.65 z"
             style="fill:#263238"
             id="path19-2" />
          <path
             d="m 85.88,105.52 a 6,6 0 0 1 -3.61,-1.23 3.43,3.43 0 0 0 3.2,2.65 z"
             style="fill:#263238"
             id="path20-3" />
          <path
             d="m 86,122.83 a 8,8 0 0 0 4.57,4 c 2.64,0.85 3.24,-1.57 2.6,-4.11 -0.58,-2.3 -1.82,-5.41 -4.51,-5.16 -2.69,0.25 -3.78,2.97 -2.66,5.27 z"
             style="fill:#b55b52"
             id="path21-3" />
          <path
             d="m 139.13,308.75 c -3.4,-25.33 -9.75,-88.53 -9.75,-88.53 L 100,221.33 c 0,0 13.88,63.15 18.9,88.76 5.02,25.61 19,87.41 19,87.41 l 13.26,-5 c 0,0 -8.48,-57.41 -12.03,-83.75 z"
             style="fill:#263238"
             id="path22-4" />
          <path
             d="m 111,238.35 a 15.58,15.58 0 0 0 -6.55,3.35 c 2.78,12.77 6.41,29.58 9.53,44.39 2.08,-12.83 2.14,-37.04 -2.98,-47.74 z"
             style="opacity:0.2"
             id="path23-1" />
          <path
             d="m 113.51,220.82 c 0,0 -6.25,68.56 -9.11,92.92 -3.13,26.69 -7,82.62 -7,82.62 H 82 c 0,0 -0.63,-49.47 1.36,-75.59 2.27,-29.75 1.25,-98.87 1.25,-98.87 z"
             style="fill:#263238"
             id="path24-1" />
          <polygon
             points="80.96,391.29 101.12,390.94 99.4,396.69 81.34,396.69 "
             style="fill:#ff8b1a"
             id="polygon24" />
          <polygon
             points="135.16,393.04 152.72,386.08 152.89,392.16 137.09,398.15 "
             style="fill:#ff8b1a"
             id="polygon25" />
          <path
             d="m 101.86,117 c 0.07,0.68 0.49,1.18 0.93,1.13 0.44,-0.05 0.73,-0.64 0.65,-1.31 -0.08,-0.67 -0.49,-1.17 -0.93,-1.12 -0.44,0.05 -0.73,0.59 -0.65,1.3 z"
             style="fill:#263238"
             id="path25-3" />
          <path
             d="m 109.44,116.09 c 0.08,0.67 0.5,1.17 0.93,1.12 0.43,-0.05 0.74,-0.63 0.66,-1.3 -0.08,-0.67 -0.5,-1.18 -0.94,-1.13 -0.44,0.05 -0.73,0.64 -0.65,1.31 z"
             style="fill:#263238"
             id="path26-8" />
          <path
             d="m 107.07,116.7 a 24.13,24.13 0 0 0 3.86,5.37 3.86,3.86 0 0 1 -3.13,1 z"
             style="fill:#a02724"
             id="path27-7" />
          <path
             d="m 105.18,125.16 a 5.57,5.57 0 0 1 -4.05,-1.76 0.2,0.2 0 1 1 0.31,-0.25 5.36,5.36 0 0 0 4.57,1.58 0.19,0.19 0 0 1 0.22,0.17 0.2,0.2 0 0 1 -0.17,0.22 5.33,5.33 0 0 1 -0.88,0.04 z"
             style="fill:#263238"
             id="path28-4" />
          <path
             d="m 99.24,114.78 a 0.35,0.35 0 0 1 -0.2,0 0.39,0.39 0 0 1 -0.14,-0.54 3.94,3.94 0 0 1 3,-2 0.4,0.4 0 0 1 0.42,0.38 0.39,0.39 0 0 1 -0.38,0.41 v 0 a 3.18,3.18 0 0 0 -2.38,1.61 0.36,0.36 0 0 1 -0.32,0.14 z"
             style="fill:#263238"
             id="path29-2" />
          <path
             d="m 112.41,113.11 a 0.41,0.41 0 0 1 -0.33,-0.19 3.12,3.12 0 0 0 -2.43,-1.52 0.4,0.4 0 0 1 0,-0.8 4,4 0 0 1 3.09,1.9 0.39,0.39 0 0 1 -0.12,0.54 0.38,0.38 0 0 1 -0.21,0.07 z"
             style="fill:#263238"
             id="path30-7" />
          <path
             d="m 96.58,408.18 a 10.18,10.18 0 0 1 -2.21,-0.3 0.2,0.2 0 0 1 -0.15,-0.16 0.18,0.18 0 0 1 0.08,-0.2 c 0.29,-0.19 2.91,-1.85 3.86,-1.38 a 0.68,0.68 0 0 1 0.37,0.56 1.13,1.13 0 0 1 -0.36,1.05 2.42,2.42 0 0 1 -1.59,0.43 z m -1.64,-0.58 c 1.43,0.28 2.52,0.23 3,-0.15 a 0.8,0.8 0 0 0 0.24,-0.72 c 0,-0.16 -0.09,-0.21 -0.14,-0.23 -0.53,-0.25 -2.04,0.5 -3.1,1.1 z"
             style="fill:#ff8b1a"
             id="path31-7" />
          <path
             d="m 94.42,407.88 a 0.23,0.23 0 0 1 -0.11,0 0.22,0.22 0 0 1 -0.1,-0.18 c 0,-0.1 0.09,-2.52 1,-3.31 a 1,1 0 0 1 0.83,-0.26 v 0 a 0.69,0.69 0 0 1 0.66,0.52 c 0.22,0.93 -1.36,2.77 -2.21,3.24 a 0.13,0.13 0 0 1 -0.07,-0.01 z m 1.52,-3.39 a 0.67,0.67 0 0 0 -0.44,0.17 4.54,4.54 0 0 0 -0.86,2.63 c 0.83,-0.66 1.82,-2 1.69,-2.6 0,-0.05 0,-0.16 -0.3,-0.2 z"
             style="fill:#ff8b1a"
             id="path32-9" />
          <path
             d="m 152,404.47 a 0.19,0.19 0 0 1 -0.18,-0.11 0.2,0.2 0 0 1 0,-0.22 c 0.29,-0.32 2.83,-3.11 4,-2.94 a 0.62,0.62 0 0 1 0.5,0.37 v 0 a 1.1,1.1 0 0 1 0,1 c -0.57,1.08 -2.93,1.63 -4.29,1.85 z m 3.69,-2.88 c -0.67,0 -2.13,1.31 -3.15,2.38 1.84,-0.37 3.1,-0.94 3.42,-1.55 a 0.74,0.74 0 0 0 0,-0.68 0.24,0.24 0 0 0 -0.19,-0.15 z"
             style="fill:#ff8b1a"
             id="path33-3" />
          <path
             d="m 152,404.47 h -0.06 a 0.2,0.2 0 0 1 -0.14,-0.14 c 0,-0.09 -0.61,-2.28 0.07,-3.48 a 1.45,1.45 0 0 1 0.91,-0.7 v 0 c 0.53,-0.15 0.77,0.06 0.89,0.25 0.48,0.83 -0.75,3.24 -1.54,4 a 0.16,0.16 0 0 1 -0.13,0.07 z m 1.09,-4 h -0.21 v 0 a 1,1 0 0 0 -0.66,0.52 4.62,4.62 0 0 0 -0.12,2.81 c 0.74,-1 1.51,-2.76 1.22,-3.26 -0.04,0.02 -0.09,-0.06 -0.26,-0.05 z m -0.26,-0.16 z"
             style="fill:#ff8b1a"
             id="path34-1" />
          <path
             d="m 85.72,161.32 c -2.51,5.17 -5.07,10.51 -7.55,15.77 -1.23,2.65 -2.47,5.29 -3.63,7.94 l -1.74,4 -0.8,1.97 -0.2,0.5 -0.15,0.37 c -0.1,0.23 -0.17,0.48 -0.26,0.71 a 12.2,12.2 0 0 0 -0.32,6.09 21,21 0 0 0 2.63,6.65 41.73,41.73 0 0 0 4.76,6.44 c 0.91,1 1.87,2.06 2.87,3 0.5,0.48 1,1 1.53,1.43 0.53,0.43 1.06,1 1.5,1.35 L 81,222.89 a 40.15,40.15 0 0 1 -4.19,-2.46 c -1.33,-0.87 -2.63,-1.79 -3.89,-2.79 a 43,43 0 0 1 -7,-7 29.33,29.33 0 0 1 -5.05,-9.36 22.54,22.54 0 0 1 -0.49,-11.58 c 0.13,-0.47 0.23,-1 0.38,-1.42 l 0.39,-1.24 0.7,-2.21 c 0.5,-1.45 1,-2.91 1.52,-4.34 1.05,-2.87 2.15,-5.71 3.34,-8.51 C 69,166.4 71.57,161 74.43,155.53 Z"
             style="fill:#b65b52"
             id="path35-9" />
          <path
             d="m 76.52,149.48 c -7.64,2.39 -15.15,28.3 -15.15,28.3 L 79,185.52 c 0,0 5.72,-12.52 9,-22.33 3.63,-10.69 -2.23,-16.61 -11.48,-13.71 z"
             style="fill:#ff8b1a"
             id="path36-8" />
          <path
             d="m 76.52,149.48 c -7.64,2.39 -15.15,28.3 -15.15,28.3 L 79,185.52 c 0,0 5.72,-12.52 9,-22.33 3.63,-10.69 -2.23,-16.61 -11.48,-13.71 z"
             style="opacity:0.2"
             id="path37-6" />
          <path
             d="m 82.46,215.92 7.31,4.34 -7.11,7.08 c 0,0 -6.17,-4.75 -4.33,-8.47 z"
             style="fill:#b55b52"
             id="path38-5" />
          <polygon
             points="82.66,227.34 89.77,220.26 94.66,227.19 87.32,232.33 "
             style="fill:#b55b52"
             id="polygon38" />
        </g>
        <g
           id="g145"
           transform="matrix(0.77907373,0.18716374,-0.18716374,0.77907373,22.768969,32.240269)">
          <path
             d="m 46.715878,202.73 a 4,4 0 0 0 2.81,1.82 c 1.39,0.13 1.69,-1.59 1,-3.12 -0.69,-1.53 -2.14,-3.11 -3.38,-2.53 -1.24,0.58 -1.34,2.53 -0.43,3.83 z"
             style="fill:#ffb573"
             id="path35-4" />
          <path
             d="m 50.955878,200.76 c -0.66,-2.41 -2.71,-4 -4.57,-3.58 -1.86,0.42 -2.84,2.73 -2.18,5.14 0.66,2.41 2.71,4 4.57,3.58 1.86,-0.42 2.84,-2.73 2.18,-5.14 z"
             style="fill:#ff8b1a"
             id="path45-8" />
          <path
             d="m 48.505878,201.68 c -0.57,-1.86 -1.92,-3.23 -3,-3.07 -1.08,0.16 -1.49,1.8 -0.91,3.65 0.58,1.85 1.92,3.23 3,3.07 1.08,-0.16 1.49,-1.8 0.91,-3.65 z"
             style="opacity:0.3;isolation:isolate"
             id="path46-6" />
          <path
             d="m 48.015878,197.29 c -1.25,-4.12 -1.64,-9.37 0.9,-12.29 -1.15,0.11 -3.08,2.34 -3.08,2.34 -1.19,1.9 -1.82,6.07 -0.36,10.67 a 1.89,1.89 0 0 0 2.54,-0.72 z"
             style="fill:#ff8b1a"
             id="path47-5" />
        </g>
      </g>
      <polygon
         points="180.5,203.16 132.49,215.86 138.72,219.81 181.88,208.39 "
         style="fill:#263238"
         id="polygon47" />
      <polygon
         points="166.87,234.65 148.5,234.65 150.35,239.62 166.87,239.62 "
         style="fill:#263238"
         id="polygon48" />
      <rect
         x="181.00999"
         y="190.89"
         width="2.55"
         height="8.4499998"
         transform="rotate(-14.82,182.3016,195.10433)"
         style="fill:#263238"
         id="rect48" />
      <polygon
         points="189.96,185.96 181.95,188.82 185.1,200.73 193.48,199.26 "
         style="fill:#263238"
         id="polygon49" />
      <polygon
         points="189.96,185.96 181.95,188.82 185.1,200.73 193.48,199.26 "
         style="opacity:0.1;isolation:isolate;fill:#ffffff"
         id="polygon50" />
      <polygon
         points="190.76,188.97 182.72,191.73 183.25,193.77 191.36,191.24 "
         style="opacity:0.1;isolation:isolate;fill:#ffffff"
         id="polygon51" />
      <rect
         x="191.69"
         y="186.81"
         width="1.34"
         height="11.27"
         transform="matrix(0.97,-0.26,0.26,0.97,-42.83,55.6)"
         style="fill:#263238"
         id="rect51" />
      <polygon
         points="197.13,182.87 190.96,184.5 195.07,200.03 199.45,198.87 "
         style="fill:#263238"
         id="polygon52" />
      <polygon
         points="197.13,182.87 190.96,184.5 195.07,200.03 199.45,198.87 "
         style="opacity:0.1;isolation:isolate;fill:#ffffff"
         id="polygon53" />
      <polygon
         points="115.6,195.85 111.23,197.01 112.11,212.6 116.48,211.44 116.96,219.97 168.34,206.38 182.93,202.52 179.18,188.35 168.89,191.07 163.45,187.9 161.66,181.12 115.46,193.34 "
         style="fill:#263238"
         id="polygon54" />
      <path
         d="m 178.48,191.71 2.18,8.23 a 1.54,1.54 0 0 1 -1.08,1.89 v 0 l -38.15,10.09 a 1.55,1.55 0 0 1 -1.89,-1.09 1.75,1.75 0 0 1 -0.05,-0.4 v -20.68 a 1.54,1.54 0 0 1 1.14,-1.49 l 18.44,-4.87 a 1.54,1.54 0 0 1 1.88,1.09 l 1,3.81 a 1.49,1.49 0 0 0 0.72,0.94 l 5.43,3.16 a 1.59,1.59 0 0 0 1.17,0.16 l 7.31,-1.94 a 1.54,1.54 0 0 1 1.9,1 c 0,0 0,0.08 0,0.1 z"
         style="opacity:0.1;isolation:isolate;fill:#ffffff"
         id="path55" />
      <circle
         cx="157.67999"
         cy="227.67"
         r="8.5100002"
         style="fill:#263238"
         id="circle55" />
      <path
         d="m 162.17,227.67 a 4.49,4.49 0 1 1 -4.49,-4.49 v 0 a 4.49,4.49 0 0 1 4.49,4.49 z"
         style="opacity:0.1;isolation:isolate;fill:#ffffff"
         id="path56" />
      <path
         d="m 157.68,239.62 h 2.39 v 138.59 a 1.18,1.18 0 0 1 -1.18,1.18 v 0 a 1.18,1.18 0 0 1 -1.18,-1.18 V 239.62 Z"
         style="fill:#263238"
         id="path57" />
      <path
         d="m 137.61,379.39 v 0 a 1.18,1.18 0 0 1 -1.18,-1.18 0.86,0.86 0 0 1 0,-0.16 l 15.12,-138.43 h 2.38 l -15.15,138.76 a 1.18,1.18 0 0 1 -1.17,1.01 z"
         style="fill:#263238"
         id="path58" />
      <path
         d="m 180.13,379.39 v 0 a 1.16,1.16 0 0 1 -1.16,-1 L 163.8,239.62 h 2.39 l 15.11,138.43 a 1.18,1.18 0 0 1 -1,1.33 z"
         style="fill:#263238"
         id="path59" />
      <polygon
         points="128.89,184.27 150.95,177.76 153.3,183.33 157.13,182.32 152.02,174.78 126.73,182.82 121.7,191.69 125.53,190.68 "
         style="fill:#263238"
         id="polygon59" />
      <path
         d="m 164.74,219.28 -16.91,4.47 a 2.13,2.13 0 0 1 -2.6,-1.52 2.36,2.36 0 0 1 -0.06,-0.75 l 0.34,-3.46 19.72,-5.22 1,3.87 a 2.12,2.12 0 0 1 -1.48,2.61 z"
         style="fill:#263238"
         id="path60" />
      <path
         d="m 164.74,219.28 -16.91,4.47 a 2.13,2.13 0 0 1 -2.6,-1.52 2.36,2.36 0 0 1 -0.06,-0.75 l 0.34,-3.46 19.72,-5.22 1,3.87 a 2.12,2.12 0 0 1 -1.48,2.61 z"
         style="opacity:0.1;isolation:isolate;fill:#ffffff"
         id="path61" />
    </g>
    <g
       id="freepik--character-2--inject-2">
      <path
         d="m 173.9,281.07 c -0.72,2.8 -1.41,5.73 -2,8.59 -0.59,2.86 -1.17,5.77 -1.49,8.56 -0.09,0.71 -0.13,1.38 -0.19,2.07 v 1.15 a 1.48,1.48 0 0 0 -0.1,-0.36 2.12,2.12 0 0 0 -0.23,-0.48 2.47,2.47 0 0 0 -0.89,-0.87 1.85,1.85 0 0 0 -1.12,-0.29 v 0 a 2.8,2.8 0 0 0 0.64,-0.13 c 0.54,-0.17 1.17,-0.43 1.81,-0.7 2.56,-1.13 5.24,-2.58 7.9,-3.93 v 0 a 1.75,1.75 0 0 1 2.31,0.92 1.74,1.74 0 0 1 -0.31,1.88 45.25,45.25 0 0 1 -3.46,3.18 38.18,38.18 0 0 1 -3.82,2.88 17.54,17.54 0 0 1 -2.27,1.3 9.33,9.33 0 0 1 -1.52,0.58 5.71,5.71 0 0 1 -1.17,0.19 3.91,3.91 0 0 1 -2.22,-0.53 3.71,3.71 0 0 1 -1.29,-1.26 4.89,4.89 0 0 1 -0.35,-0.73 4.74,4.74 0 0 1 -0.16,-0.65 4.1,4.1 0 0 1 -0.06,-0.49 v -0.49 l -0.06,-1.29 c 0,-0.82 0,-1.67 0.06,-2.47 a 72.36,72.36 0 0 1 1.22,-9.4 c 0.57,-3.08 1.27,-6 2.13,-9.1 A 3.5,3.5 0 0 1 174,281 v 0 z"
         style="fill:#b55b52"
         id="path62" />
      <path
         d="m 186.53,294.34 -1.15,2.8 a 1.76,1.76 0 0 1 -1.63,1.1 H 181 c 0,0 -3.42,1.46 -4.88,-0.36 l 0.11,-2 4.92,-3.06 a 2.63,2.63 0 0 1 1.69,-0.38 l 2.77,0.28 a 1.16,1.16 0 0 1 1,1.27 1.06,1.06 0 0 1 -0.08,0.35 z"
         style="fill:#b55b52"
         id="path63" />
      <path
         d="m 178.55,259.37 c 0.71,3.53 1.45,10 -1,12.38 a 33.39,33.39 0 0 1 10.6,8.55 6.25,6.25 0 0 0 1.43,-8.07 c -4,-0.91 -3.67,-4.73 -3.18,-7.52 z"
         style="fill:#b55b52"
         id="path64" />
      <path
         d="m 175.56,273.14 c 3.29,3.36 0.36,13.83 -2.15,17.79 l -8.66,-4.79 c 0,0 0.3,-6.18 2,-9.41 1.8,-3.47 6.57,-5.88 8.81,-3.59 z"
         style="fill:#ff8b1a"
         id="path65" />
      <path
         d="m 199.31,280.61 c -0.19,5.15 0.51,14.37 -2.31,28.94 l -24.19,-0.72 c 0.64,-8.93 -1.89,-15.11 -4.65,-30.65 a 5.07,5.07 0 0 1 4.1,-5.88 h 0.2 c 1.55,-0.22 3.31,-0.42 5.08,-0.52 a 77.67,77.67 0 0 1 11,-0.07 c 1.19,0.1 2.41,0.24 3.58,0.4 a 8.29,8.29 0 0 1 7.19,8.5 z"
         style="fill:#ff8b1a"
         id="path66" />
      <path
         d="m 189.06,250.91 c 0.17,0.45 0.55,0.72 0.84,0.6 0.29,-0.12 0.39,-0.57 0.22,-1 -0.17,-0.43 -0.55,-0.72 -0.85,-0.61 -0.3,0.11 -0.39,0.56 -0.21,1.01 z"
         style="fill:#263238"
         id="path67" />
      <path
         d="m 189.15,250 1,-0.73 c 0,0 -0.27,1.02 -1,0.73 z"
         style="fill:#263238"
         id="path68" />
      <path
         d="m 189.4,251.58 a 13,13 0 0 0 2.71,2.25 2,2 0 0 1 -1.48,0.91 z"
         style="fill:#a02724"
         id="path69" />
      <path
         d="m 188.08,246.84 a 0.31,0.31 0 0 0 -0.05,-0.28 0.28,0.28 0 0 0 -0.4,0 v 0 a 2.84,2.84 0 0 0 -1.06,2.35 0.28,0.28 0 0 0 0.31,0.24 v 0 a 0.26,0.26 0 0 0 0.24,-0.3 v 0 A 2.22,2.22 0 0 1 188,247 a 0.24,0.24 0 0 0 0.08,-0.16 z"
         style="fill:#263238"
         id="path70" />
      <path
         d="m 173.4,255.42 c 2.36,5.42 3.24,7.77 7.07,9.6 5.77,2.75 11.92,-1.33 11.24,-7.35 -0.62,-5.41 -4.37,-13.38 -10.61,-13.61 a 8.06,8.06 0 0 0 -8.4,7.7 8,8 0 0 0 0.7,3.66 z"
         style="fill:#b55b52"
         id="path71" />
      <path
         d="m 184.91,246.85 c 3.16,1.45 2.21,6.25 1.71,7.12 3.17,3.79 0.33,10.84 6.37,11.13 -0.33,4.71 -15.45,6.12 -19.58,4.12 -2.77,-1.34 -5.48,-6.68 -0.85,-11.14 -3.36,-4.92 -2.64,-9.09 0,-11.88 5.07,-5.38 12.93,-4.27 12.35,0.65 z"
         style="fill:#263238"
         id="path72" />
      <path
         d="m 173.52,254.9 c -5.07,5.85 -9.22,17.82 0.87,8.81 6.3,-5.63 11,-15.56 11,-15.56 z"
         style="fill:#ff8b1a"
         id="path73" />
      <path
         d="m 173.52,254.9 c -5.07,5.85 -9.22,17.82 0.87,8.81 6.3,-5.63 11,-15.56 11,-15.56 z"
         style="opacity:0.7;isolation:isolate;fill:#ffffff"
         id="path74" />
      <path
         d="m 172,259.86 c 7.45,-1.65 14.76,-12.16 15.3,-14.09 -1.45,-2.27 -5.2,-4.32 -8.23,-3.84 a 12.32,12.32 0 0 0 -9.86,9.85 c -0.42,2.22 2.79,8.08 2.79,8.08 z"
         style="fill:#ff8b1a"
         id="path75" />
      <path
         d="m 184.26,255 a 4.94,4.94 0 0 0 2.83,2.48 c 1.64,0.54 2.54,-0.9 2.15,-2.49 -0.35,-1.43 -1.62,-3.44 -3.3,-3.29 a 2.21,2.21 0 0 0 -1.68,3.3 z"
         style="fill:#b55b52"
         id="path76" />
      <polygon
         points="226.37,376.13 232.08,375.59 228.24,361.52 222.52,362.06 "
         style="fill:#b55b52"
         id="polygon76" />
      <path
         d="m 242.38,377.27 c -3.6,-0.57 -5.54,-0.72 -9.36,-3.07 a 2.26,2.26 0 0 0 -1.31,-0.41 l -6,0.83 a 0.44,0.44 0 0 0 -0.39,0.45 l -0.29,4 a 2.15,2.15 0 0 0 1.81,2.45 h 0.27 c 1.89,-0.17 4,-0.82 6,-0.94 a 70.14,70.14 0 0 0 9.15,-0.77 c 2.13,-0.35 1.34,-2.35 0.12,-2.54 z"
         style="fill:#263238"
         id="path77" />
      <polygon
         points="246.16,358.77 250.72,356.43 244.73,344.85 240.08,349.64 "
         style="fill:#b55b52"
         id="polygon77" />
      <path
         d="m 250.79,354.94 -5.62,2.81 a 0.52,0.52 0 0 0 -0.26,0.61 l 1.17,3.87 a 2.29,2.29 0 0 0 2.91,1.42 l 0.26,-0.11 c 1.78,-0.7 3.17,-2.43 5.36,-3.54 3.19,-1.62 5,-2 7.61,-4.7 1.75,-1.84 -0.51,-2.59 -1.53,-2.17 -2.56,1.05 -3.31,1.94 -8.32,1.56 a 3.05,3.05 0 0 0 -1.58,0.25 z"
         style="fill:#263238"
         id="path78" />
      <path
         d="m 188.57,309.14 c 0,0 39.16,-5.8 43.22,4.25 7.05,17.46 17.54,38.61 17.54,38.61 l -6.19,3.31 c 0,0 -16.22,-16.27 -22.3,-33.82 -7.25,2.35 -28.13,7.54 -36.58,7.54 -9,0 -14.93,-5.34 -11.67,-18.12 a 2.58,2.58 0 0 1 2.5,-1.93 c 5.69,0.02 13.48,0.16 13.48,0.16 z"
         style="fill:#ff8b1a"
         id="path79" />
      <path
         d="m 188.57,309.14 c 0,0 39.16,-5.8 43.22,4.25 7.05,17.46 17.54,38.61 17.54,38.61 l -6.19,3.31 c 0,0 -16.22,-16.27 -22.3,-33.82 -7.25,2.35 -28.13,7.54 -36.58,7.54 -9,0 -14.93,-5.34 -11.67,-18.12 a 2.58,2.58 0 0 1 2.5,-1.93 c 5.69,0.02 13.48,0.16 13.48,0.16 z"
         style="opacity:0.5;isolation:isolate;fill:#ffffff"
         id="path80" />
      <path
         d="m 196.27,310.24 c 0,0 28.2,3 28.47,14.41 0.45,18.83 6.22,45.78 6.22,45.78 l -6.33,0.59 c 0,0 -11,-21.24 -13.49,-39.64 -11.46,0.75 -19.8,0.55 -28.16,-0.75 -9.36,-1.45 -16.18,-8 -9.53,-21.69 5.55,-1.12 22.82,1.3 22.82,1.3 z"
         style="fill:#ff8b1a"
         id="path81" />
      <path
         d="m 196.27,310.24 c 0,0 28.2,3 28.47,14.41 0.45,18.83 6.22,45.78 6.22,45.78 l -6.33,0.59 c 0,0 -11,-21.24 -13.49,-39.64 -11.46,0.75 -19.8,0.55 -28.16,-0.75 -9.36,-1.45 -16.18,-8 -9.53,-21.69 5.55,-1.12 22.82,1.3 22.82,1.3 z"
         style="opacity:0.7;isolation:isolate;fill:#ffffff"
         id="path82" />
      <path
         d="m 172.49,307.4 -0.68,2.15 c -0.09,0.16 0.1,0.34 0.38,0.35 l 24.9,0.74 c 0.22,0 0.4,-0.1 0.42,-0.23 l 0.28,-2.16 c 0,-0.15 -0.16,-0.28 -0.4,-0.29 l -24.5,-0.73 a 0.45,0.45 0 0 0 -0.4,0.17 z"
         style="fill:#ffffff"
         id="path83" />
      <path
         d="M 175.7,310.24 H 175 c -0.13,0 -0.22,-0.08 -0.21,-0.16 l 0.39,-2.8 c 0,-0.08 0.13,-0.15 0.26,-0.14 h 0.65 c 0.13,0 0.23,0.07 0.22,0.15 l -0.35,2.85 a 0.75,0.75 0 0 1 -0.26,0.1 z"
         style="fill:#ff8b1a"
         id="path84" />
      <path
         d="m 195.24,310.82 h -0.66 c -0.13,0 -0.22,-0.07 -0.21,-0.16 l 0.39,-2.8 c 0,-0.08 0.13,-0.15 0.26,-0.14 h 0.65 c 0.13,0 0.23,0.07 0.22,0.15 l -0.39,2.81 c -0.01,0.08 -0.13,0.14 -0.26,0.14 z"
         style="fill:#ff8b1a"
         id="path85" />
      <path
         d="m 185.47,310.53 h -0.66 c -0.13,0 -0.22,-0.08 -0.21,-0.16 l 0.39,-2.8 c 0,-0.08 0.13,-0.15 0.26,-0.14 h 0.65 c 0.13,0 0.23,0.07 0.22,0.15 l -0.39,2.81 c -0.01,0.08 -0.13,0.14 -0.26,0.14 z"
         style="fill:#ff8b1a"
         id="path86" />
      <path
         d="m 200.94,283.91 c 0.12,1.08 0.29,2.41 0.52,3.61 0.23,1.2 0.48,2.43 0.77,3.62 a 28.59,28.59 0 0 0 1.09,3.43 21.51,21.51 0 0 0 1.47,3.06 l 0.11,0.18 v 0 a 0.58,0.58 0 0 0 0.1,0.12 5.67,5.67 0 0 0 0.5,0.48 c 0.41,0.35 0.9,0.73 1.41,1.09 1,0.72 2.1,1.47 3.21,2.17 l 6.72,4.37 v 0 a 1.75,1.75 0 0 1 -1.47,3.14 75.8,75.8 0 0 1 -7.76,-2.85 c -1.27,-0.57 -2.55,-1.14 -3.82,-1.84 -0.64,-0.35 -1.28,-0.71 -2,-1.16 a 11.77,11.77 0 0 1 -1.06,-0.8 5.76,5.76 0 0 1 -0.62,-0.59 l -0.35,-0.42 -0.18,-0.24 a 27,27 0 0 1 -4,-8.22 36.58,36.58 0 0 1 -1,-4.26 c -0.13,-0.71 -0.25,-1.43 -0.35,-2.15 -0.1,-0.72 -0.17,-1.41 -0.22,-2.26 a 3.5137018,3.5137018 0 1 1 7,-0.62 z"
         style="fill:#b55b52"
         id="path87" />
      <path
         d="m 196.06,273.71 c 6.56,4.49 6.74,13.6 6.74,13.6 l -8.41,2.47 a 11.73,11.73 0 0 1 -4.33,-8.91 c -0.06,-4.33 3.61,-8.79 6,-7.16 z"
         style="fill:#ff8b1a"
         id="path88" />
      <path
         d="m 223.13,307.21 -2,-1.39 a 2.48,2.48 0 0 0 -1.64,-0.46 l -5,0.47 -1.42,2.17 a 8.36,8.36 0 0 0 4.49,2 l 2.54,1.42 a 1,1 0 0 0 1.22,-0.16 l 2.06,-2.14 a 1.35,1.35 0 0 0 -0.19,-1.9 z"
         style="fill:#b55b52"
         id="path89" />
      <path
         d="m 243.45,355.42 6,-2.85 a 0.84,0.84 0 0 0 0.42,-1.05 l -0.77,-2.1 a 0.84,0.84 0 0 0 -1.06,-0.51 0.61,0.61 0 0 0 -0.14,0.07 l -6.59,3.68 a 0.85,0.85 0 0 0 -0.16,1.35 l 1.4,1.27 a 0.85,0.85 0 0 0 0.9,0.14 z"
         style="fill:#ffffff"
         id="path90" />
      <path
         d="m 224.43,372.38 6.59,-0.59 a 0.85,0.85 0 0 0 0.76,-0.84 v -2.24 a 0.85,0.85 0 0 0 -0.83,-0.85 h -0.17 l -7.46,1.14 a 0.84,0.84 0 0 0 -0.71,0.94 0.72,0.72 0 0 0 0.09,0.27 l 0.87,1.68 a 0.85,0.85 0 0 0 0.86,0.49 z"
         style="fill:#ffffff"
         id="path91" />
      <rect
         x="168.55"
         y="326.82999"
         width="43.849998"
         height="12.35"
         rx="3.47"
         style="fill:#263238"
         id="rect91" />
      <rect
         x="188.06"
         y="339.19"
         width="4.8200002"
         height="45.639999"
         style="fill:#263238"
         id="rect92" />
      <rect
         x="188.06"
         y="339.19"
         width="4.8200002"
         height="45.639999"
         style="opacity:0.6;isolation:isolate;fill:#ffffff"
         id="rect93" />
      <polygon
         points="188.07,339.19 192.89,339.19 192.89,343.85 188.07,342.08 "
         style="opacity:0.2;isolation:isolate"
         id="polygon93" />
      <path
         d="m 202.61,381.88 5.9,1.75 a 1.07,1.07 0 0 1 -0.3,2.09 h -35.46 a 1.07,1.07 0 0 1 -0.31,-2.09 l 5.9,-1.75 a 42.48,42.48 0 0 1 24.27,0 z"
         style="fill:#263238"
         id="path93" />
      <path
         d="M 169.47,317 H 199 a 4.12,4.12 0 0 0 4.23,-4 4.19,4.19 0 0 0 -0.09,-1 l -2.62,-15.48 a 6.19,6.19 0 0 0 -5.84,-5 h -29.52 a 4.11,4.11 0 0 0 -4.24,4 4.36,4.36 0 0 0 0.1,1 l 2.62,15.48 a 6.18,6.18 0 0 0 5.83,5 z"
         style="fill:#263238"
         id="path94" />
      <path
         d="m 195.23,332.88 a 1.5,1.5 0 0 1 -1.48,-1.25 l -5.24,-32 a 1.52,1.52 0 1 1 3,-0.48 l 5.24,32 a 1.49,1.49 0 0 1 -1.22,1.72 v 0 a 0.94,0.94 0 0 1 -0.3,0.01 z"
         style="fill:#ff8b1a"
         id="path95" />
      <path
         d="m 175.32,332.88 a 1.49,1.49 0 0 1 -1.47,-1.25 l -5.24,-32 a 1.52,1.52 0 1 1 3,-0.48 l 5.24,32 a 1.5,1.5 0 0 1 -1.24,1.72 0.94,0.94 0 0 1 -0.29,0.01 z"
         style="fill:#ff8b1a"
         id="path96" />
    </g>
    <g
       id="freepik--character-3--inject-2"
       transform="translate(0,3.3599918)">
      <path
         d="m 263,151.88 c -0.06,2.2 -0.25,4.18 -0.45,6.26 -0.2,2.08 -0.48,4.12 -0.86,6.2 -0.38,2.08 -0.8,4.2 -1.36,6.27 a 38.37,38.37 0 0 1 -2.32,6.58 l -0.23,0.51 a 5,5 0 0 1 -2.79,2.56 39.8,39.8 0 0 1 -10.84,2.36 38.13,38.13 0 0 1 -5.45,0 c -0.9,-0.06 -1.81,-0.18 -2.71,-0.31 l -1.36,-0.24 c -0.47,-0.09 -0.87,-0.2 -1.47,-0.34 a 3.69,3.69 0 0 1 0,-7.19 l 1,-0.23 c 0.21,-0.05 0.61,-0.08 1,-0.13 l 1.06,-0.13 c 0.72,-0.11 1.44,-0.24 2.15,-0.38 a 42.74,42.74 0 0 0 4.2,-1 37.66,37.66 0 0 0 4,-1.36 39.39,39.39 0 0 0 3.73,-1.73 l -3,3.07 a 36.67,36.67 0 0 0 1.12,-4.74 c 0.31,-1.72 0.54,-3.54 0.75,-5.37 0.21,-1.83 0.37,-3.7 0.52,-5.57 0.15,-1.87 0.26,-3.8 0.37,-5.55 v -0.1 a 6.51,6.51 0 0 1 13,0.58 z"
         style="fill:#263238"
         id="path97" />
      <path
         d="m 233.9,174.8 -4,-1.89 -1.12,6.91 a 13.13,13.13 0 0 0 2.71,0.53 3.49,3.49 0 0 0 3.67,-3.29 1.34,1.34 0 0 0 0,-0.2 v 0 a 2.3,2.3 0 0 0 -1.26,-2.06 z"
         style="fill:#ffb573"
         id="path98" />
      <path
         d="m 224.2,174.89 v 2.49 a 2,2 0 0 0 1.71,2 l 2.88,0.46 1.12,-6.91 -3.68,-0.06 a 2,2 0 0 0 -2,2 z"
         style="fill:#ffb573"
         id="path99" />
      <path
         d="m 317.11,240.68 c -5.46,-18.16 -11.53,-41.48 -21.08,-59.87 l -11.84,6.68 -9.09,5.14 c 0,0 16.78,34 29.08,57.53 3.4,6.51 15.21,17.68 25.27,30.31 3.65,4.58 10.2,12.2 13.2,14.7 l 8.42,-3.33 c -2.15,-3.66 -1.07,-3.79 -5.7,-12.17 -7.19,-12.28 -18.88,-27.29 -28.26,-38.99 z"
         style="fill:#263238"
         id="path100" />
      <path
         d="m 381.14,240.5 c -15.08,-5.39 -30,-16.29 -39.65,-21.74 -14.24,-11.7 -22.07,-34.52 -37.51,-42.48 l -21.63,15.21 c 0,0 25.31,27.92 48.91,41.65 4.37,2.54 20.62,11.67 36.9,15.58 5.9,1.42 14.14,3.88 18.34,4.11 l 6,-8.21 c -5.18,-1.73 -8.27,-3.02 -11.36,-4.12 z"
         style="fill:#263238"
         id="path101" />
      <path
         d="m 349.6,288.68 c 1.47,3.16 7.55,5.28 5.09,8.29 -3.43,4.18 -2.2,13.13 -10.2,13.13 -2.59,0 -7,-0.12 -5.32,-2 2.54,-2.94 6.24,-9.26 3.48,-12.91 0.97,-4.85 6.95,-6.51 6.95,-6.51 z"
         style="fill:#263238"
         id="path102" />
      <path
         d="m 386.06,246.14 a 4.3,4.3 0 0 1 4.86,-1.92 c 3.17,0.85 7.17,1.12 7,4.07 -0.26,5.79 3.42,15.34 -0.76,18.58 -3.58,2.77 -5.28,-3.32 -5.86,-5.77 -0.25,-1.08 -2.22,-6.64 -6.41,-8.45 a 8.07,8.07 0 0 1 1.17,-6.51 z"
         style="fill:#263238"
         id="path103" />
      <path
         d="m 272.9,133.32 a 105.34,105.34 0 0 0 -18.68,10.82 10.32,10.32 0 0 0 -3.13,12.86 c 5.38,10.74 14.42,19.22 24,35.59 4.52,1.49 19.4,-5.61 28.9,-16.36 -3.26,-4.32 -11.53,-19.65 -18.77,-37.93 a 9.16,9.16 0 0 0 -11.88,-5.19 3.38,3.38 0 0 0 -0.44,0.21 z"
         style="fill:#263238"
         id="path104" />
      <path
         d="m 262.24,122.35 -5.35,11.56 c 2.3,1.72 4.13,3.91 2.08,7.06 a 8.68,8.68 0 0 0 -1.23,7.72 c 0.81,2.13 2.26,4 4.58,4.16 5.17,-4.69 8.7,-13.79 9.21,-17.82 -2.02,-1.66 -7.78,-8.41 -9.29,-12.68 z"
         style="fill:#263238"
         id="path105" />
      <path
         d="m 260.06,127.06 -3.17,6.85 a 10.89,10.89 0 0 1 1.78,1.61 c 2.2,-1.1 4,-4.66 3.18,-6.34 a 6.54,6.54 0 0 0 -1.79,-2.12 z"
         style="opacity:0.2;isolation:isolate"
         id="path106" />
      <path
         d="m 262.64,117.61 c 2.15,5.3 1,8.53 -0.37,12.39 -2,5.82 -9.54,6.46 -13.24,1.9 -3.33,-4.1 -6.75,-12.54 -2.82,-17.1 6.09,-7.09 14.28,-2.48 16.43,2.81 z"
         style="fill:#263238"
         id="path107" />
      <path
         d="m 256.41,121.14 c 1.83,3.88 3.09,6.08 2.3,8.92 -1.19,4.28 -6.64,4.77 -9.56,1.44 -2.63,-3 -5.19,-8.86 -2.43,-12.12 2.76,-3.26 7.85,-2.13 9.69,1.76 z"
         style="fill:#ffb573"
         id="path108" />
      <path
         d="m 252.59,129.83 a 4.49,4.49 0 0 0 2.21,-2.69 0.18,0.18 0 0 0 -0.12,-0.19 0.16,0.16 0 0 0 -0.18,0.12 4.27,4.27 0 0 1 -2.58,2.76 0.15,0.15 0 0 0 -0.08,0.2 v 0 a 0.16,0.16 0 0 0 0.2,0.09 z"
         style="fill:#263238"
         id="path109" />
      <path
         d="m 252.3,122.41 c 0.2,0.42 0.14,0.86 -0.13,1 -0.27,0.14 -0.66,-0.1 -0.86,-0.52 -0.2,-0.42 -0.14,-0.87 0.13,-1 0.27,-0.13 0.66,0.11 0.86,0.52 z"
         style="fill:#263238"
         id="path110" />
      <path
         d="m 247.74,125.08 c 0.2,0.42 0.14,0.87 -0.13,1 -0.27,0.13 -0.67,-0.11 -0.87,-0.53 -0.2,-0.42 -0.14,-0.86 0.14,-1 0.28,-0.14 0.66,0.11 0.86,0.53 z"
         style="fill:#263238"
         id="path111" />
      <path
         d="m 249.63,124.7 a 16.79,16.79 0 0 1 -0.29,4.53 2.7,2.7 0 0 0 2.19,-0.57 z"
         style="fill:#ed893e"
         id="path112" />
      <path
         d="m 253.14,120.82 a 0.26,0.26 0 0 0 0.15,-0.35 0.27,0.27 0 0 0 -0.09,-0.12 2.75,2.75 0 0 0 -2.45,-0.52 0.28,0.28 0 0 0 -0.1,0.38 0.27,0.27 0 0 0 0.28,0.14 v 0 a 2.2,2.2 0 0 1 1.93,0.43 0.26,0.26 0 0 0 0.28,0.04 z"
         style="fill:#263238"
         id="path113" />
      <path
         d="m 245.2,124.64 a 0.25,0.25 0 0 0 0.13,-0.22 2.15,2.15 0 0 1 0.88,-1.76 0.26,0.26 0 0 0 0.09,-0.37 0.28,0.28 0 0 0 -0.38,-0.09 2.67,2.67 0 0 0 -1.14,2.21 0.28,0.28 0 0 0 0.27,0.28 0.27,0.27 0 0 0 0.15,-0.05 z"
         style="fill:#263238"
         id="path114" />
      <path
         d="m 279.41,133 c 1.22,0.3 2.2,0.58 3.28,0.92 l 3.13,1 a 65.33,65.33 0 0 1 6.18,2.56 45.05,45.05 0 0 1 6.13,3.46 23.9,23.9 0 0 1 6,5.61 l 0.23,0.3 a 5,5 0 0 1 0.86,2.11 21.45,21.45 0 0 1 0,6.4 22.12,22.12 0 0 1 -1.78,5.94 24.41,24.41 0 0 1 -3.13,5 25.91,25.91 0 0 1 -1.95,2.11 l -1.06,1 -0.58,0.47 -0.67,0.51 a 1.86,1.86 0 0 1 -2.61,-0.33 v 0 a 2.5,2.5 0 0 1 -0.21,-0.35 l -2.23,-4.89 0.17,-0.33 0.25,-0.41 c 0.17,-0.28 0.34,-0.57 0.5,-0.86 0.32,-0.59 0.6,-1.19 0.86,-1.79 a 19,19 0 0 0 1.18,-3.6 13.94,13.94 0 0 0 0.32,-3.41 12.67,12.67 0 0 0 -0.53,-3.17 l 1.09,2.4 a 16.34,16.34 0 0 0 -3.27,-2.33 45.34,45.34 0 0 0 -4.73,-2.23 c -1.7,-0.67 -3.46,-1.32 -5.25,-1.91 -0.9,-0.3 -1.8,-0.58 -2.71,-0.85 l -2.62,-0.76 -0.2,-0.06 A 6.5,6.5 0 0 1 279.41,133 Z"
         style="fill:#263238"
         id="path115" />
      <path
         d="m 291,166.76 -3.58,2.54 5.48,4.35 a 12.9,12.9 0 0 0 1.79,-2.11 3.47,3.47 0 0 0 -1.08,-4.8 l -0.18,-0.11 v 0 a 2.27,2.27 0 0 0 -2.43,0.13 z"
         style="fill:#ffb573"
         id="path116" />
      <path
         d="m 286.39,175.27 2.18,1.2 a 2,2 0 0 0 2.57,-0.52 l 1.8,-2.3 -5.48,-4.35 -1.84,3.19 a 2,2 0 0 0 0.7,2.74 z"
         style="fill:#ffb573"
         id="path117" />
      <path
         d="m 271.29,162.21 h -0.05 l -18.65,-7.86 c -0.05,0 -0.07,0 -0.08,-0.1 a 0.13,0.13 0 0 1 0.06,-0.11 l 9.82,-6.61 13.89,-10.39 a 0.12,0.12 0 0 1 0.14,0 0.11,0.11 0 0 1 0.06,0.13 l -5.07,24.87 a 0.15,0.15 0 0 1 -0.06,0.09 z m -18.39,-8 18.3,7.71 5,-24.34 -13.63,10.15 z"
         style="fill:#ffffff"
         id="path118" />
      <path
         d="m 238.53,178.47 a 0.12,0.12 0 0 1 -0.12,-0.1 0.13,0.13 0 0 1 0.09,-0.15 l 13.85,-3 0.16,-21 a 0.13,0.13 0 0 1 0.13,-0.13 v 0 a 0.12,0.12 0 0 1 0.12,0.12 v 0 l -0.16,21.15 a 0.12,0.12 0 0 1 -0.1,0.12 l -13.94,3 z"
         style="fill:#ffffff"
         id="path119" />
      <path
         d="m 296.26,164.4 v 0 a 0.13,0.13 0 0 1 -0.09,-0.16 L 300,148.53 276.3,137.38 a 0.12,0.12 0 0 1 -0.06,-0.16 v 0 a 0.13,0.13 0 0 1 0.16,-0.07 v 0 l 23.73,11.19 a 0.11,0.11 0 0 1 0.07,0.14 v 0 l -3.83,15.81 a 0.12,0.12 0 0 1 -0.11,0.11 z"
         style="fill:#ffffff"
         id="path120" />
      <path
         d="m 281.91,195.76 h -0.07 a 0.13,0.13 0 0 1 0,-0.12 l 1.85,-14.29 -12.51,-19.21 a 0.14,0.14 0 0 1 0,-0.17 0.12,0.12 0 0 1 0.17,0 v 0 l 12.49,19.17 19.51,2.31 a 0.13,0.13 0 0 1 0.1,0.1 0.1,0.1 0 0 1 -0.06,0.13 v 0 L 282,195.74 Z m 2,-14.32 -1.8,14 20.89,-11.71 z"
         style="fill:#ffffff"
         id="path121" />
      <path
         d="m 344.43,291.05 h -0.09 L 324.41,267.47 308.82,245.69 292.23,217.45 281.8,195.69 a 0.13200379,0.13200379 0 0 1 0.21,-0.16 c 0,0 0,0 0,0.05 l 10.42,21.71 16.57,28.23 15.58,21.75 19.92,23.58 a 0.12,0.12 0 0 1 0,0.17 v 0 a 0.09,0.09 0 0 1 -0.07,0.03 z"
         style="fill:#ffffff"
         id="path122" />
      <path
         d="m 386,249 v 0 l -26.72,-9.26 -26.35,-14.24 v 0 l -20.07,-21.68 v 0 l -9.53,-20.1 a 0.13,0.13 0 0 1 0.06,-0.17 0.12,0.12 0 0 1 0.16,0.06 v 0 l 9.45,20 20,21.65 26.31,14.23 26.7,9.25 a 0.12,0.12 0 0 1 0.08,0.15 v 0 A 0.14,0.14 0 0 1 386,249 Z"
         style="fill:#ffffff"
         id="path123" />
      <path
         d="m 247.72,116.52 a 0.67,0.67 0 0 1 -0.69,0.65 0.66,0.66 0 0 1 -0.65,-0.68 0.67,0.67 0 0 1 0.52,-0.64 0.75,0.75 0 0 1 0.82,0.67 z"
         style="fill:#ffffff"
         id="path124" />
      <path
         d="m 263,147.27 a 0.68280671,0.68280671 0 0 1 -0.93,1 0.56,0.56 0 0 1 -0.17,-0.26 0.68280671,0.68280671 0 0 1 0.93,-1 0.56,0.56 0 0 1 0.17,0.26 z"
         style="fill:#ffffff"
         id="path125" />
      <path
         d="m 271.81,161.69 a 0.68,0.68 0 0 1 -0.34,0.89 0.67,0.67 0 0 1 -0.66,-1.16 0.76,0.76 0 0 1 1,0.27 z"
         style="fill:#ffffff"
         id="path126" />
      <path
         d="m 284.29,180.9 a 0.75,0.75 0 0 1 0,1.06 0.84,0.84 0 0 1 -1.19,0.13 0.85,0.85 0 1 1 1.06,-1.32 z"
         style="fill:#ffffff"
         id="path127" />
      <path
         d="m 303.85,183.22 a 0.68,0.68 0 0 1 0.19,0.93 0.67,0.67 0 0 1 -0.93,0.18 0.63,0.63 0 0 1 -0.26,-0.32 0.66,0.66 0 1 1 1,-0.79 z"
         style="fill:#ffffff"
         id="path128" />
      <path
         d="m 333.38,224.92 a 0.6726812,0.6726812 0 1 1 -0.9,1 v 0 a 0.68,0.68 0 1 1 0.9,-1 z"
         style="fill:#ffffff"
         id="path129" />
      <path
         d="m 359.71,239.14 a 0.68,0.68 0 0 1 0.25,0.92 0.67,0.67 0 0 1 -0.92,0.24 0.69,0.69 0 0 1 -0.23,-0.22 0.68,0.68 0 0 1 -0.25,-0.92 0.67,0.67 0 0 1 0.92,-0.24 0.69,0.69 0 0 1 0.23,0.22 z"
         style="fill:#ffffff"
         id="path130" />
      <path
         d="m 313.32,203.24 a 0.76,0.76 0 0 1 0.15,1 0.78,0.78 0 0 1 -1.06,-0.1 0.68007353,0.68007353 0 0 1 0.8,-1.1 0.52,0.52 0 0 1 0.11,0.1 z"
         style="fill:#ffffff"
         id="path131" />
      <path
         d="m 386.36,248.35 a 0.68,0.68 0 0 1 -1,0.91 0.69,0.69 0 0 1 -0.05,-0.85 0.77,0.77 0 0 1 1.05,-0.06 z"
         style="fill:#ffffff"
         id="path132" />
      <path
         d="m 309.49,245.26 a 0.67,0.67 0 1 1 -1.16,0.6 v 0 a 0.67,0.67 0 0 1 0.05,-1 0.69,0.69 0 0 1 0.95,0.05 0.82,0.82 0 0 1 0.14,0.26 z"
         style="fill:#ffffff"
         id="path133" />
      <path
         d="m 325.07,267 a 0.68,0.68 0 0 1 -0.06,1 0.69,0.69 0 0 1 -0.95,-0.06 0.7,0.7 0 0 1 -0.13,-0.24 0.77,0.77 0 0 1 0.16,-1 0.75,0.75 0 0 1 0.98,0.3 z"
         style="fill:#ffffff"
         id="path134" />
      <path
         d="m 292.9,217 a 0.74,0.74 0 0 1 -0.16,1 0.76,0.76 0 0 1 -1,-0.4 v 0 a 0.67,0.67 0 0 1 0.05,-0.95 0.69,0.69 0 0 1 0.95,0 0.82,0.82 0 0 1 0.14,0.26 z"
         style="fill:#ffffff"
         id="path135" />
      <path
         d="m 345,290.52 a 0.67,0.67 0 0 1 -0.31,0.89 0.67,0.67 0 0 1 -0.69,-1.14 0.77,0.77 0 0 1 1,0.25 z"
         style="fill:#ffffff"
         id="path136" />
      <path
         d="m 282.44,195.24 a 0.77,0.77 0 0 1 0,1.06 0.86,0.86 0 1 1 -1.35,-1.06 0.86,0.86 0 0 1 1.2,-0.15 1.06,1.06 0 0 1 0.15,0.15 z"
         style="fill:#ffffff"
         id="path137" />
      <path
         d="m 276.91,136.92 a 0.67,0.67 0 0 1 0,1 0.66,0.66 0 0 1 -1.09,-0.25 0.77,0.77 0 0 1 0.11,-1 0.75,0.75 0 0 1 0.98,0.25 z"
         style="fill:#ffffff"
         id="path138" />
      <path
         d="m 300.65,148.14 a 0.77,0.77 0 0 1 -0.11,1.05 0.84,0.84 0 0 1 -1.2,0 0.85,0.85 0 0 1 0,-1.2 0.86,0.86 0 0 1 1.21,0 1,1 0 0 1 0.1,0.15 z"
         style="fill:#ffffff"
         id="path139" />
      <path
         d="m 296.81,163.92 a 0.68280671,0.68280671 0 0 1 -0.93,1 0.56,0.56 0 0 1 -0.17,-0.26 0.74,0.74 0 0 1 0.11,-1 0.77,0.77 0 0 1 0.99,0.26 z"
         style="fill:#ffffff"
         id="path140" />
      <path
         d="m 253.27,154.07 a 0.67,0.67 0 1 1 -0.83,-0.65 0.77,0.77 0 0 1 0.83,0.65 z"
         style="fill:#ffffff"
         id="path141" />
      <path
         d="m 253.11,175.22 a 0.76,0.76 0 0 1 -0.39,1 v 0 a 0.85,0.85 0 0 1 -0.4,-1.61 0.75,0.75 0 0 1 0.79,0.61 z"
         style="fill:#ffffff"
         id="path142" />
      <path
         d="m 239.17,178.19 a 0.68,0.68 0 1 1 -0.84,-0.65 0.76,0.76 0 0 1 0.84,0.65 z"
         style="fill:#ffffff"
         id="path143" />
      <rect
         x="331.39001"
         y="310.10001"
         width="57.110001"
         height="72.260002"
         rx="7.4400001"
         style="fill:#ff8b1a"
         id="rect143" />
      <rect
         x="331.39001"
         y="310.10001"
         width="57.110001"
         height="72.260002"
         rx="7.4400001"
         style="opacity:0.2;isolation:isolate"
         id="rect144" />
      <rect
         x="315.20999"
         y="310.10001"
         width="57.110001"
         height="72.260002"
         rx="7.4400001"
         style="fill:#ff8b1a"
         id="rect145" />
      <path
         d="m 315.21,375.42 a 0.5,0.5 0 0 1 -0.5,-0.5 v -57.37 a 8,8 0 0 1 7.94,-8 h 11.78 a 0.5,0.5 0 0 1 0,1 h -11.78 a 7,7 0 0 0 -6.94,7 v 57.37 a 0.5,0.5 0 0 1 -0.5,0.5 z"
         style="opacity:0.3;isolation:isolate;fill:#ffffff"
         id="path145" />
    </g>
  </g>
</svg>
